<?xml version="1.0" encoding="UTF-8" standalone="no"?>
<!DOCTYPE svg PUBLIC "-//W3C//DTD SVG 1.1//EN" "http://www.w3.org/Graphics/SVG/1.1/DTD/svg11.dtd">
<!-- Created with Vectornator (http://vectornator.io/) -->
<svg height="100%" stroke-miterlimit="10" style="fill-rule:nonzero;clip-rule:evenodd;stroke-linecap:round;stroke-linejoin:round;" version="1.1" viewBox="0 0 844 390" width="100%" xml:space="preserve" xmlns="http://www.w3.org/2000/svg" xmlns:vectornator="http://vectornator.io" xmlns:xlink="http://www.w3.org/1999/xlink">
<defs/>
<g id="Layer-2" vectornator:layerName="Layer 2"/>
<g id="Layer-1" vectornator:layerName="Layer 1" visibility="hidden">
<path d="M316.037 139.392C316.037 125.215 326.097 115.568 336.426 108.19C340.924 104.978 344.909 102.489 350.637 102.012C354.072 101.725 357.8 103.123 361.141 103.865C365.98 104.941 371.753 104.87 375.969 107.881C384.471 113.954 391.107 128.423 391.107 138.775" fill="none" opacity="1" stroke="#000000" stroke-linecap="round" stroke-linejoin="round" stroke-width="4.66859"/>
<path d="M390.18 134.758C390.908 133.302 393.192 133.359 394.814 133.214C399.127 132.829 403.462 132.762 407.789 132.596C412.078 132.431 416.293 133.833 420.455 134.758C425.246 135.823 430.37 136.402 434.975 138.157C454.097 145.441 473.584 159.178 462.47 181.407" fill="none" opacity="1" stroke="#000000" stroke-linecap="round" stroke-linejoin="round" stroke-width="4.66859"/>
<path d="M422.618 194.073C419.871 194.073 424.831 191.438 425.089 191.293C426.093 190.728 427.131 190.225 428.179 189.748C429.397 189.194 430.636 188.684 431.886 188.204C439.681 185.205 447.023 183.83 455.365 183.57C466.611 183.218 479.451 184.448 489.038 190.984C495.893 195.658 500.939 202.882 507.883 207.048" fill="none" opacity="1" stroke="#000000" stroke-linecap="round" stroke-linejoin="round" stroke-width="4.66859"/>
<path d="M269.388 177.7C264.217 176.407 268.904 170.188 270.006 167.814C272.186 163.119 277.089 158.486 281.127 155.457C295.756 144.486 309.614 140.616 327.776 140.01C333.398 139.823 339.31 139.599 344.458 142.173" fill="none" opacity="1" stroke="#000000" stroke-linecap="round" stroke-linejoin="round" stroke-width="4.66859"/>
<path d="M289.777 178.936C286.829 173.038 272.924 179.171 268.77 181.407C255.441 188.584 252.122 204.641 249.616 218.17C249.042 221.273 247.529 226.861 249.307 229.909C251.312 233.345 257.059 233.673 260.429 234.234" fill="none" opacity="1" stroke="#000000" stroke-linecap="round" stroke-linejoin="round" stroke-width="4.66859"/>
<path d="M288.542 216.007C286.382 211.688 278.528 223.244 277.42 225.275C274.569 230.503 275.228 235.966 274.331 241.649C273.544 246.634 271.81 252.848 274.022 257.713C279.141 268.975 292.684 270.076 303.37 272.542C308.466 273.718 313.262 275.845 318.508 276.249C321.814 276.503 324.438 273.777 327.467 273.777" fill="none" opacity="1" stroke="#000000" stroke-linecap="round" stroke-linejoin="round" stroke-width="4.66859"/>
<path d="M340.133 255.242C339.721 256.065 339.043 256.804 338.898 257.713C338.211 262.003 336.393 266.533 337.662 270.688C339.539 276.837 343.672 282.18 347.857 287.061C348.882 288.258 350.937 287.729 352.49 287.988C353.41 288.142 354.339 288.264 355.271 288.297C357.226 288.367 359.185 288.345 361.141 288.297C372.593 288.018 391.625 284.999 400.066 276.558" fill="none" opacity="1" stroke="#000000" stroke-linecap="round" stroke-linejoin="round" stroke-width="4.66859"/>
<path d="M508.192 207.975C512.676 216.944 512.04 231.094 503.867 237.633C498.607 241.84 491.511 243.006 486.258 247.209" fill="none" opacity="1" stroke="#000000" stroke-linecap="round" stroke-linejoin="round" stroke-width="4.66859"/>
<path d="M400.993 262.965C400.89 263.48 400.617 263.989 400.684 264.51C401.136 268.036 400.157 272.372 402.537 275.013C408.179 281.274 415.872 285.433 423.236 289.533C425.134 290.59 427.555 290.011 429.723 290.151C430.751 290.217 431.788 290.251 432.813 290.151C442.67 289.189 448.626 287.506 456.6 281.81" fill="none" opacity="1" stroke="#000000" stroke-linecap="round" stroke-linejoin="round" stroke-width="4.66859"/>
<path d="M474.209 236.397C474.415 236.5 474.739 236.493 474.827 236.706C476.306 240.255 478.009 243.765 478.843 247.518C480.082 253.092 480.739 258.806 481.006 264.51C481.097 266.447 478.419 270.046 477.299 271.615C472.724 278.019 465.935 284.996 458.454 287.988" fill="none" opacity="1" stroke="#000000" stroke-linecap="round" stroke-linejoin="round" stroke-width="4.66859"/>
<path d="M260.429 236.397C265.171 237.345 268.436 236.814 273.095 235.779" fill="none" opacity="1" stroke="#000000" stroke-linecap="round" stroke-linejoin="round" stroke-width="4.66859"/>
<path d="M319.435 273.777C326.214 278.297 333.361 273.556 339.824 270.997C340.515 270.724 341.06 270.173 341.678 269.761" fill="none" opacity="1" stroke="#000000" stroke-linecap="round" stroke-linejoin="round" stroke-width="4.66859"/>
</g>
<g id="Layer-3" vectornator:layerName="Layer 3" visibility="hidden">
<path d="M317.367 138.461C317.367 138.461 322.244 105.35 351.76 102.658C382.389 99.8634 390.971 131.605 390.971 131.605" fill="none" opacity="1" stroke="#adb5bd" stroke-linecap="butt" stroke-linejoin="round" stroke-width="4.66859"/>
<path d="M390.52 130.281C390.52 130.281 434.988 130.128 457.982 151.815C471.233 164.313 464.908 182.383 464.908 182.383" fill="none" opacity="1" stroke="#adb5bd" stroke-linecap="butt" stroke-linejoin="round" stroke-width="4.66859"/>
<path d="M423.649 192.623C423.649 192.623 468.04 171.239 496.832 196.086C537.489 231.172 486.894 246.23 486.894 246.23" fill="none" opacity="1" stroke="#adb5bd" stroke-linecap="butt" stroke-linejoin="round" stroke-width="4.66859"/>
<path d="M471.801 227.979C471.801 227.979 513.436 261.458 456.862 285.736C407.583 306.883 384.807 262.259 384.807 262.259" fill="none" opacity="1" stroke="#adb5bd" stroke-linecap="butt" stroke-linejoin="round" stroke-width="4.66859"/>
<path d="M285.227 216.511C285.227 216.511 258.572 272.867 312.77 278.452C388.749 286.281 392.606 248.243 392.606 248.243" fill="none" opacity="1" stroke="#adb5bd" stroke-linecap="butt" stroke-linejoin="round" stroke-width="4.66859"/>
<path d="M290.05 175.895C290.05 175.895 248.164 177.672 253.114 219.938C254.305 230.104 273.549 236.82 280.657 226.919" fill="none" opacity="1" stroke="#adb5bd" stroke-linecap="butt" stroke-linejoin="round" stroke-width="4.66859"/>
<path d="M266.949 181.988C266.949 181.988 268.472 153.302 296.269 144.925C317.834 138.426 344.882 139.848 344.882 139.848" fill="none" opacity="1" stroke="#adb5bd" stroke-linecap="butt" stroke-linejoin="round" stroke-width="4.66859"/>
</g>
<clipPath id="ArtboardFrame">
<rect height="390" width="844" x="0" y="0"/>
</clipPath>
<g clip-path="url(#ArtboardFrame)" id="Layer-9-copy-copy-copy" vectornator:layerName="Layer 9 copy copy copy">
<path d="M336.083 427.445C336.794 426.023 333.846 470.853 333.722 471.724C333.161 475.651 333.104 479.806 333.104 483.772C333.104 494.433 331.25 504.795 331.25 515.283" fill="none" opacity="1" stroke="#3977ee" stroke-linecap="round" stroke-linejoin="round" stroke-width="3.15338"/>
<path d="M330.632 531.039C329.435 533.434 330.54 536.395 330.632 539.071C330.704 541.14 330.941 543.176 330.941 545.25C330.941 557.616 331.25 569.709 331.25 582.012" fill="none" opacity="1" stroke="#3977ee" stroke-linecap="round" stroke-linejoin="round" stroke-width="3.15338"/>
<path d="M351.331 487.171C351.331 496.453 353.405 506.055 352.566 515.283C351.88 522.835 350.059 529.895 351.331 537.526C352.018 541.65 349.756 547.97 351.64 551.737" fill="none" opacity="1" stroke="#3977ee" stroke-linecap="round" stroke-linejoin="round" stroke-width="3.15338"/>
<path d="M370.952 458.506C370.952 465.254 370.492 487.257 371.102 493.967C371.425 497.514 372.165 501.527 371.72 505.089C370.24 516.93 370.484 529.222 370.484 541.234" fill="none" opacity="1" stroke="#3977ee" stroke-linecap="round" stroke-linejoin="round" stroke-width="3.15338"/>
<path d="M370.484 563.785C369.583 566.489 370.175 574.308 370.175 577.687C370.175 578.895 369.558 584.13 369.558 583.248" fill="none" opacity="1" stroke="#3977ee" stroke-linecap="round" stroke-linejoin="round" stroke-width="3.15338"/>
<path d="M352.257 570.891C351.103 574.353 352.566 578.133 352.566 581.704" fill="none" opacity="1" stroke="#3977ee" stroke-linecap="round" stroke-linejoin="round" stroke-width="3.15338"/>
<path d="M391.801 508.796C392.587 511.156 391.905 513.756 392.11 516.21C392.442 520.194 392.234 524.314 392.727 528.258C393.722 536.215 393.036 544.623 393.036 552.664C393.036 555.014 392.65 557.757 393.036 560.078C393.526 563.014 392.629 566.481 393.345 569.346C394.243 572.936 394.581 577.316 394.581 581.086" fill="none" opacity="1" stroke="#3977ee" stroke-linecap="round" stroke-linejoin="round" stroke-width="3.15338"/>
<path d="M413.635 438.795C411.815 442.437 413.426 482.882 413.426 486.862C413.426 498.339 413.426 509.872 413.426 521.153" fill="none" opacity="1" stroke="#3977ee" stroke-linecap="round" stroke-linejoin="round" stroke-width="3.15338"/>
<path d="M441.847 472.96C441.847 478.223 441.198 483.826 441.847 489.024C442.124 491.237 442.531 493.885 442.156 496.13C441.195 501.895 442.874 509.324 441.539 514.665C440.067 520.55 440.921 525.825 440.921 531.966C440.921 538.409 440.303 544.651 440.303 551.119" fill="none" opacity="1" stroke="#3977ee" stroke-linecap="round" stroke-linejoin="round" stroke-width="3.15338"/>
<path d="M417.442 547.103C417.442 550.158 417.866 552.735 418.369 555.753C419.523 562.678 417.751 570.367 417.751 577.378" fill="none" opacity="1" stroke="#3977ee" stroke-linecap="round" stroke-linejoin="round" stroke-width="3.15338"/>
<path d="M398.55 380.686C398.55 378.379 396.126 477.543 396.126 478.52C396.126 481.076 395.291 483.741 396.126 486.244" fill="none" opacity="1" stroke="#3977ee" stroke-linecap="round" stroke-linejoin="round" stroke-width="3.15338"/>
<path d="M444.628 574.598C443.255 577.343 444.628 581.712 444.628 584.793" fill="none" opacity="1" stroke="#3977ee" stroke-linecap="round" stroke-linejoin="round" stroke-width="3.15338"/>
<path d="M467.494 386.698C467.494 390.425 467.837 478.673 466.871 482.537C466.432 484.294 465.944 486.584 465.944 488.406" fill="none" opacity="1" stroke="#3977ee" stroke-linecap="round" stroke-linejoin="round" stroke-width="3.15338"/>
<path d="M466.253 510.958C466.253 516.192 467.798 521.282 467.798 526.714C467.798 534.669 467.128 542.464 468.416 550.193C468.89 553.038 468.029 556.06 468.724 558.843C470.138 564.498 468.142 571.995 469.342 577.996C469.542 578.995 469.17 579.814 469.651 580.777" fill="none" opacity="1" stroke="#3977ee" stroke-linecap="round" stroke-linejoin="round" stroke-width="3.15338"/>
<path d="M491.894 464.928C491.019 466.678 491.894 469.953 491.894 471.724C491.894 478.109 491.894 484.493 491.894 490.878C491.894 500.969 491.894 511.061 491.894 521.153C491.894 525.494 491.044 530.801 491.894 535.055C493.519 543.179 493.439 551.585 493.439 560.078" fill="none" opacity="1" stroke="#3977ee" stroke-linecap="round" stroke-linejoin="round" stroke-width="3.15338"/>
<path d="M494.675 575.834C494.564 575.057 494.449 574.022 493.748 573.671C493.278 573.436 493.365 574.696 493.439 575.216C493.577 576.183 493.492 577.559 494.366 577.996C495.017 578.322 494.778 576.555 494.675 575.834Z" fill="none" opacity="1" stroke="#3977ee" stroke-linecap="round" stroke-linejoin="round" stroke-width="3.15338"/>
<path d="M522.514 414.672C522.514 419.196 521.714 469.328 522.17 473.887C522.497 477.163 523.267 480.727 522.787 484.081C522.293 487.545 521.296 492.636 522.17 496.13C523.326 500.754 523.405 505.068 523.405 510.031" fill="none" opacity="1" stroke="#3977ee" stroke-linecap="round" stroke-linejoin="round" stroke-width="3.15338"/>
<path d="M524.641 538.453C524.309 538.287 523.652 537.526 524.023 537.526C524.869 537.526 524.58 540.561 524.641 540.925C525.255 544.609 525.259 548.261 525.259 552.046C525.259 561.809 525.877 571.42 525.877 581.086" fill="none" opacity="1" stroke="#3977ee" stroke-linecap="round" stroke-linejoin="round" stroke-width="3.15338"/>
<path d="M549.664 452.879C549.664 459.538 551.298 467.574 549.973 474.195C548.312 482.504 546.244 490.722 545.03 499.219C544.381 503.763 545.339 508.569 545.339 513.121C545.339 516.352 545.871 520.128 545.339 523.316C544.806 526.517 544.064 530.839 544.722 534.128C545.545 538.243 545.648 543.187 545.648 547.412" fill="none" opacity="1" stroke="#3977ee" stroke-linecap="round" stroke-linejoin="round" stroke-width="3.15338"/>
<path d="M544.722 568.419C544.722 574.983 544.104 581.36 544.104 587.882" fill="none" opacity="1" stroke="#3977ee" stroke-linecap="round" stroke-linejoin="round" stroke-width="3.15338"/>
<path d="M577.476 378.742C578.818 381.426 576.233 448.335 576.233 451.643C576.233 459.862 575.306 468.128 575.306 476.358C575.306 479.069 575.799 486.492 574.688 488.715" fill="none" opacity="1" stroke="#3977ee" stroke-linecap="round" stroke-linejoin="round" stroke-width="3.15338"/>
<path d="M574.688 503.235C574.158 503.765 573.262 516.541 572.834 518.682C572.377 520.966 571.365 523.171 570.981 525.478C570.615 527.674 571.417 530.093 570.981 532.275C569.874 537.807 570.363 543.856 570.363 549.575C570.363 557.271 568.958 565.688 570.054 573.362C570.383 575.665 570.672 577.824 570.672 580.159" fill="none" opacity="1" stroke="#3977ee" stroke-linecap="round" stroke-linejoin="round" stroke-width="3.15338"/>
<path d="M359.604 337.59C358.698 339.675 355.626 417.895 355.42 420.212C354.918 425.892 353.838 431.449 353.34 437.072" fill="#50d5ee" fill-rule="nonzero" opacity="1" stroke="#3977ee" stroke-linecap="round" stroke-linejoin="round" stroke-width="3.15338"/>
<path d="M375.559 359.445C376.334 362.703 373.187 420.371 373.539 423.579C374.297 430.504 372.779 438.801 372.16 445.791" fill="#50d5ee" fill-rule="nonzero" opacity="1" stroke="#3977ee" stroke-linecap="round" stroke-linejoin="round" stroke-width="3.15338"/>
<path d="M444.154 361.357C443.535 368.349 440.898 428.73 441.432 435.663C441.586 437.658 440.938 439.697 441.093 441.706C441.2 443.09 440.498 444.615 440.714 445.983C441.061 448.175 441.652 450.321 441.896 452.553C442.026 453.737 441.705 455.401 442.135 456.492" fill="#50d5ee" fill-rule="nonzero" opacity="1" stroke="#3977ee" stroke-linecap="round" stroke-linejoin="round" stroke-width="3.15338"/>
<path d="M553.625 325.252C552.272 328.365 550.163 400.296 549.859 403.726C548.992 413.516 549.107 423.284 548.25 432.972" fill="#50d5ee" fill-rule="nonzero" opacity="1" stroke="#3977ee" stroke-linecap="round" stroke-linejoin="round" stroke-width="3.15338"/>
<path d="M341.74 318.889C340.993 320.384 340.541 351.682 340.618 353.226C340.778 356.437 340.544 359.856 340.225 363.051C339.912 366.176 340.34 369.363 340.028 372.483C339.707 375.692 339.404 379.068 339.635 382.308C339.821 384.906 340.465 387.746 340.028 390.364C339.215 395.241 338.26 400.107 338.26 405.101" fill="#50d5ee" fill-rule="nonzero" opacity="1" stroke="#3977ee" stroke-linecap="round" stroke-linejoin="round" stroke-width="3.15338"/>
<path d="M399.336 284.195C398.764 285.34 398.366 356.128 398.191 357.352C397.846 359.773 396.185 362.182 397.405 364.623" fill="#50d5ee" fill-rule="nonzero" opacity="1" stroke="#3977ee" stroke-linecap="round" stroke-linejoin="round" stroke-width="3.15338"/>
<path d="M421.574 351.85C421.574 351.589 420.532 334.822 420.649 334.588C420.714 334.457 421.762 351.311 421.771 351.458C421.828 352.373 421.771 353.291 421.771 354.208C421.771 355.584 421.771 356.959 421.771 358.335C421.771 362.74 421.574 367.104 421.574 371.5C421.574 384.309 417.841 396.373 417.841 409.031" fill="#50d5ee" fill-rule="nonzero" opacity="1" stroke="#3977ee" stroke-linecap="round" stroke-linejoin="round" stroke-width="3.15338"/>
<path d="M528.09 269.631C527.144 271.524 524.838 345.283 524.735 347.331C524.46 352.848 523.36 358.341 523.36 363.837" fill="#50d5ee" fill-rule="nonzero" opacity="1" stroke="#3977ee" stroke-linecap="round" stroke-linejoin="round" stroke-width="3.15338"/>
<path d="M471.647 278.323C471.647 280.157 471.092 351.785 471.092 353.619" fill="#50d5ee" fill-rule="nonzero" opacity="1" stroke="#3977ee" stroke-linecap="round" stroke-linejoin="round" stroke-width="3.15338"/>
<path d="M580.381 248.538C581.159 250.093 577.648 319.932 578.379 321.393" fill="#50d5ee" fill-rule="nonzero" opacity="1" stroke="#3977ee" stroke-linecap="round" stroke-linejoin="round" stroke-width="3.15338"/>
<path d="M554.166 261.838C555.531 264.567 554.584 269.464 554.166 272.39C553.717 275.532 554.351 278.912 554.351 282.017C554.351 287.701 553.981 293.226 553.981 298.864" fill="none" opacity="1" stroke="#3977ee" stroke-linecap="round" stroke-linejoin="round" stroke-width="3.15338"/>
<path d="M448.457 284.609C448.457 289.822 449.671 295.937 448.642 301.086C447.141 308.592 447.502 316.626 446.235 324.227C445.963 325.857 446.917 327.482 446.605 329.04C445.439 334.87 445.495 341.125 445.495 347.183" fill="none" opacity="1" stroke="#3977ee" stroke-linecap="round" stroke-linejoin="round" stroke-width="3.15338"/>
<path d="M377.922 285.535C377.922 289.399 379.63 294.253 378.662 298.124C377.581 302.449 378.604 307.117 377.737 311.453C376.082 319.728 376.256 327.888 376.256 336.446" fill="none" opacity="1" stroke="#3977ee" stroke-linecap="round" stroke-linejoin="round" stroke-width="3.15338"/>
<path d="M360.705 285.905C360.705 289.432 360.393 293.535 360.89 297.013C361.196 299.156 361.439 302.046 361.075 304.233C360.334 308.679 359.779 312.566 359.779 317.192" fill="none" opacity="1" stroke="#3977ee" stroke-linecap="round" stroke-linejoin="round" stroke-width="3.15338"/>
<path d="M343.488 282.388C344.164 284.418 343.932 287.321 344.043 289.423C344.214 292.667 344.969 295.657 344.969 298.864" fill="none" opacity="1" stroke="#3977ee" stroke-linecap="round" stroke-linejoin="round" stroke-width="3.15338"/>
<path d="M496.961 278.685C497.876 280.515 497.178 284.265 496.776 286.275C496.378 288.263 496.776 290.729 496.776 292.755C496.776 295.245 496.405 297.553 496.405 299.975" fill="none" opacity="1" stroke="#3977ee" stroke-linecap="round" stroke-linejoin="round" stroke-width="3.15338"/>
</g>
<g id="Layer-4" vectornator:layerName="Layer 4">
<path d="M319.178 216.055C316.983 218.3 287.374 232.571 318.667 268.03C344.569 297.381 482.239 276.535 482.239 276.535C482.239 276.535 641.302 263.767 583.693 186.153C537.807 124.333 521.672 157.097 521.672 157.097C521.672 157.097 581.917 55.1062 426.127 76.1367C340.703 87.6685 286.152 190.795 350.035 199.881C405.523 207.774 345.641 188.993 319.178 216.055Z" fill="#d6d8da" fill-rule="nonzero" opacity="1" stroke="#93999e" stroke-linecap="butt" stroke-linejoin="round" stroke-width="3.97941"/>
</g>
<g id="Layer-5" vectornator:layerName="Layer 5">
<path d="M404.793 188.547C418.128 219.95 386.726 245.33 363.496 241.889" fill="none" opacity="1" stroke="#93999e" stroke-linecap="butt" stroke-linejoin="round" stroke-width="4.66859"/>
<path d="M446.834 122.441C440.338 134.733 429.068 134.38 421.327 136.96" fill="none" opacity="1" stroke="#93999e" stroke-linecap="round" stroke-linejoin="round" stroke-width="4.66859"/>
<path d="M461.046 117.538C469.679 124.994 469.679 132.843 490.085 128.526" fill="none" opacity="1" stroke="#93999e" stroke-linecap="round" stroke-linejoin="round" stroke-width="4.66859"/>
</g>
<g id="Layer-6" vectornator:layerName="Layer 6">
<path d="M453.988 170.224C453.988 152.515 461.748 138.159 471.321 138.159C480.893 138.159 488.653 152.515 488.653 170.224C488.653 187.932 480.893 202.288 471.321 202.288C461.748 202.288 453.988 187.932 453.988 170.224Z" fill="#ffffff" fill-rule="nonzero" opacity="1" stroke="#727476" stroke-linecap="butt" stroke-linejoin="round" stroke-width="4.66859"/>
<path d="M432.612 170.613C432.612 153.008 440.372 138.737 449.944 138.737C459.517 138.737 467.276 153.008 467.276 170.613C467.276 188.217 459.517 202.489 449.944 202.489C440.372 202.489 432.612 188.217 432.612 170.613Z" fill="#ffffff" fill-rule="nonzero" opacity="1" stroke="#727476" stroke-linecap="butt" stroke-linejoin="round" stroke-width="4.66859"/>
<path d="M454.599 185.15C455.875 180.324 458.231 176.761 459.863 177.192C461.494 177.623 461.782 181.885 460.507 186.711C459.231 191.537 456.875 195.099 455.244 194.668C453.612 194.237 453.324 189.976 454.599 185.15Z" fill="#000000" fill-rule="nonzero" opacity="1" stroke="#000000" stroke-linecap="butt" stroke-linejoin="round" stroke-width="4.66859"/>
<path d="M474.818 187.73C476.487 183.026 479.129 179.669 480.719 180.233C482.309 180.798 482.245 185.068 480.576 189.773C478.908 194.477 476.266 197.834 474.675 197.269C473.085 196.705 473.149 192.434 474.818 187.73Z" fill="#000000" fill-rule="nonzero" opacity="1" stroke="#000000" stroke-linecap="butt" stroke-linejoin="round" stroke-width="4.66859"/>
<path d="M452.676 239.051C451.227 230.356 461.682 226.317 469.582 226.975C485.038 228.263 481.174 238.085 481.174 238.085" fill="none" opacity="1" stroke="#727476" stroke-linecap="round" stroke-linejoin="round" stroke-width="4.66859"/>
</g>
<g clip-path="url(#ArtboardFrame)" id="Layer-7" vectornator:layerName="Layer 7">
<path d="M407.639 429.365C408.011 428.456 408.011 428.456 408.382 427.547C411.022 434.813 418.558 457.96 412.615 466.714C408.765 472.387 401.31 465.807 402.136 457.22C403.429 443.767 403.721 440.969 407.639 429.365Z" fill="#50d5ee" fill-rule="nonzero" opacity="1" stroke="#50d5ee" stroke-linecap="round" stroke-linejoin="round" stroke-width="3.15338"/>
<path d="M482.736 401.697C483.093 400.902 483.093 400.902 483.449 400.107C485.98 406.462 493.207 426.709 487.508 434.366C483.815 439.328 476.667 433.573 477.459 426.062C478.699 414.295 478.979 411.847 482.736 401.697Z" fill="#50d5ee" fill-rule="nonzero" opacity="1" stroke="#50d5ee" stroke-linecap="round" stroke-linejoin="round" stroke-width="3.15338"/>
<path d="M490.677 388.669C490.421 387.676 490.421 387.676 490.164 386.684C488.339 394.62 483.131 419.899 487.238 429.46C489.9 435.655 495.052 428.469 494.481 419.091C493.587 404.399 493.386 401.342 490.677 388.669Z" fill="#50d5ee" fill-rule="nonzero" opacity="1" stroke="#50d5ee" stroke-linecap="round" stroke-linejoin="round" stroke-width="3.15338"/>
<path d="M471.496 428.889C471.012 427.934 471.012 427.934 470.528 426.98C467.088 434.61 457.267 458.917 465.012 468.11C470.03 474.066 479.745 467.157 478.669 458.14C476.983 444.013 476.603 441.074 471.496 428.889Z" fill="#50d5ee" fill-rule="nonzero" opacity="1" stroke="#50d5ee" stroke-linecap="round" stroke-linejoin="round" stroke-width="3.15338"/>
<path d="M452.982 401.463C453.297 400.567 453.297 400.567 453.611 399.672C455.844 406.833 462.218 429.645 457.191 438.273C453.934 443.863 447.629 437.379 448.327 428.916C449.421 415.658 449.668 412.899 452.982 401.463Z" fill="#50d5ee" fill-rule="nonzero" opacity="1" stroke="#50d5ee" stroke-linecap="round" stroke-linejoin="round" stroke-width="3.15338"/>
<path d="M439.605 442.127C439.984 441.406 439.984 441.406 440.363 440.685C443.055 446.45 450.739 464.811 444.679 471.756C440.753 476.255 433.151 471.036 433.993 464.224C435.312 453.553 435.61 451.333 439.605 442.127Z" fill="#50d5ee" fill-rule="nonzero" opacity="1" stroke="#50d5ee" stroke-linecap="round" stroke-linejoin="round" stroke-width="3.15338"/>
<path d="M421.979 430.235C422.223 429.245 422.223 429.245 422.467 428.256C424.2 436.167 429.146 461.369 425.245 470.901C422.718 477.077 417.825 469.913 418.367 460.564C419.216 445.917 419.407 442.869 421.979 430.235Z" fill="#50d5ee" fill-rule="nonzero" opacity="1" stroke="#50d5ee" stroke-linecap="round" stroke-linejoin="round" stroke-width="3.15338"/>
<path d="M490.548 329.1C490.834 328.359 490.834 328.359 491.119 327.619C492.517 333.746 496.395 353.233 492.092 360.283C489.305 364.851 484.717 359.118 485.654 352.021C487.122 340.902 487.442 338.589 490.548 329.1Z" fill="#50d5ee" fill-rule="nonzero" opacity="1" stroke="#50d5ee" stroke-linecap="round" stroke-linejoin="round" stroke-width="3.15338"/>
<path d="M380.918 452.529C381.267 452.081 381.267 452.081 381.616 451.633C384.093 455.212 391.167 466.614 385.589 470.926C381.974 473.72 374.977 470.479 375.752 466.25C376.966 459.623 377.24 458.244 380.918 452.529Z" fill="#50d5ee" fill-rule="nonzero" opacity="1" stroke="#50d5ee" stroke-linecap="round" stroke-linejoin="round" stroke-width="3.15338"/>
<path d="M424.888 273.367C424.888 273.367 415.144 297.491 416.965 307.605C418.899 318.344 423.376 315.275 425.179 306.568C428.621 289.95 424.888 273.367 424.888 273.367Z" fill="#50d5ee" fill-rule="nonzero" opacity="1" stroke="#50d5ee" stroke-linecap="round" stroke-linejoin="round" stroke-width="2.19166"/>
<g opacity="1">
<path d="M442.625 196.094C442.608 196.079 442.577 196.108 442.562 196.125C442.548 196.142 442.576 196.142 442.594 196.156C444.184 197.372 445.591 199.044 447.438 199.875C450.624 201.308 453.108 199.836 455.562 197.875C456.252 197.324 456.954 196.766 457.594 196.156C453.775 199.661 446.399 199.6 442.625 196.094Z" fill="#50d5ee" stroke="none"/>
</g>
<g opacity="1">
<path d="M464.531 196.531C466.378 198.178 468.385 199.811 470.938 200.062C472.756 200.242 474.551 199.563 476.344 199.344C476.366 199.341 476.378 199.335 476.375 199.312C476.372 199.29 476.366 199.247 476.344 199.25C475.673 199.338 474.98 199.424 474.312 199.312C473.257 199.136 472.235 198.727 471.188 198.5C468.892 198.004 466.406 198.107 464.531 196.531Z" fill="#50d5ee" stroke="none"/>
</g>
</g>
</svg>
