<?xml version="1.0" encoding="UTF-8" standalone="no"?>
<!DOCTYPE svg PUBLIC "-//W3C//DTD SVG 1.1//EN" "http://www.w3.org/Graphics/SVG/1.1/DTD/svg11.dtd">
<!-- Created with Vectornator (http://vectornator.io/) -->
<svg height="100%" stroke-miterlimit="10" style="fill-rule:nonzero;clip-rule:evenodd;stroke-linecap:round;stroke-linejoin:round;" version="1.1" viewBox="0 0 844 390" width="100%" xml:space="preserve" xmlns="http://www.w3.org/2000/svg" xmlns:vectornator="http://vectornator.io" xmlns:xlink="http://www.w3.org/1999/xlink">
<defs/>
<g id="Layer-2" vectornator:layerName="Layer 2"/>
<clipPath id="ArtboardFrame">
<rect height="390" width="844" x="0" y="0"/>
</clipPath>
<g clip-path="url(#ArtboardFrame)" id="Layer-9-copy-copy-copy-copy-copy" vectornator:layerName="Layer 9 copy copy copy copy copy">
<path d="M339.12 555.207C339.831 553.786 336.883 598.615 336.759 599.487C336.198 603.414 336.141 607.568 336.141 611.535C336.141 622.195 334.287 632.558 334.287 643.046" fill="none" opacity="1" stroke="#3977ee" stroke-linecap="round" stroke-linejoin="round" stroke-width="3.15338"/>
<path d="M333.669 658.801C332.472 661.196 333.577 664.158 333.669 666.834C333.741 668.903 333.978 670.938 333.978 673.012C333.978 685.379 334.287 697.472 334.287 709.775" fill="none" opacity="1" stroke="#3977ee" stroke-linecap="round" stroke-linejoin="round" stroke-width="3.15338"/>
<path d="M354.368 614.933C354.368 624.216 356.442 633.818 355.604 643.046C354.917 650.598 353.096 657.657 354.368 665.289C355.055 669.413 352.793 675.733 354.677 679.5" fill="none" opacity="1" stroke="#3977ee" stroke-linecap="round" stroke-linejoin="round" stroke-width="3.15338"/>
<path d="M373.989 586.269C373.989 593.017 373.529 615.019 374.139 621.73C374.462 625.277 375.202 629.29 374.757 632.851C373.277 644.692 373.522 656.984 373.522 668.996" fill="none" opacity="1" stroke="#3977ee" stroke-linecap="round" stroke-linejoin="round" stroke-width="3.15338"/>
<path d="M373.522 691.548C372.62 694.252 373.213 702.071 373.213 705.45C373.213 706.657 372.595 711.893 372.595 711.011" fill="none" opacity="1" stroke="#3977ee" stroke-linecap="round" stroke-linejoin="round" stroke-width="3.15338"/>
<path d="M355.295 698.653C354.141 702.115 355.604 705.895 355.604 709.466" fill="none" opacity="1" stroke="#3977ee" stroke-linecap="round" stroke-linejoin="round" stroke-width="3.15338"/>
<path d="M394.838 636.558C395.625 638.919 394.942 641.518 395.147 643.973C395.479 647.957 395.271 652.076 395.765 656.021C396.759 663.978 396.073 672.385 396.073 680.427C396.073 682.777 395.687 685.52 396.073 687.841C396.563 690.776 395.666 694.244 396.382 697.109C397.28 700.698 397.618 705.078 397.618 708.848" fill="none" opacity="1" stroke="#3977ee" stroke-linecap="round" stroke-linejoin="round" stroke-width="3.15338"/>
<path d="M416.673 566.558C414.852 570.199 416.463 610.644 416.463 614.624C416.463 626.101 416.463 637.634 416.463 648.916" fill="none" opacity="1" stroke="#3977ee" stroke-linecap="round" stroke-linejoin="round" stroke-width="3.15338"/>
<path d="M444.885 600.722C444.885 605.986 444.235 611.589 444.885 616.787C445.161 618.999 445.568 621.647 445.194 623.892C444.233 629.658 445.911 637.087 444.576 642.428C443.105 648.313 443.958 653.588 443.958 659.728C443.958 666.172 443.34 672.413 443.34 678.882" fill="none" opacity="1" stroke="#3977ee" stroke-linecap="round" stroke-linejoin="round" stroke-width="3.15338"/>
<path d="M420.479 674.866C420.479 677.92 420.903 680.498 421.406 683.516C422.56 690.44 420.788 698.13 420.788 705.141" fill="none" opacity="1" stroke="#3977ee" stroke-linecap="round" stroke-linejoin="round" stroke-width="3.15338"/>
<path d="M401.587 508.448C401.587 506.142 399.163 605.306 399.163 606.283C399.163 608.839 398.328 611.503 399.163 614.006" fill="none" opacity="1" stroke="#3977ee" stroke-linecap="round" stroke-linejoin="round" stroke-width="3.15338"/>
<path d="M447.665 702.361C446.293 705.105 447.665 709.474 447.665 712.555" fill="none" opacity="1" stroke="#3977ee" stroke-linecap="round" stroke-linejoin="round" stroke-width="3.15338"/>
<path d="M470.531 514.461C470.531 518.188 470.874 606.435 469.908 610.299C469.469 612.057 468.981 614.347 468.981 616.169" fill="none" opacity="1" stroke="#3977ee" stroke-linecap="round" stroke-linejoin="round" stroke-width="3.15338"/>
<path d="M469.29 638.721C469.29 643.954 470.835 649.045 470.835 654.476C470.835 662.432 470.165 670.227 471.453 677.955C471.927 680.8 471.066 683.823 471.762 686.605C473.175 692.26 471.179 699.757 472.379 705.759C472.579 706.757 472.207 707.576 472.688 708.539" fill="none" opacity="1" stroke="#3977ee" stroke-linecap="round" stroke-linejoin="round" stroke-width="3.15338"/>
<path d="M494.931 592.69C494.056 594.441 494.931 597.716 494.931 599.487C494.931 605.871 494.931 612.256 494.931 618.64C494.931 628.732 494.931 638.824 494.931 648.916C494.931 653.257 494.081 658.564 494.931 662.817C496.556 670.941 496.476 679.348 496.476 687.841" fill="none" opacity="1" stroke="#3977ee" stroke-linecap="round" stroke-linejoin="round" stroke-width="3.15338"/>
<path d="M497.712 703.596C497.601 702.82 497.487 701.785 496.785 701.434C496.315 701.199 496.402 702.459 496.476 702.979C496.614 703.946 496.529 705.322 497.403 705.759C498.054 706.085 497.815 704.317 497.712 703.596Z" fill="none" opacity="1" stroke="#3977ee" stroke-linecap="round" stroke-linejoin="round" stroke-width="3.15338"/>
<path d="M525.551 542.435C525.551 546.958 524.751 597.091 525.207 601.649C525.534 604.926 526.304 608.49 525.825 611.844C525.33 615.308 524.333 620.399 525.207 623.892C526.363 628.516 526.442 632.83 526.442 637.794" fill="none" opacity="1" stroke="#3977ee" stroke-linecap="round" stroke-linejoin="round" stroke-width="3.15338"/>
<path d="M527.678 666.216C527.346 666.05 526.689 665.289 527.06 665.289C527.906 665.289 527.618 668.323 527.678 668.687C528.292 672.372 528.296 676.023 528.296 679.809C528.296 689.572 528.914 699.182 528.914 708.848" fill="none" opacity="1" stroke="#3977ee" stroke-linecap="round" stroke-linejoin="round" stroke-width="3.15338"/>
<path d="M552.702 580.642C552.702 587.301 554.335 595.337 553.011 601.958C551.349 610.266 549.281 618.484 548.068 626.981C547.418 631.525 548.377 636.332 548.377 640.883C548.377 644.115 548.908 647.891 548.377 651.078C547.843 654.279 547.101 658.602 547.759 661.891C548.582 666.006 548.685 670.949 548.685 675.175" fill="none" opacity="1" stroke="#3977ee" stroke-linecap="round" stroke-linejoin="round" stroke-width="3.15338"/>
<path d="M547.759 696.182C547.759 702.746 547.141 709.122 547.141 715.645" fill="none" opacity="1" stroke="#3977ee" stroke-linecap="round" stroke-linejoin="round" stroke-width="3.15338"/>
<path d="M580.513 506.504C581.855 509.188 579.27 576.097 579.27 579.406C579.27 587.624 578.343 595.89 578.343 604.121C578.343 606.832 578.837 614.255 577.725 616.478" fill="none" opacity="1" stroke="#3977ee" stroke-linecap="round" stroke-linejoin="round" stroke-width="3.15338"/>
<path d="M577.725 630.998C577.195 631.528 576.299 644.304 575.871 646.444C575.415 648.728 574.402 650.933 574.018 653.241C573.652 655.437 574.454 657.856 574.018 660.037C572.911 665.569 573.4 671.618 573.4 677.337C573.4 685.034 571.995 693.451 573.091 701.125C573.42 703.428 573.709 705.587 573.709 707.921" fill="none" opacity="1" stroke="#3977ee" stroke-linecap="round" stroke-linejoin="round" stroke-width="3.15338"/>
<path d="M362.641 465.353C361.735 467.438 358.663 545.657 358.458 547.974C357.955 553.654 356.875 559.212 356.377 564.835" fill="#50d5ee" fill-rule="nonzero" opacity="1" stroke="#3977ee" stroke-linecap="round" stroke-linejoin="round" stroke-width="3.15338"/>
<path d="M378.596 487.207C379.371 490.466 376.224 548.134 376.576 551.341C377.334 558.267 375.816 566.563 375.197 573.554" fill="#50d5ee" fill-rule="nonzero" opacity="1" stroke="#3977ee" stroke-linecap="round" stroke-linejoin="round" stroke-width="3.15338"/>
<path d="M447.191 489.119C446.572 496.112 443.935 556.493 444.469 563.425C444.623 565.421 443.975 567.459 444.13 569.469C444.237 570.853 443.535 572.377 443.752 573.745C444.098 575.937 444.689 578.083 444.933 580.315C445.063 581.5 444.742 583.164 445.172 584.255" fill="#50d5ee" fill-rule="nonzero" opacity="1" stroke="#3977ee" stroke-linecap="round" stroke-linejoin="round" stroke-width="3.15338"/>
<path d="M556.662 453.014C555.309 456.128 553.2 528.058 552.896 531.489C552.03 541.278 552.144 551.047 551.287 560.734" fill="#50d5ee" fill-rule="nonzero" opacity="1" stroke="#3977ee" stroke-linecap="round" stroke-linejoin="round" stroke-width="3.15338"/>
<path d="M344.777 446.652C344.03 448.146 343.578 479.445 343.655 480.989C343.815 484.2 343.581 487.619 343.262 490.813C342.949 493.939 343.377 497.125 343.065 500.245C342.744 503.455 342.441 506.83 342.672 510.07C342.858 512.669 343.502 515.509 343.065 518.126C342.253 523.004 341.297 527.869 341.297 532.864" fill="#50d5ee" fill-rule="nonzero" opacity="1" stroke="#3977ee" stroke-linecap="round" stroke-linejoin="round" stroke-width="3.15338"/>
<path d="M403.163 390.231C402.591 391.375 401.403 483.891 401.229 485.115C400.883 487.536 399.222 489.944 400.443 492.385" fill="#50d5ee" fill-rule="nonzero" opacity="1" stroke="#3977ee" stroke-linecap="round" stroke-linejoin="round" stroke-width="3.15338"/>
<path d="M424.612 479.613C424.612 479.351 423.569 462.585 423.686 462.35C423.751 462.219 424.799 479.074 424.808 479.22C424.865 480.135 424.808 481.054 424.808 481.971C424.808 483.347 424.808 484.722 424.808 486.097C424.808 490.503 424.612 494.867 424.612 499.263C424.612 512.072 420.878 524.136 420.878 536.794" fill="#50d5ee" fill-rule="nonzero" opacity="1" stroke="#3977ee" stroke-linecap="round" stroke-linejoin="round" stroke-width="3.15338"/>
<path d="M531.128 397.394C530.181 399.287 527.875 473.046 527.772 475.094C527.497 480.61 526.397 486.103 526.397 491.599" fill="#50d5ee" fill-rule="nonzero" opacity="1" stroke="#3977ee" stroke-linecap="round" stroke-linejoin="round" stroke-width="3.15338"/>
<path d="M474.684 393.049C474.684 394.883 474.129 479.548 474.129 481.382" fill="#50d5ee" fill-rule="nonzero" opacity="1" stroke="#3977ee" stroke-linecap="round" stroke-linejoin="round" stroke-width="3.15338"/>
<path d="M583.813 362.475C584.591 364.029 580.685 447.695 581.416 449.156" fill="#50d5ee" fill-rule="nonzero" opacity="1" stroke="#3977ee" stroke-linecap="round" stroke-linejoin="round" stroke-width="3.15338"/>
<path d="M558.783 342.592C560.148 345.321 557.621 397.226 557.203 400.153C556.755 403.294 557.388 406.675 557.388 409.78C557.388 415.464 557.018 420.988 557.018 426.627" fill="none" opacity="1" stroke="#3977ee" stroke-linecap="round" stroke-linejoin="round" stroke-width="3.15338"/>
<path d="M452.284 370.103C452.284 375.316 452.709 423.7 451.679 428.848C450.178 436.354 450.539 444.389 449.272 451.99C449 453.62 449.954 455.245 449.642 456.803C448.477 462.632 448.532 468.888 448.532 474.946" fill="none" opacity="1" stroke="#3977ee" stroke-linecap="round" stroke-linejoin="round" stroke-width="3.15338"/>
<path d="M381.749 375.769C381.749 379.634 382.667 422.016 381.699 425.886C380.618 430.211 381.641 434.88 380.774 439.216C379.119 447.49 379.293 455.651 379.293 464.208" fill="none" opacity="1" stroke="#3977ee" stroke-linecap="round" stroke-linejoin="round" stroke-width="3.15338"/>
<path d="M364.532 347.302C364.532 350.829 363.43 421.297 363.927 424.775C364.233 426.919 364.477 429.809 364.112 431.996C363.371 436.441 362.816 440.328 362.816 444.955" fill="none" opacity="1" stroke="#3977ee" stroke-linecap="round" stroke-linejoin="round" stroke-width="3.15338"/>
<path d="M348.593 309.081C349.27 311.111 346.969 415.084 347.08 417.185C347.251 420.429 348.006 423.42 348.006 426.627" fill="none" opacity="1" stroke="#3977ee" stroke-linecap="round" stroke-linejoin="round" stroke-width="3.15338"/>
<path d="M501.183 342.452C502.098 344.282 500.215 412.028 499.813 414.038C499.415 416.026 499.813 418.492 499.813 420.517C499.813 423.007 499.443 425.315 499.443 427.738" fill="none" opacity="1" stroke="#3977ee" stroke-linecap="round" stroke-linejoin="round" stroke-width="3.15338"/>
<path d="M383.409 284.878C383.633 286.774 381.284 356.469 381.513 358.411" fill="none" opacity="1" stroke="#3977ee" stroke-linecap="round" stroke-linejoin="round" stroke-width="3.15338"/>
<path d="M405.253 285.111C404.671 286.727 404.643 368.187 404.469 369.544C404.278 371.037 403.937 372.367 404.12 373.913" fill="none" opacity="1" stroke="#3977ee" stroke-linecap="round" stroke-linejoin="round" stroke-width="3.15338"/>
<path d="M477.171 278.234C476.453 278.572 475.237 351.483 474.972 352.764C474.295 356.037 475.306 359.6 474.879 362.945C474.709 364.275 475.382 365.517 474.906 366.837" fill="none" opacity="1" stroke="#3977ee" stroke-linecap="round" stroke-linejoin="round" stroke-width="3.15338"/>
<path d="M539.054 265.423C540.119 267.044 536.609 342.486 536.518 344.401C536.279 349.443 536.39 354.849 535.75 359.855C535.547 361.443 535.287 363.256 535.477 364.864" fill="none" opacity="1" stroke="#3977ee" stroke-linecap="round" stroke-linejoin="round" stroke-width="3.15338"/>
<path d="M585.762 244.4C585.469 244.435 584.415 319.313 584.419 319.476C584.507 322.697 585.508 327.511 584.427 330.51" fill="none" opacity="1" stroke="#3977ee" stroke-linecap="round" stroke-linejoin="round" stroke-width="3.15338"/>
<path d="M433.465 282.296C434.744 284.855 433.767 292.133 433.767 295.583C433.767 306.817 435.015 320.143 432.861 330.915C432.466 332.89 433.163 335.037 433.163 336.955C433.163 342.29 433.163 347.625 433.163 352.96C433.163 354.269 433.163 355.578 433.163 356.886C433.163 357.105 433.163 359 433.163 359C432.269 359 433.408 355.166 433.465 354.772C433.737 352.864 433.465 351.155 433.465 349.337" fill="none" opacity="1" stroke="#3977ee" stroke-linecap="round" stroke-linejoin="round" stroke-width="3.15338"/>
<path d="M455.208 280.786C454.406 282.39 455.872 293.951 456.114 295.885C456.461 298.665 455.847 301.341 455.51 304.039C455.072 307.537 455.51 311.381 455.51 314.91C455.51 320.707 455.208 326.146 455.208 331.821" fill="none" opacity="1" stroke="#3977ee" stroke-linecap="round" stroke-linejoin="round" stroke-width="3.15338"/>
<path d="M502.619 275.652C502.619 279.418 503.223 283.028 503.223 286.825C503.223 293.865 502.619 300.794 502.619 307.662" fill="none" opacity="1" stroke="#3977ee" stroke-linecap="round" stroke-linejoin="round" stroke-width="3.15338"/>
<path d="M560.601 258.741C559.448 261.047 560.601 267.111 560.601 269.914C560.601 275.196 561.304 282.706 560.299 287.731C559.941 289.522 559.393 290.565 559.393 292.563" fill="none" opacity="1" stroke="#3977ee" stroke-linecap="round" stroke-linejoin="round" stroke-width="3.15338"/>
<path d="M348.606 281.994C348.606 283.632 348.523 282.609 349.21 285.013" fill="none" opacity="1" stroke="#3977ee" stroke-linecap="round" stroke-linejoin="round" stroke-width="3.15338"/>
<path d="M367.028 285.617C365.082 289.508 366.424 296.051 366.424 300.415C366.424 302.442 365.989 304.267 365.518 306.153C365.048 308.032 365.793 310.268 365.518 312.192C364.818 317.086 364.914 321.986 364.914 326.99" fill="none" opacity="1" stroke="#3977ee" stroke-linecap="round" stroke-linejoin="round" stroke-width="3.15338"/>
</g>
<g id="Layer-1" vectornator:layerName="Layer 1" visibility="hidden">
<path d="M316.037 139.392C316.037 125.215 326.097 115.568 336.426 108.19C340.924 104.978 344.909 102.489 350.637 102.012C354.072 101.725 357.8 103.123 361.141 103.865C365.98 104.941 371.753 104.87 375.969 107.881C384.471 113.954 391.107 128.423 391.107 138.775" fill="none" opacity="1" stroke="#000000" stroke-linecap="round" stroke-linejoin="round" stroke-width="4.66859"/>
<path d="M390.18 134.758C390.908 133.302 393.192 133.359 394.814 133.214C399.127 132.829 403.462 132.762 407.789 132.596C412.078 132.431 416.293 133.833 420.455 134.758C425.246 135.823 430.37 136.402 434.975 138.157C454.097 145.441 473.584 159.178 462.47 181.407" fill="none" opacity="1" stroke="#000000" stroke-linecap="round" stroke-linejoin="round" stroke-width="4.66859"/>
<path d="M422.618 194.073C419.871 194.073 424.831 191.438 425.089 191.293C426.093 190.728 427.131 190.225 428.179 189.748C429.397 189.194 430.636 188.684 431.886 188.204C439.681 185.205 447.023 183.83 455.365 183.57C466.611 183.218 479.451 184.448 489.038 190.984C495.893 195.658 500.939 202.882 507.883 207.048" fill="none" opacity="1" stroke="#000000" stroke-linecap="round" stroke-linejoin="round" stroke-width="4.66859"/>
<path d="M269.388 177.7C264.217 176.407 268.904 170.188 270.006 167.814C272.186 163.119 277.089 158.486 281.127 155.457C295.756 144.486 309.614 140.616 327.776 140.01C333.398 139.823 339.31 139.599 344.458 142.173" fill="none" opacity="1" stroke="#000000" stroke-linecap="round" stroke-linejoin="round" stroke-width="4.66859"/>
<path d="M289.777 178.936C286.829 173.038 272.924 179.171 268.77 181.407C255.441 188.584 252.122 204.641 249.616 218.17C249.042 221.273 247.529 226.861 249.307 229.909C251.312 233.345 257.059 233.673 260.429 234.234" fill="none" opacity="1" stroke="#000000" stroke-linecap="round" stroke-linejoin="round" stroke-width="4.66859"/>
<path d="M288.542 216.007C286.382 211.688 278.528 223.244 277.42 225.275C274.569 230.503 275.228 235.966 274.331 241.649C273.544 246.634 271.81 252.848 274.022 257.713C279.141 268.975 292.684 270.076 303.37 272.542C308.466 273.718 313.262 275.845 318.508 276.249C321.814 276.503 324.438 273.777 327.467 273.777" fill="none" opacity="1" stroke="#000000" stroke-linecap="round" stroke-linejoin="round" stroke-width="4.66859"/>
<path d="M340.133 255.242C339.721 256.065 339.043 256.804 338.898 257.713C338.211 262.003 336.393 266.533 337.662 270.688C339.539 276.837 343.672 282.18 347.857 287.061C348.882 288.258 350.937 287.729 352.49 287.988C353.41 288.142 354.339 288.264 355.271 288.297C357.226 288.367 359.185 288.345 361.141 288.297C372.593 288.018 391.625 284.999 400.066 276.558" fill="none" opacity="1" stroke="#000000" stroke-linecap="round" stroke-linejoin="round" stroke-width="4.66859"/>
<path d="M508.192 207.975C512.676 216.944 512.04 231.094 503.867 237.633C498.607 241.84 491.511 243.006 486.258 247.209" fill="none" opacity="1" stroke="#000000" stroke-linecap="round" stroke-linejoin="round" stroke-width="4.66859"/>
<path d="M400.993 262.965C400.89 263.48 400.617 263.989 400.684 264.51C401.136 268.036 400.157 272.372 402.537 275.013C408.179 281.274 415.872 285.433 423.236 289.533C425.134 290.59 427.555 290.011 429.723 290.151C430.751 290.217 431.788 290.251 432.813 290.151C442.67 289.189 448.626 287.506 456.6 281.81" fill="none" opacity="1" stroke="#000000" stroke-linecap="round" stroke-linejoin="round" stroke-width="4.66859"/>
<path d="M474.209 236.397C474.415 236.5 474.739 236.493 474.827 236.706C476.306 240.255 478.009 243.765 478.843 247.518C480.082 253.092 480.739 258.806 481.006 264.51C481.097 266.447 478.419 270.046 477.299 271.615C472.724 278.019 465.935 284.996 458.454 287.988" fill="none" opacity="1" stroke="#000000" stroke-linecap="round" stroke-linejoin="round" stroke-width="4.66859"/>
<path d="M260.429 236.397C265.171 237.345 268.436 236.814 273.095 235.779" fill="none" opacity="1" stroke="#000000" stroke-linecap="round" stroke-linejoin="round" stroke-width="4.66859"/>
<path d="M319.435 273.777C326.214 278.297 333.361 273.556 339.824 270.997C340.515 270.724 341.06 270.173 341.678 269.761" fill="none" opacity="1" stroke="#000000" stroke-linecap="round" stroke-linejoin="round" stroke-width="4.66859"/>
</g>
<g id="Layer-3" vectornator:layerName="Layer 3" visibility="hidden">
<path d="M317.367 138.461C317.367 138.461 322.244 105.35 351.76 102.658C382.389 99.8634 390.971 131.605 390.971 131.605" fill="none" opacity="1" stroke="#adb5bd" stroke-linecap="butt" stroke-linejoin="round" stroke-width="4.66859"/>
<path d="M390.52 130.281C390.52 130.281 434.988 130.128 457.982 151.815C471.233 164.313 464.908 182.383 464.908 182.383" fill="none" opacity="1" stroke="#adb5bd" stroke-linecap="butt" stroke-linejoin="round" stroke-width="4.66859"/>
<path d="M423.649 192.623C423.649 192.623 468.04 171.239 496.832 196.086C537.489 231.172 486.894 246.23 486.894 246.23" fill="none" opacity="1" stroke="#adb5bd" stroke-linecap="butt" stroke-linejoin="round" stroke-width="4.66859"/>
<path d="M471.801 227.979C471.801 227.979 513.436 261.458 456.862 285.736C407.583 306.883 384.807 262.259 384.807 262.259" fill="none" opacity="1" stroke="#adb5bd" stroke-linecap="butt" stroke-linejoin="round" stroke-width="4.66859"/>
<path d="M285.227 216.511C285.227 216.511 258.572 272.867 312.77 278.452C388.749 286.281 392.606 248.243 392.606 248.243" fill="none" opacity="1" stroke="#adb5bd" stroke-linecap="butt" stroke-linejoin="round" stroke-width="4.66859"/>
<path d="M290.05 175.895C290.05 175.895 248.164 177.672 253.114 219.938C254.305 230.104 273.549 236.82 280.657 226.919" fill="none" opacity="1" stroke="#adb5bd" stroke-linecap="butt" stroke-linejoin="round" stroke-width="4.66859"/>
<path d="M266.949 181.988C266.949 181.988 268.472 153.302 296.269 144.925C317.834 138.426 344.882 139.848 344.882 139.848" fill="none" opacity="1" stroke="#adb5bd" stroke-linecap="butt" stroke-linejoin="round" stroke-width="4.66859"/>
</g>
<g id="Layer-4" vectornator:layerName="Layer 4">
<path d="M319.178 216.055C316.983 218.3 287.374 232.571 318.667 268.03C344.569 297.381 482.239 276.535 482.239 276.535C482.239 276.535 641.302 263.767 583.693 186.153C537.807 124.333 521.672 157.097 521.672 157.097C521.672 157.097 581.917 55.1062 426.127 76.1367C340.703 87.6685 286.152 190.795 350.035 199.881C405.523 207.774 345.641 188.993 319.178 216.055Z" fill="#d6d8da" fill-rule="nonzero" opacity="1" stroke="#93999e" stroke-linecap="butt" stroke-linejoin="round" stroke-width="3.97941"/>
</g>
<g id="Layer-5" vectornator:layerName="Layer 5">
<path d="M404.793 188.547C418.128 219.95 386.726 245.33 363.496 241.889" fill="none" opacity="1" stroke="#93999e" stroke-linecap="butt" stroke-linejoin="round" stroke-width="4.66859"/>
<path d="M446.834 122.441C440.338 134.733 429.068 134.38 421.327 136.96" fill="none" opacity="1" stroke="#93999e" stroke-linecap="round" stroke-linejoin="round" stroke-width="4.66859"/>
<path d="M461.046 117.538C469.679 124.994 469.679 132.843 490.085 128.526" fill="none" opacity="1" stroke="#93999e" stroke-linecap="round" stroke-linejoin="round" stroke-width="4.66859"/>
</g>
<g id="Layer-6" vectornator:layerName="Layer 6">
<path d="M453.988 170.224C453.988 152.515 461.748 138.159 471.321 138.159C480.893 138.159 488.653 152.515 488.653 170.224C488.653 187.932 480.893 202.288 471.321 202.288C461.748 202.288 453.988 187.932 453.988 170.224Z" fill="#ffffff" fill-rule="nonzero" opacity="1" stroke="#727476" stroke-linecap="butt" stroke-linejoin="round" stroke-width="4.66859"/>
<path d="M432.612 170.613C432.612 153.008 440.372 138.737 449.944 138.737C459.517 138.737 467.276 153.008 467.276 170.613C467.276 188.217 459.517 202.489 449.944 202.489C440.372 202.489 432.612 188.217 432.612 170.613Z" fill="#ffffff" fill-rule="nonzero" opacity="1" stroke="#727476" stroke-linecap="butt" stroke-linejoin="round" stroke-width="4.66859"/>
<path d="M454.599 185.15C455.875 180.324 458.231 176.761 459.863 177.192C461.494 177.623 461.782 181.885 460.507 186.711C459.231 191.537 456.875 195.099 455.244 194.668C453.612 194.237 453.324 189.976 454.599 185.15Z" fill="#000000" fill-rule="nonzero" opacity="1" stroke="#000000" stroke-linecap="butt" stroke-linejoin="round" stroke-width="4.66859"/>
<g opacity="1">
<path d="M460.688 191.594C459.914 193.442 458.793 195.15 457.156 196.344C455.712 197.397 453.994 197.997 452.375 198.719C451.571 199.077 450.577 199.363 449.844 199.594C449.609 199.668 449.261 199.892 449 199.844C446.04 199.3 444.044 197.403 442.031 195.375C441.589 194.929 441.138 194.499 440.719 194.031C440.622 193.972 440.496 193.997 440.438 194.094C440.379 194.191 440.403 194.316 440.5 194.375C441.507 194.626 441.972 195.522 442.344 196.438C443.044 198.162 442.929 199.986 443.281 201.781C443.505 202.922 443.783 203.765 444.406 204.75C444.921 205.563 445.824 206.295 446.656 206.75C449.938 208.544 454.357 207.433 456.625 204.5C458.472 202.112 458.547 199.337 459.125 196.5C459.472 194.798 460.104 193.22 460.688 191.594Z" fill="#50d5ee" stroke="none"/>
</g>
<path d="M474.818 187.73C476.487 183.026 479.129 179.669 480.719 180.233C482.309 180.798 482.245 185.068 480.576 189.773C478.908 194.477 476.266 197.834 474.675 197.269C473.085 196.705 473.149 192.434 474.818 187.73Z" fill="#000000" fill-rule="nonzero" opacity="1" stroke="#000000" stroke-linecap="butt" stroke-linejoin="round" stroke-width="4.66859"/>
<path d="M452.676 239.051C451.227 230.356 461.682 226.317 469.582 226.975C485.038 228.263 481.174 238.085 481.174 238.085" fill="none" opacity="1" stroke="#727476" stroke-linecap="round" stroke-linejoin="round" stroke-width="4.66859"/>
</g>
<g clip-path="url(#ArtboardFrame)" id="Layer-7" vectornator:layerName="Layer 7">
<path d="M482.736 401.697C483.093 400.902 483.093 400.902 483.449 400.107C485.98 406.462 493.207 426.709 487.508 434.366C483.815 439.328 476.667 433.573 477.459 426.062C478.699 414.295 478.979 411.847 482.736 401.697Z" fill="#50d5ee" fill-rule="nonzero" opacity="1" stroke="#50d5ee" stroke-linecap="round" stroke-linejoin="round" stroke-width="3.15338"/>
<path d="M471.496 428.889C471.012 427.934 471.012 427.934 470.528 426.98C467.088 434.61 457.267 458.917 465.012 468.11C470.03 474.066 479.745 467.157 478.669 458.14C476.983 444.013 476.603 441.074 471.496 428.889Z" fill="#50d5ee" fill-rule="nonzero" opacity="1" stroke="#50d5ee" stroke-linecap="round" stroke-linejoin="round" stroke-width="3.15338"/>
<path d="M439.605 442.127C439.984 441.406 439.984 441.406 440.363 440.685C443.055 446.45 450.739 464.811 444.679 471.756C440.753 476.255 433.151 471.036 433.993 464.224C435.312 453.553 435.61 451.333 439.605 442.127Z" fill="#50d5ee" fill-rule="nonzero" opacity="1" stroke="#50d5ee" stroke-linecap="round" stroke-linejoin="round" stroke-width="3.15338"/>
<path d="M380.918 452.529C381.267 452.081 381.267 452.081 381.616 451.633C384.093 455.212 391.167 466.614 385.589 470.926C381.974 473.72 374.977 470.479 375.752 466.25C376.966 459.623 377.24 458.244 380.918 452.529Z" fill="#50d5ee" fill-rule="nonzero" opacity="1" stroke="#50d5ee" stroke-linecap="round" stroke-linejoin="round" stroke-width="3.15338"/>
<path d="M413.249 374.479C413.249 374.479 407.021 396.082 409.945 404.363C413.049 413.157 416.875 409.983 417.517 402.41C418.743 387.959 413.249 374.479 413.249 374.479Z" fill="#50d5ee" fill-rule="nonzero" opacity="1" stroke="#50d5ee" stroke-linecap="round" stroke-linejoin="round" stroke-width="2.19166"/>
<path d="M484.09 199.726C481.703 196.189 492.957 211.178 491.135 215.946C489.201 221.009 485.037 219.533 483.444 215.409C480.403 207.539 487.915 205.393 484.09 199.726Z" fill="#50d5ee" fill-rule="nonzero" opacity="1" stroke="#50d5ee" stroke-linecap="round" stroke-linejoin="round" stroke-width="2.19166"/>
</g>
<g id="Layer-8" vectornator:layerName="Layer 8"/>
</svg>
