<?xml version="1.0" encoding="UTF-8" standalone="no"?>
<!DOCTYPE svg PUBLIC "-//W3C//DTD SVG 1.1//EN" "http://www.w3.org/Graphics/SVG/1.1/DTD/svg11.dtd">
<!-- Created with Vectornator (http://vectornator.io/) -->
<svg height="100%" stroke-miterlimit="10" style="fill-rule:nonzero;clip-rule:evenodd;stroke-linecap:round;stroke-linejoin:round;" version="1.1" viewBox="0 0 844 390" width="100%" xml:space="preserve" xmlns="http://www.w3.org/2000/svg" xmlns:vectornator="http://vectornator.io" xmlns:xlink="http://www.w3.org/1999/xlink">
<defs/>
<g id="Layer-2" vectornator:layerName="Layer 2"/>
<g id="Layer-1" vectornator:layerName="Layer 1" visibility="hidden">
<path d="M316.037 139.392C316.037 125.215 326.097 115.568 336.426 108.19C340.924 104.978 344.909 102.489 350.637 102.012C354.072 101.725 357.8 103.123 361.141 103.865C365.98 104.941 371.753 104.87 375.969 107.881C384.471 113.954 391.107 128.423 391.107 138.775" fill="none" opacity="1" stroke="#000000" stroke-linecap="round" stroke-linejoin="round" stroke-width="4.66859"/>
<path d="M390.18 134.758C390.908 133.302 393.192 133.359 394.814 133.214C399.127 132.829 403.462 132.762 407.789 132.596C412.078 132.431 416.293 133.833 420.455 134.758C425.246 135.823 430.37 136.402 434.975 138.157C454.097 145.441 473.584 159.178 462.47 181.407" fill="none" opacity="1" stroke="#000000" stroke-linecap="round" stroke-linejoin="round" stroke-width="4.66859"/>
<path d="M422.618 194.073C419.871 194.073 424.831 191.438 425.089 191.293C426.093 190.728 427.131 190.225 428.179 189.748C429.397 189.194 430.636 188.684 431.886 188.204C439.681 185.205 447.023 183.83 455.365 183.57C466.611 183.218 479.451 184.448 489.038 190.984C495.893 195.658 500.939 202.882 507.883 207.048" fill="none" opacity="1" stroke="#000000" stroke-linecap="round" stroke-linejoin="round" stroke-width="4.66859"/>
<path d="M269.388 177.7C264.217 176.407 268.904 170.188 270.006 167.814C272.186 163.119 277.089 158.486 281.127 155.457C295.756 144.486 309.614 140.616 327.776 140.01C333.398 139.823 339.31 139.599 344.458 142.173" fill="none" opacity="1" stroke="#000000" stroke-linecap="round" stroke-linejoin="round" stroke-width="4.66859"/>
<path d="M289.777 178.936C286.829 173.038 272.924 179.171 268.77 181.407C255.441 188.584 252.122 204.641 249.616 218.17C249.042 221.273 247.529 226.861 249.307 229.909C251.312 233.345 257.059 233.673 260.429 234.234" fill="none" opacity="1" stroke="#000000" stroke-linecap="round" stroke-linejoin="round" stroke-width="4.66859"/>
<path d="M288.542 216.007C286.382 211.688 278.528 223.244 277.42 225.275C274.569 230.503 275.228 235.966 274.331 241.649C273.544 246.634 271.81 252.848 274.022 257.713C279.141 268.975 292.684 270.076 303.37 272.542C308.466 273.718 313.262 275.845 318.508 276.249C321.814 276.503 324.438 273.777 327.467 273.777" fill="none" opacity="1" stroke="#000000" stroke-linecap="round" stroke-linejoin="round" stroke-width="4.66859"/>
<path d="M340.133 255.242C339.721 256.065 339.043 256.804 338.898 257.713C338.211 262.003 336.393 266.533 337.662 270.688C339.539 276.837 343.672 282.18 347.857 287.061C348.882 288.258 350.937 287.729 352.49 287.988C353.41 288.142 354.339 288.264 355.271 288.297C357.226 288.367 359.185 288.345 361.141 288.297C372.593 288.018 391.625 284.999 400.066 276.558" fill="none" opacity="1" stroke="#000000" stroke-linecap="round" stroke-linejoin="round" stroke-width="4.66859"/>
<path d="M508.192 207.975C512.676 216.944 512.04 231.094 503.867 237.633C498.607 241.84 491.511 243.006 486.258 247.209" fill="none" opacity="1" stroke="#000000" stroke-linecap="round" stroke-linejoin="round" stroke-width="4.66859"/>
<path d="M400.993 262.965C400.89 263.48 400.617 263.989 400.684 264.51C401.136 268.036 400.157 272.372 402.537 275.013C408.179 281.274 415.872 285.433 423.236 289.533C425.134 290.59 427.555 290.011 429.723 290.151C430.751 290.217 431.788 290.251 432.813 290.151C442.67 289.189 448.626 287.506 456.6 281.81" fill="none" opacity="1" stroke="#000000" stroke-linecap="round" stroke-linejoin="round" stroke-width="4.66859"/>
<path d="M474.209 236.397C474.415 236.5 474.739 236.493 474.827 236.706C476.306 240.255 478.009 243.765 478.843 247.518C480.082 253.092 480.739 258.806 481.006 264.51C481.097 266.447 478.419 270.046 477.299 271.615C472.724 278.019 465.935 284.996 458.454 287.988" fill="none" opacity="1" stroke="#000000" stroke-linecap="round" stroke-linejoin="round" stroke-width="4.66859"/>
<path d="M260.429 236.397C265.171 237.345 268.436 236.814 273.095 235.779" fill="none" opacity="1" stroke="#000000" stroke-linecap="round" stroke-linejoin="round" stroke-width="4.66859"/>
<path d="M319.435 273.777C326.214 278.297 333.361 273.556 339.824 270.997C340.515 270.724 341.06 270.173 341.678 269.761" fill="none" opacity="1" stroke="#000000" stroke-linecap="round" stroke-linejoin="round" stroke-width="4.66859"/>
</g>
<g id="Layer-3" vectornator:layerName="Layer 3" visibility="hidden">
<path d="M317.367 138.461C317.367 138.461 322.244 105.35 351.76 102.658C382.389 99.8634 390.971 131.605 390.971 131.605" fill="none" opacity="1" stroke="#adb5bd" stroke-linecap="butt" stroke-linejoin="round" stroke-width="4.66859"/>
<path d="M390.52 130.281C390.52 130.281 434.988 130.128 457.982 151.815C471.233 164.313 464.908 182.383 464.908 182.383" fill="none" opacity="1" stroke="#adb5bd" stroke-linecap="butt" stroke-linejoin="round" stroke-width="4.66859"/>
<path d="M423.649 192.623C423.649 192.623 468.04 171.239 496.832 196.086C537.489 231.172 486.894 246.23 486.894 246.23" fill="none" opacity="1" stroke="#adb5bd" stroke-linecap="butt" stroke-linejoin="round" stroke-width="4.66859"/>
<path d="M471.801 227.979C471.801 227.979 513.436 261.458 456.862 285.736C407.583 306.883 384.807 262.259 384.807 262.259" fill="none" opacity="1" stroke="#adb5bd" stroke-linecap="butt" stroke-linejoin="round" stroke-width="4.66859"/>
<path d="M285.227 216.511C285.227 216.511 258.572 272.867 312.77 278.452C388.749 286.281 392.606 248.243 392.606 248.243" fill="none" opacity="1" stroke="#adb5bd" stroke-linecap="butt" stroke-linejoin="round" stroke-width="4.66859"/>
<path d="M290.05 175.895C290.05 175.895 248.164 177.672 253.114 219.938C254.305 230.104 273.549 236.82 280.657 226.919" fill="none" opacity="1" stroke="#adb5bd" stroke-linecap="butt" stroke-linejoin="round" stroke-width="4.66859"/>
<path d="M266.949 181.988C266.949 181.988 268.472 153.302 296.269 144.925C317.834 138.426 344.882 139.848 344.882 139.848" fill="none" opacity="1" stroke="#adb5bd" stroke-linecap="butt" stroke-linejoin="round" stroke-width="4.66859"/>
</g>
<clipPath id="ArtboardFrame">
<rect height="390" width="844" x="0" y="0"/>
</clipPath>
<g clip-path="url(#ArtboardFrame)" id="Layer-9-copy-copy-copy-copy" vectornator:layerName="Layer 9 copy copy copy copy">
<path d="M335.688 488.28C336.399 486.858 333.451 531.688 333.327 532.559C332.765 536.486 332.709 540.641 332.709 544.607C332.709 555.268 330.855 565.631 330.855 576.118" fill="none" opacity="1" stroke="#3977ee" stroke-linecap="round" stroke-linejoin="round" stroke-width="3.15338"/>
<path d="M330.237 591.874C329.04 594.269 330.145 597.23 330.237 599.906C330.309 601.975 330.546 604.011 330.546 606.085C330.546 618.451 330.855 630.544 330.855 642.848" fill="none" opacity="1" stroke="#3977ee" stroke-linecap="round" stroke-linejoin="round" stroke-width="3.15338"/>
<path d="M350.936 548.006C350.936 557.289 353.01 566.89 352.171 576.118C351.485 583.67 349.664 590.73 350.936 598.361C351.623 602.486 349.361 608.805 351.245 612.572" fill="none" opacity="1" stroke="#3977ee" stroke-linecap="round" stroke-linejoin="round" stroke-width="3.15338"/>
<path d="M370.557 519.341C370.557 526.089 370.097 548.092 370.707 554.802C371.03 558.349 371.77 562.363 371.325 565.924C369.845 577.765 370.089 590.057 370.089 602.069" fill="none" opacity="1" stroke="#3977ee" stroke-linecap="round" stroke-linejoin="round" stroke-width="3.15338"/>
<path d="M370.089 624.621C369.188 627.324 369.78 635.143 369.78 638.522C369.78 639.73 369.163 644.965 369.163 644.083" fill="none" opacity="1" stroke="#3977ee" stroke-linecap="round" stroke-linejoin="round" stroke-width="3.15338"/>
<path d="M351.862 631.726C350.708 635.188 352.171 638.968 352.171 642.539" fill="none" opacity="1" stroke="#3977ee" stroke-linecap="round" stroke-linejoin="round" stroke-width="3.15338"/>
<path d="M391.406 569.631C392.192 571.991 391.51 574.591 391.715 577.045C392.047 581.029 391.839 585.149 392.332 589.093C393.327 597.05 392.641 605.458 392.641 613.499C392.641 615.849 392.255 618.593 392.641 620.913C393.131 623.849 392.234 627.316 392.95 630.181C393.848 633.771 394.186 638.151 394.186 641.921" fill="none" opacity="1" stroke="#3977ee" stroke-linecap="round" stroke-linejoin="round" stroke-width="3.15338"/>
<path d="M413.24 499.63C411.42 503.272 413.031 543.717 413.031 547.697C413.031 559.174 413.031 570.707 413.031 581.988" fill="none" opacity="1" stroke="#3977ee" stroke-linecap="round" stroke-linejoin="round" stroke-width="3.15338"/>
<path d="M441.452 533.795C441.452 539.058 440.803 544.661 441.452 549.859C441.729 552.072 442.136 554.72 441.761 556.965C440.8 562.73 442.479 570.16 441.144 575.501C439.672 581.385 440.526 586.661 440.526 592.801C440.526 599.245 439.908 605.486 439.908 611.954" fill="none" opacity="1" stroke="#3977ee" stroke-linecap="round" stroke-linejoin="round" stroke-width="3.15338"/>
<path d="M417.047 607.938C417.047 610.993 417.471 613.57 417.974 616.588C419.128 623.513 417.356 631.202 417.356 638.214" fill="none" opacity="1" stroke="#3977ee" stroke-linecap="round" stroke-linejoin="round" stroke-width="3.15338"/>
<path d="M398.155 441.521C398.155 439.214 395.731 538.378 395.731 539.356C395.731 541.911 394.896 544.576 395.731 547.079" fill="none" opacity="1" stroke="#3977ee" stroke-linecap="round" stroke-linejoin="round" stroke-width="3.15338"/>
<path d="M444.233 635.433C442.86 638.178 444.233 642.547 444.233 645.628" fill="none" opacity="1" stroke="#3977ee" stroke-linecap="round" stroke-linejoin="round" stroke-width="3.15338"/>
<path d="M467.099 447.533C467.099 451.26 467.442 539.508 466.476 543.372C466.036 545.129 465.549 547.419 465.549 549.241" fill="none" opacity="1" stroke="#3977ee" stroke-linecap="round" stroke-linejoin="round" stroke-width="3.15338"/>
<path d="M465.858 571.793C465.858 577.027 467.403 582.118 467.403 587.549C467.403 595.504 466.733 603.3 468.021 611.028C468.495 613.873 467.634 616.895 468.329 619.678C469.743 625.333 467.747 632.83 468.947 638.831C469.147 639.83 468.775 640.649 469.256 641.612" fill="none" opacity="1" stroke="#3977ee" stroke-linecap="round" stroke-linejoin="round" stroke-width="3.15338"/>
<path d="M491.499 525.763C490.624 527.513 491.499 530.788 491.499 532.559C491.499 538.944 491.499 545.328 491.499 551.713C491.499 561.805 491.499 571.896 491.499 581.988C491.499 586.329 490.649 591.636 491.499 595.89C493.124 604.014 493.044 612.42 493.044 620.913" fill="none" opacity="1" stroke="#3977ee" stroke-linecap="round" stroke-linejoin="round" stroke-width="3.15338"/>
<path d="M494.28 636.669C494.169 635.893 494.054 634.857 493.353 634.506C492.883 634.272 492.97 635.531 493.044 636.051C493.182 637.018 493.097 638.395 493.971 638.831C494.622 639.157 494.383 637.39 494.28 636.669Z" fill="none" opacity="1" stroke="#3977ee" stroke-linecap="round" stroke-linejoin="round" stroke-width="3.15338"/>
<path d="M522.119 475.507C522.119 480.031 521.319 530.163 521.775 534.722C522.102 537.998 522.872 541.562 522.392 544.916C521.898 548.38 520.901 553.471 521.775 556.965C522.931 561.589 523.01 565.903 523.01 570.867" fill="none" opacity="1" stroke="#3977ee" stroke-linecap="round" stroke-linejoin="round" stroke-width="3.15338"/>
<path d="M524.246 599.288C523.914 599.122 523.257 598.361 523.628 598.361C524.474 598.361 524.185 601.396 524.246 601.76C524.86 605.444 524.864 609.096 524.864 612.881C524.864 622.644 525.482 632.255 525.482 641.921" fill="none" opacity="1" stroke="#3977ee" stroke-linecap="round" stroke-linejoin="round" stroke-width="3.15338"/>
<path d="M549.269 513.714C549.269 520.373 550.903 528.409 549.578 535.031C547.917 543.339 545.849 551.557 544.635 560.054C543.986 564.598 544.944 569.404 544.944 573.956C544.944 577.187 545.476 580.963 544.944 584.151C544.411 587.352 543.669 591.674 544.327 594.963C545.15 599.078 545.253 604.022 545.253 608.247" fill="none" opacity="1" stroke="#3977ee" stroke-linecap="round" stroke-linejoin="round" stroke-width="3.15338"/>
<path d="M544.327 629.255C544.327 635.818 543.709 642.195 543.709 648.717" fill="none" opacity="1" stroke="#3977ee" stroke-linecap="round" stroke-linejoin="round" stroke-width="3.15338"/>
<path d="M577.081 439.577C578.423 442.261 575.838 509.17 575.838 512.479C575.838 520.697 574.911 528.963 574.911 537.193C574.911 539.904 575.404 547.327 574.293 549.55" fill="none" opacity="1" stroke="#3977ee" stroke-linecap="round" stroke-linejoin="round" stroke-width="3.15338"/>
<path d="M574.293 564.07C573.763 564.6 572.867 577.376 572.439 579.517C571.982 581.801 570.97 584.006 570.586 586.313C570.22 588.509 571.022 590.928 570.586 593.11C569.479 598.642 569.968 604.691 569.968 610.41C569.968 618.106 568.563 626.523 569.659 634.197C569.988 636.5 570.277 638.659 570.277 640.994" fill="none" opacity="1" stroke="#3977ee" stroke-linecap="round" stroke-linejoin="round" stroke-width="3.15338"/>
<path d="M359.209 398.425C358.303 400.51 355.231 478.73 355.025 481.047C354.523 486.727 353.443 492.284 352.945 497.907" fill="#50d5ee" fill-rule="nonzero" opacity="1" stroke="#3977ee" stroke-linecap="round" stroke-linejoin="round" stroke-width="3.15338"/>
<path d="M375.164 420.28C375.939 423.538 372.792 481.207 373.144 484.414C373.902 491.339 372.384 499.636 371.765 506.626" fill="#50d5ee" fill-rule="nonzero" opacity="1" stroke="#3977ee" stroke-linecap="round" stroke-linejoin="round" stroke-width="3.15338"/>
<path d="M443.759 422.192C443.14 429.184 440.503 489.565 441.037 496.498C441.191 498.493 440.543 500.532 440.698 502.541C440.805 503.925 440.103 505.45 440.319 506.818C440.666 509.01 441.257 511.156 441.501 513.388C441.631 514.573 441.31 516.236 441.74 517.327" fill="#50d5ee" fill-rule="nonzero" opacity="1" stroke="#3977ee" stroke-linecap="round" stroke-linejoin="round" stroke-width="3.15338"/>
<path d="M553.23 386.087C551.877 389.2 549.768 461.131 549.464 464.562C548.597 474.351 548.712 484.119 547.855 493.807" fill="#50d5ee" fill-rule="nonzero" opacity="1" stroke="#3977ee" stroke-linecap="round" stroke-linejoin="round" stroke-width="3.15338"/>
<path d="M341.345 379.724C340.598 381.219 340.146 412.517 340.223 414.061C340.383 417.272 340.149 420.691 339.83 423.886C339.517 427.011 339.945 430.198 339.633 433.318C339.312 436.527 339.009 439.903 339.24 443.143C339.426 445.741 340.07 448.581 339.633 451.199C338.82 456.076 337.865 460.942 337.865 465.936" fill="#50d5ee" fill-rule="nonzero" opacity="1" stroke="#3977ee" stroke-linecap="round" stroke-linejoin="round" stroke-width="3.15338"/>
<path d="M399.731 323.303C399.159 324.448 397.971 416.963 397.796 418.187C397.451 420.608 395.79 423.017 397.01 425.458" fill="#50d5ee" fill-rule="nonzero" opacity="1" stroke="#3977ee" stroke-linecap="round" stroke-linejoin="round" stroke-width="3.15338"/>
<path d="M421.179 412.686C421.179 412.424 420.137 395.657 420.254 395.423C420.319 395.292 421.367 412.146 421.376 412.293C421.433 413.208 421.376 414.127 421.376 415.044C421.376 416.419 421.376 417.794 421.376 419.17C421.376 423.575 421.179 427.939 421.179 432.335C421.179 445.144 417.446 457.208 417.446 469.866" fill="#50d5ee" fill-rule="nonzero" opacity="1" stroke="#3977ee" stroke-linecap="round" stroke-linejoin="round" stroke-width="3.15338"/>
<path d="M527.695 330.467C526.749 332.36 524.443 406.118 524.34 408.166C524.064 413.683 522.965 419.176 522.965 424.672" fill="#50d5ee" fill-rule="nonzero" opacity="1" stroke="#3977ee" stroke-linecap="round" stroke-linejoin="round" stroke-width="3.15338"/>
<path d="M471.252 326.122C471.252 327.956 470.697 412.62 470.697 414.454" fill="#50d5ee" fill-rule="nonzero" opacity="1" stroke="#3977ee" stroke-linecap="round" stroke-linejoin="round" stroke-width="3.15338"/>
<path d="M580.381 295.547C581.159 297.102 577.253 380.767 577.984 382.229" fill="#50d5ee" fill-rule="nonzero" opacity="1" stroke="#3977ee" stroke-linecap="round" stroke-linejoin="round" stroke-width="3.15338"/>
<path d="M555.351 275.664C556.716 278.394 554.189 330.299 553.771 333.226C553.322 336.367 553.956 339.747 553.956 342.852C553.956 348.536 553.586 354.061 553.586 359.699" fill="none" opacity="1" stroke="#3977ee" stroke-linecap="round" stroke-linejoin="round" stroke-width="3.15338"/>
<path d="M448.852 303.176C448.852 308.388 449.276 356.772 448.247 361.921C446.746 369.427 447.107 377.462 445.84 385.062C445.568 386.692 446.522 388.317 446.21 389.876C445.044 395.705 445.099 401.96 445.099 408.018" fill="none" opacity="1" stroke="#3977ee" stroke-linecap="round" stroke-linejoin="round" stroke-width="3.15338"/>
<path d="M378.317 308.842C378.317 312.706 379.235 355.088 378.267 358.959C377.186 363.284 378.209 367.952 377.342 372.288C375.687 380.563 375.861 388.723 375.861 397.281" fill="none" opacity="1" stroke="#3977ee" stroke-linecap="round" stroke-linejoin="round" stroke-width="3.15338"/>
<path d="M361.1 280.375C361.1 283.902 359.998 354.37 360.495 357.848C360.801 359.991 361.044 362.881 360.68 365.068C359.939 369.514 359.384 373.401 359.384 378.027" fill="none" opacity="1" stroke="#3977ee" stroke-linecap="round" stroke-linejoin="round" stroke-width="3.15338"/>
<path d="M345.463 280.807C346.14 282.838 343.537 348.156 343.648 350.258C343.819 353.502 344.574 356.492 344.574 359.699" fill="none" opacity="1" stroke="#3977ee" stroke-linecap="round" stroke-linejoin="round" stroke-width="3.15338"/>
<path d="M497.751 275.525C498.666 277.354 496.783 345.1 496.381 347.11C495.983 349.098 496.381 351.564 496.381 353.59C496.381 356.08 496.01 358.388 496.01 360.81" fill="none" opacity="1" stroke="#3977ee" stroke-linecap="round" stroke-linejoin="round" stroke-width="3.15338"/>
<path d="M378.467 285.596C378.691 287.491 377.852 289.542 378.081 291.484" fill="none" opacity="1" stroke="#3977ee" stroke-linecap="round" stroke-linejoin="round" stroke-width="3.15338"/>
<path d="M400.311 287.339C399.729 288.955 399.485 296.766 400.105 298.399C400.553 299.58 401.21 301.259 401.037 302.616C400.846 304.11 400.505 305.439 400.688 306.985" fill="none" opacity="1" stroke="#3977ee" stroke-linecap="round" stroke-linejoin="round" stroke-width="3.15338"/>
<path d="M471.625 281.066C470.907 281.403 471.805 284.556 471.54 285.836C470.863 289.11 471.874 292.673 471.446 296.018C471.276 297.347 471.95 298.589 471.474 299.909" fill="none" opacity="1" stroke="#3977ee" stroke-linecap="round" stroke-linejoin="round" stroke-width="3.15338"/>
<path d="M533.508 270.066C534.573 271.687 533.177 275.559 533.086 277.473C532.847 282.516 532.958 287.921 532.318 292.927C532.114 294.516 531.854 296.328 532.045 297.937" fill="none" opacity="1" stroke="#3977ee" stroke-linecap="round" stroke-linejoin="round" stroke-width="3.15338"/>
<path d="M581.726 249.648C581.433 249.682 581.03 249.303 580.847 249.535C580.641 249.796 580.983 252.385 580.987 252.548C581.075 255.77 582.075 260.583 580.994 263.583" fill="none" opacity="1" stroke="#3977ee" stroke-linecap="round" stroke-linejoin="round" stroke-width="3.15338"/>
</g>
<g id="Layer-4" vectornator:layerName="Layer 4">
<path d="M319.178 216.055C316.983 218.3 287.374 232.571 318.667 268.03C344.569 297.381 482.239 276.535 482.239 276.535C482.239 276.535 641.302 263.767 583.693 186.153C537.807 124.333 521.672 157.097 521.672 157.097C521.672 157.097 581.917 55.1062 426.127 76.1367C340.703 87.6685 286.152 190.795 350.035 199.881C405.523 207.774 345.641 188.993 319.178 216.055Z" fill="#d6d8da" fill-rule="nonzero" opacity="1" stroke="#93999e" stroke-linecap="butt" stroke-linejoin="round" stroke-width="3.97941"/>
</g>
<g id="Layer-5" vectornator:layerName="Layer 5">
<path d="M404.793 188.547C418.128 219.95 386.726 245.33 363.496 241.889" fill="none" opacity="1" stroke="#93999e" stroke-linecap="butt" stroke-linejoin="round" stroke-width="4.66859"/>
<path d="M446.834 122.441C440.338 134.733 429.068 134.38 421.327 136.96" fill="none" opacity="1" stroke="#93999e" stroke-linecap="round" stroke-linejoin="round" stroke-width="4.66859"/>
<path d="M461.046 117.538C469.679 124.994 469.679 132.843 490.085 128.526" fill="none" opacity="1" stroke="#93999e" stroke-linecap="round" stroke-linejoin="round" stroke-width="4.66859"/>
</g>
<g id="Layer-6" vectornator:layerName="Layer 6">
<path d="M453.988 170.224C453.988 152.515 461.748 138.159 471.321 138.159C480.893 138.159 488.653 152.515 488.653 170.224C488.653 187.932 480.893 202.288 471.321 202.288C461.748 202.288 453.988 187.932 453.988 170.224Z" fill="#ffffff" fill-rule="nonzero" opacity="1" stroke="#727476" stroke-linecap="butt" stroke-linejoin="round" stroke-width="4.66859"/>
<path d="M432.612 170.613C432.612 153.008 440.372 138.737 449.944 138.737C459.517 138.737 467.276 153.008 467.276 170.613C467.276 188.217 459.517 202.489 449.944 202.489C440.372 202.489 432.612 188.217 432.612 170.613Z" fill="#ffffff" fill-rule="nonzero" opacity="1" stroke="#727476" stroke-linecap="butt" stroke-linejoin="round" stroke-width="4.66859"/>
<path d="M454.599 185.15C455.875 180.324 458.231 176.761 459.863 177.192C461.494 177.623 461.782 181.885 460.507 186.711C459.231 191.537 456.875 195.099 455.244 194.668C453.612 194.237 453.324 189.976 454.599 185.15Z" fill="#000000" fill-rule="nonzero" opacity="1" stroke="#000000" stroke-linecap="butt" stroke-linejoin="round" stroke-width="4.66859"/>
<path d="M474.818 187.73C476.487 183.026 479.129 179.669 480.719 180.233C482.309 180.798 482.245 185.068 480.576 189.773C478.908 194.477 476.266 197.834 474.675 197.269C473.085 196.705 473.149 192.434 474.818 187.73Z" fill="#000000" fill-rule="nonzero" opacity="1" stroke="#000000" stroke-linecap="butt" stroke-linejoin="round" stroke-width="4.66859"/>
<path d="M452.676 239.051C451.227 230.356 461.682 226.317 469.582 226.975C485.038 228.263 481.174 238.085 481.174 238.085" fill="none" opacity="1" stroke="#727476" stroke-linecap="round" stroke-linejoin="round" stroke-width="4.66859"/>
</g>
<g clip-path="url(#ArtboardFrame)" id="Layer-7" vectornator:layerName="Layer 7">
<path d="M482.736 401.697C483.093 400.902 483.093 400.902 483.449 400.107C485.98 406.462 493.207 426.709 487.508 434.366C483.815 439.328 476.667 433.573 477.459 426.062C478.699 414.295 478.979 411.847 482.736 401.697Z" fill="#50d5ee" fill-rule="nonzero" opacity="1" stroke="#50d5ee" stroke-linecap="round" stroke-linejoin="round" stroke-width="3.15338"/>
<path d="M471.496 428.889C471.012 427.934 471.012 427.934 470.528 426.98C467.088 434.61 457.267 458.917 465.012 468.11C470.03 474.066 479.745 467.157 478.669 458.14C476.983 444.013 476.603 441.074 471.496 428.889Z" fill="#50d5ee" fill-rule="nonzero" opacity="1" stroke="#50d5ee" stroke-linecap="round" stroke-linejoin="round" stroke-width="3.15338"/>
<path d="M439.605 442.127C439.984 441.406 439.984 441.406 440.363 440.685C443.055 446.45 450.739 464.811 444.679 471.756C440.753 476.255 433.151 471.036 433.993 464.224C435.312 453.553 435.61 451.333 439.605 442.127Z" fill="#50d5ee" fill-rule="nonzero" opacity="1" stroke="#50d5ee" stroke-linecap="round" stroke-linejoin="round" stroke-width="3.15338"/>
<path d="M380.918 452.529C381.267 452.081 381.267 452.081 381.616 451.633C384.093 455.212 391.167 466.614 385.589 470.926C381.974 473.72 374.977 470.479 375.752 466.25C376.966 459.623 377.24 458.244 380.918 452.529Z" fill="#50d5ee" fill-rule="nonzero" opacity="1" stroke="#50d5ee" stroke-linecap="round" stroke-linejoin="round" stroke-width="3.15338"/>
<path d="M420.046 304.352C420.046 304.352 413.818 325.955 416.741 334.236C419.845 343.029 423.671 339.855 424.313 332.283C425.539 317.832 420.046 304.352 420.046 304.352Z" fill="#50d5ee" fill-rule="nonzero" opacity="1" stroke="#50d5ee" stroke-linecap="round" stroke-linejoin="round" stroke-width="2.19166"/>
<g opacity="1">
<path d="M463.812 195.656C464.425 196.293 465.026 196.869 465.5 197.625C466.279 198.867 466.709 200.074 467.188 201.438C467.383 201.994 467.596 202.541 467.875 203.062C468.113 203.507 468.382 203.942 468.688 204.344C469.164 204.971 470.762 206.85 471.719 206.938C472.314 206.992 472.959 207.081 473.531 206.906C474.098 206.733 474.507 206.266 475 205.938C475.178 205.819 475.378 205.435 475.5 205.25C476.871 203.172 476.85 200.657 477.938 198.469C478.317 197.706 478.99 196.844 479.812 196.562C479.882 196.51 479.896 196.414 479.844 196.344C479.791 196.274 479.695 196.26 479.625 196.312C479.289 196.788 478.85 197.107 478.375 197.438C476.641 198.644 474.605 198.966 472.75 199.906C472.717 199.923 472.689 199.951 472.656 199.969C472.545 199.896 472.454 199.802 472.312 199.719C471.771 199.4 471.186 199.145 470.594 198.938C469.639 198.603 468.632 198.453 467.688 198.094C466.14 197.505 465.045 196.707 463.812 195.656Z" fill="#50d5ee" stroke="none"/>
</g>
<g opacity="1">
<path d="M442.625 195.594C444.734 199.004 448.377 201.149 452.406 199.719C454.387 199.016 455.905 197.441 457.781 196.531C457.804 196.516 457.796 196.491 457.781 196.469C457.766 196.446 457.741 196.423 457.719 196.438C456.428 197.556 454.482 197.769 452.875 197.938C449.367 198.305 444.862 199.004 442.625 195.594Z" fill="#50d5ee" stroke="none"/>
</g>
</g>
</svg>
