<?xml version="1.0" encoding="UTF-8" standalone="no"?>
<!DOCTYPE svg PUBLIC "-//W3C//DTD SVG 1.1//EN" "http://www.w3.org/Graphics/SVG/1.1/DTD/svg11.dtd">
<!-- Created with Vectornator (http://vectornator.io/) -->
<svg height="100%" stroke-miterlimit="10" style="fill-rule:nonzero;clip-rule:evenodd;stroke-linecap:round;stroke-linejoin:round;" version="1.1" viewBox="0 0 844 390" width="100%" xml:space="preserve" xmlns="http://www.w3.org/2000/svg" xmlns:vectornator="http://vectornator.io" xmlns:xlink="http://www.w3.org/1999/xlink">
<defs/>
<clipPath id="ArtboardFrame">
<rect height="390" width="844" x="0" y="0"/>
</clipPath>
<g clip-path="url(#ArtboardFrame)" id="Layer-8-copy" vectornator:layerName="Layer 8 copy" visibility="hidden">
<path d="M335.299 171.409L333.117 394.5" fill="none" opacity="1" stroke="#3977ee" stroke-linecap="butt" stroke-linejoin="round" stroke-width="3.15338"/>
<path d="M340.223-163.807L338.042 59.2842" fill="none" opacity="1" stroke="#3977ee" stroke-linecap="butt" stroke-linejoin="round" stroke-width="3.15338"/>
<path d="M395.448-165.214L393.266 57.8772" fill="none" opacity="1" stroke="#3977ee" stroke-linecap="butt" stroke-linejoin="round" stroke-width="3.15338"/>
<path d="M354.663 308.319L352.481 531.409" fill="none" opacity="1" stroke="#3977ee" stroke-linecap="butt" stroke-linejoin="round" stroke-width="3.15338"/>
<path d="M376.208 225.409L374.026 448.5" fill="none" opacity="1" stroke="#3977ee" stroke-linecap="butt" stroke-linejoin="round" stroke-width="3.15338"/>
<path d="M374.026 535.005L371.844 758.095" fill="none" opacity="1" stroke="#3977ee" stroke-linecap="butt" stroke-linejoin="round" stroke-width="3.15338"/>
<path d="M411.117 400.005L408.935 623.095" fill="none" opacity="1" stroke="#3977ee" stroke-linecap="butt" stroke-linejoin="round" stroke-width="3.15338"/>
<path d="M467.299 426.459L465.117 649.55" fill="none" opacity="1" stroke="#3977ee" stroke-linecap="butt" stroke-linejoin="round" stroke-width="3.15338"/>
<path d="M494.299 494.914L492.117 718.005" fill="none" opacity="1" stroke="#3977ee" stroke-linecap="butt" stroke-linejoin="round" stroke-width="3.15338"/>
<path d="M561.663 403.55L559.481 626.641" fill="none" opacity="1" stroke="#3977ee" stroke-linecap="butt" stroke-linejoin="round" stroke-width="3.15338"/>
<path d="M587.299 518.641L585.117 741.732" fill="none" opacity="1" stroke="#3977ee" stroke-linecap="butt" stroke-linejoin="round" stroke-width="3.15338"/>
<path d="M390.39 372.137L388.208 595.228" fill="none" opacity="1" stroke="#3977ee" stroke-linecap="butt" stroke-linejoin="round" stroke-width="3.15338"/>
<path d="M413.572 171.682L411.39 394.773" fill="none" opacity="1" stroke="#3977ee" stroke-linecap="butt" stroke-linejoin="round" stroke-width="3.15338"/>
<path d="M417.441-138.912L415.259 84.1793" fill="none" opacity="1" stroke="#3977ee" stroke-linecap="butt" stroke-linejoin="round" stroke-width="3.15338"/>
<path d="M471.258-29.1661L469.077 193.925" fill="none" opacity="1" stroke="#3977ee" stroke-linecap="butt" stroke-linejoin="round" stroke-width="3.15338"/>
<path d="M444.525-179.363L442.344 43.7282" fill="none" opacity="1" stroke="#3977ee" stroke-linecap="butt" stroke-linejoin="round" stroke-width="3.15338"/>
<path d="M566.23-177.252L564.049 45.8387" fill="none" opacity="1" stroke="#3977ee" stroke-linecap="butt" stroke-linejoin="round" stroke-width="3.15338"/>
<path d="M436.753 353.864L434.572 576.955" fill="none" opacity="1" stroke="#3977ee" stroke-linecap="butt" stroke-linejoin="round" stroke-width="3.15338"/>
<path d="M469.481 164.591L467.299 387.682" fill="none" opacity="1" stroke="#3977ee" stroke-linecap="butt" stroke-linejoin="round" stroke-width="3.15338"/>
<path d="M438.771 113.803L436.589 336.894" fill="none" opacity="1" stroke="#3977ee" stroke-linecap="butt" stroke-linejoin="round" stroke-width="3.15338"/>
<path d="M536.526 27.4409L534.344 250.532" fill="none" opacity="1" stroke="#3977ee" stroke-linecap="butt" stroke-linejoin="round" stroke-width="3.15338"/>
<path d="M502.168-53.5354L499.986 169.556" fill="none" opacity="1" stroke="#3977ee" stroke-linecap="butt" stroke-linejoin="round" stroke-width="3.15338"/>
<path d="M596.275-85.8784L594.094 137.212" fill="none" opacity="1" stroke="#3977ee" stroke-linecap="butt" stroke-linejoin="round" stroke-width="3.15338"/>
<path d="M392.046 79.3079L389.865 302.399" fill="none" opacity="1" stroke="#3977ee" stroke-linecap="butt" stroke-linejoin="round" stroke-width="3.15338"/>
<path d="M500.403 224.866L498.221 447.957" fill="none" opacity="1" stroke="#3977ee" stroke-linecap="butt" stroke-linejoin="round" stroke-width="3.15338"/>
<path d="M530.844 335.319L528.663 558.409" fill="none" opacity="1" stroke="#3977ee" stroke-linecap="butt" stroke-linejoin="round" stroke-width="3.15338"/>
<path d="M562.753 164.046L560.572 387.137" fill="none" opacity="1" stroke="#3977ee" stroke-linecap="butt" stroke-linejoin="round" stroke-width="3.15338"/>
<path d="M590.299 245.046L588.117 468.137" fill="none" opacity="1" stroke="#3977ee" stroke-linecap="butt" stroke-linejoin="round" stroke-width="3.15338"/>
<path d="M308.844 316.773L306.663 539.864" fill="none" opacity="1" stroke="#3977ee" stroke-linecap="butt" stroke-linejoin="round" stroke-width="3.15338"/>
<path d="M314.299 12.3599L312.117 235.451" fill="none" opacity="1" stroke="#3977ee" stroke-linecap="butt" stroke-linejoin="round" stroke-width="3.15338"/>
<path d="M356.299 80.8145L354.117 303.905" fill="none" opacity="1" stroke="#3977ee" stroke-linecap="butt" stroke-linejoin="round" stroke-width="3.15338"/>
<path d="M360.447-241.335L358.265-18.244" fill="none" opacity="1" stroke="#3977ee" stroke-linecap="butt" stroke-linejoin="round" stroke-width="3.15338"/>
<path d="M378.935-51.1855L376.753 171.905" fill="none" opacity="1" stroke="#3977ee" stroke-linecap="butt" stroke-linejoin="round" stroke-width="3.15338"/>
<path d="M333.935 409.228L331.753 632.319" fill="none" opacity="1" stroke="#3977ee" stroke-linecap="butt" stroke-linejoin="round" stroke-width="3.15338"/>
</g>
<g clip-path="url(#ArtboardFrame)" id="Layer-8-copy-copy" vectornator:layerName="Layer 8 copy copy" visibility="hidden">
<path d="M23.7956 185.876L21.6137 408.967" fill="none" opacity="1" stroke="#3977ee" stroke-linecap="butt" stroke-linejoin="round" stroke-width="3.15338"/>
<path d="M28.72-149.341L26.5382 73.7503" fill="none" opacity="1" stroke="#3977ee" stroke-linecap="butt" stroke-linejoin="round" stroke-width="3.15338"/>
<path d="M83.9445-150.748L81.7627 72.3433" fill="none" opacity="1" stroke="#3977ee" stroke-linecap="butt" stroke-linejoin="round" stroke-width="3.15338"/>
<path d="M43.1592 322.785L40.9774 545.876" fill="none" opacity="1" stroke="#3977ee" stroke-linecap="butt" stroke-linejoin="round" stroke-width="3.15338"/>
<path d="M64.7047 239.876L62.5228 462.967" fill="none" opacity="1" stroke="#3977ee" stroke-linecap="butt" stroke-linejoin="round" stroke-width="3.15338"/>
<path d="M62.5228 549.471L60.341 772.562" fill="none" opacity="1" stroke="#3977ee" stroke-linecap="butt" stroke-linejoin="round" stroke-width="3.15338"/>
<path d="M99.6137 414.471L97.4319 637.562" fill="none" opacity="1" stroke="#3977ee" stroke-linecap="butt" stroke-linejoin="round" stroke-width="3.15338"/>
<path d="M155.796 440.925L153.614 664.016" fill="none" opacity="1" stroke="#3977ee" stroke-linecap="butt" stroke-linejoin="round" stroke-width="3.15338"/>
<path d="M182.796 509.38L180.614 732.471" fill="none" opacity="1" stroke="#3977ee" stroke-linecap="butt" stroke-linejoin="round" stroke-width="3.15338"/>
<path d="M250.159 418.016L247.977 641.107" fill="none" opacity="1" stroke="#3977ee" stroke-linecap="butt" stroke-linejoin="round" stroke-width="3.15338"/>
<path d="M275.796 533.107L273.614 756.198" fill="none" opacity="1" stroke="#3977ee" stroke-linecap="butt" stroke-linejoin="round" stroke-width="3.15338"/>
<path d="M78.8865 386.603L76.7047 609.694" fill="none" opacity="1" stroke="#3977ee" stroke-linecap="butt" stroke-linejoin="round" stroke-width="3.15338"/>
<path d="M102.068 186.148L99.8865 409.239" fill="none" opacity="1" stroke="#3977ee" stroke-linecap="butt" stroke-linejoin="round" stroke-width="3.15338"/>
<path d="M105.938-124.446L103.756 98.6454" fill="none" opacity="1" stroke="#3977ee" stroke-linecap="butt" stroke-linejoin="round" stroke-width="3.15338"/>
<path d="M159.755-14.7L157.573 208.391" fill="none" opacity="1" stroke="#3977ee" stroke-linecap="butt" stroke-linejoin="round" stroke-width="3.15338"/>
<path d="M133.022-164.897L130.84 58.1943" fill="none" opacity="1" stroke="#3977ee" stroke-linecap="butt" stroke-linejoin="round" stroke-width="3.15338"/>
<path d="M254.727-162.786L252.545 60.3048" fill="none" opacity="1" stroke="#3977ee" stroke-linecap="butt" stroke-linejoin="round" stroke-width="3.15338"/>
<path d="M125.25 368.33L123.068 591.421" fill="none" opacity="1" stroke="#3977ee" stroke-linecap="butt" stroke-linejoin="round" stroke-width="3.15338"/>
<path d="M157.977 179.057L155.796 402.148" fill="none" opacity="1" stroke="#3977ee" stroke-linecap="butt" stroke-linejoin="round" stroke-width="3.15338"/>
<path d="M127.268 128.269L125.086 351.36" fill="none" opacity="1" stroke="#3977ee" stroke-linecap="butt" stroke-linejoin="round" stroke-width="3.15338"/>
<path d="M225.022 41.907L222.84 264.998" fill="none" opacity="1" stroke="#3977ee" stroke-linecap="butt" stroke-linejoin="round" stroke-width="3.15338"/>
<path d="M190.664-39.0693L188.483 184.022" fill="none" opacity="1" stroke="#3977ee" stroke-linecap="butt" stroke-linejoin="round" stroke-width="3.15338"/>
<path d="M284.772-71.4123L282.59 151.679" fill="none" opacity="1" stroke="#3977ee" stroke-linecap="butt" stroke-linejoin="round" stroke-width="3.15338"/>
<path d="M80.5432 93.774L78.3613 316.865" fill="none" opacity="1" stroke="#3977ee" stroke-linecap="butt" stroke-linejoin="round" stroke-width="3.15338"/>
<path d="M188.9 239.332L186.718 462.423" fill="none" opacity="1" stroke="#3977ee" stroke-linecap="butt" stroke-linejoin="round" stroke-width="3.15338"/>
<path d="M219.341 349.785L217.159 572.876" fill="none" opacity="1" stroke="#3977ee" stroke-linecap="butt" stroke-linejoin="round" stroke-width="3.15338"/>
<path d="M251.25 178.512L249.068 401.603" fill="none" opacity="1" stroke="#3977ee" stroke-linecap="butt" stroke-linejoin="round" stroke-width="3.15338"/>
<path d="M278.796 259.512L276.614 482.603" fill="none" opacity="1" stroke="#3977ee" stroke-linecap="butt" stroke-linejoin="round" stroke-width="3.15338"/>
<path d="M-2.65898 331.239L-4.8408 554.33" fill="none" opacity="1" stroke="#3977ee" stroke-linecap="butt" stroke-linejoin="round" stroke-width="3.15338"/>
<path d="M2.79556 26.826L0.613744 249.917" fill="none" opacity="1" stroke="#3977ee" stroke-linecap="butt" stroke-linejoin="round" stroke-width="3.15338"/>
<path d="M44.7956 95.2806L42.6137 318.371" fill="none" opacity="1" stroke="#3977ee" stroke-linecap="butt" stroke-linejoin="round" stroke-width="3.15338"/>
<path d="M48.9434-226.869L46.7616-3.77789" fill="none" opacity="1" stroke="#3977ee" stroke-linecap="butt" stroke-linejoin="round" stroke-width="3.15338"/>
<path d="M67.4319-36.7194L65.2501 186.371" fill="none" opacity="1" stroke="#3977ee" stroke-linecap="butt" stroke-linejoin="round" stroke-width="3.15338"/>
<path d="M22.4319 423.694L20.2501 646.785" fill="none" opacity="1" stroke="#3977ee" stroke-linecap="butt" stroke-linejoin="round" stroke-width="3.15338"/>
</g>
<g clip-path="url(#ArtboardFrame)" id="Layer-8-copy-copy-copy" vectornator:layerName="Layer 8 copy copy copy" visibility="hidden">
<path d="M642.945 188.769L640.763 411.86" fill="none" opacity="1" stroke="#3977ee" stroke-linecap="butt" stroke-linejoin="round" stroke-width="3.15338"/>
<path d="M647.869-146.447L645.687 76.6435" fill="none" opacity="1" stroke="#3977ee" stroke-linecap="butt" stroke-linejoin="round" stroke-width="3.15338"/>
<path d="M703.094-147.854L700.912 75.2365" fill="none" opacity="1" stroke="#3977ee" stroke-linecap="butt" stroke-linejoin="round" stroke-width="3.15338"/>
<path d="M662.308 325.678L660.126 548.769" fill="none" opacity="1" stroke="#3977ee" stroke-linecap="butt" stroke-linejoin="round" stroke-width="3.15338"/>
<path d="M683.854 242.769L681.672 465.86" fill="none" opacity="1" stroke="#3977ee" stroke-linecap="butt" stroke-linejoin="round" stroke-width="3.15338"/>
<path d="M681.672 552.364L679.49 775.455" fill="none" opacity="1" stroke="#3977ee" stroke-linecap="butt" stroke-linejoin="round" stroke-width="3.15338"/>
<path d="M718.763 417.364L716.581 640.455" fill="none" opacity="1" stroke="#3977ee" stroke-linecap="butt" stroke-linejoin="round" stroke-width="3.15338"/>
<path d="M774.945 443.818L772.763 666.909" fill="none" opacity="1" stroke="#3977ee" stroke-linecap="butt" stroke-linejoin="round" stroke-width="3.15338"/>
<path d="M801.945 512.273L799.763 735.364" fill="none" opacity="1" stroke="#3977ee" stroke-linecap="butt" stroke-linejoin="round" stroke-width="3.15338"/>
<path d="M869.308 420.909L867.126 644" fill="none" opacity="1" stroke="#3977ee" stroke-linecap="butt" stroke-linejoin="round" stroke-width="3.15338"/>
<path d="M894.945 536L892.763 759.091" fill="none" opacity="1" stroke="#3977ee" stroke-linecap="butt" stroke-linejoin="round" stroke-width="3.15338"/>
<path d="M698.035 389.496L695.854 612.587" fill="none" opacity="1" stroke="#3977ee" stroke-linecap="butt" stroke-linejoin="round" stroke-width="3.15338"/>
<path d="M721.217 189.042L719.035 412.132" fill="none" opacity="1" stroke="#3977ee" stroke-linecap="butt" stroke-linejoin="round" stroke-width="3.15338"/>
<path d="M725.087-121.552L722.905 101.539" fill="none" opacity="1" stroke="#3977ee" stroke-linecap="butt" stroke-linejoin="round" stroke-width="3.15338"/>
<path d="M778.904-11.8068L776.722 211.284" fill="none" opacity="1" stroke="#3977ee" stroke-linecap="butt" stroke-linejoin="round" stroke-width="3.15338"/>
<path d="M752.171-162.003L749.989 61.0875" fill="none" opacity="1" stroke="#3977ee" stroke-linecap="butt" stroke-linejoin="round" stroke-width="3.15338"/>
<path d="M873.876-159.893L871.694 63.198" fill="none" opacity="1" stroke="#3977ee" stroke-linecap="butt" stroke-linejoin="round" stroke-width="3.15338"/>
<path d="M744.399 371.223L742.217 594.314" fill="none" opacity="1" stroke="#3977ee" stroke-linecap="butt" stroke-linejoin="round" stroke-width="3.15338"/>
<path d="M777.126 181.951L774.945 405.042" fill="none" opacity="1" stroke="#3977ee" stroke-linecap="butt" stroke-linejoin="round" stroke-width="3.15338"/>
<path d="M746.417 131.163L744.235 354.253" fill="none" opacity="1" stroke="#3977ee" stroke-linecap="butt" stroke-linejoin="round" stroke-width="3.15338"/>
<path d="M844.171 44.8002L841.989 267.891" fill="none" opacity="1" stroke="#3977ee" stroke-linecap="butt" stroke-linejoin="round" stroke-width="3.15338"/>
<path d="M809.813-36.176L807.632 186.915" fill="none" opacity="1" stroke="#3977ee" stroke-linecap="butt" stroke-linejoin="round" stroke-width="3.15338"/>
<path d="M903.921-68.5191L901.739 154.572" fill="none" opacity="1" stroke="#3977ee" stroke-linecap="butt" stroke-linejoin="round" stroke-width="3.15338"/>
<path d="M699.692 96.6672L697.51 319.758" fill="none" opacity="1" stroke="#3977ee" stroke-linecap="butt" stroke-linejoin="round" stroke-width="3.15338"/>
<path d="M808.049 242.225L805.867 465.316" fill="none" opacity="1" stroke="#3977ee" stroke-linecap="butt" stroke-linejoin="round" stroke-width="3.15338"/>
<path d="M838.49 352.678L836.308 575.769" fill="none" opacity="1" stroke="#3977ee" stroke-linecap="butt" stroke-linejoin="round" stroke-width="3.15338"/>
<path d="M870.399 181.405L868.217 404.496" fill="none" opacity="1" stroke="#3977ee" stroke-linecap="butt" stroke-linejoin="round" stroke-width="3.15338"/>
<path d="M897.945 262.405L895.763 485.496" fill="none" opacity="1" stroke="#3977ee" stroke-linecap="butt" stroke-linejoin="round" stroke-width="3.15338"/>
<path d="M616.49 334.132L614.308 557.223" fill="none" opacity="1" stroke="#3977ee" stroke-linecap="butt" stroke-linejoin="round" stroke-width="3.15338"/>
<path d="M621.945 29.7192L619.763 252.81" fill="none" opacity="1" stroke="#3977ee" stroke-linecap="butt" stroke-linejoin="round" stroke-width="3.15338"/>
<path d="M663.945 98.1738L661.763 321.265" fill="none" opacity="1" stroke="#3977ee" stroke-linecap="butt" stroke-linejoin="round" stroke-width="3.15338"/>
<path d="M668.092-223.976L665.911-0.884673" fill="none" opacity="1" stroke="#3977ee" stroke-linecap="butt" stroke-linejoin="round" stroke-width="3.15338"/>
<path d="M686.581-33.8262L684.399 189.265" fill="none" opacity="1" stroke="#3977ee" stroke-linecap="butt" stroke-linejoin="round" stroke-width="3.15338"/>
<path d="M641.581 426.587L639.399 649.678" fill="none" opacity="1" stroke="#3977ee" stroke-linecap="butt" stroke-linejoin="round" stroke-width="3.15338"/>
</g>
<g id="Layer-2" vectornator:layerName="Layer 2"/>
<g clip-path="url(#ArtboardFrame)" id="Layer-9-copy" vectornator:layerName="Layer 9 copy">
<path d="M336.676 298.162C337.387 296.741 334.439 341.57 334.314 342.441C333.753 346.369 333.696 350.523 333.696 354.49C333.696 365.15 331.843 375.513 331.843 386.001" fill="none" opacity="1" stroke="#3977ee" stroke-linecap="round" stroke-linejoin="round" stroke-width="3.15338"/>
<path d="M331.225 401.756C330.028 404.151 331.133 407.113 331.225 409.788C331.296 411.858 331.534 413.893 331.534 415.967C331.534 428.333 331.843 440.427 331.843 452.73" fill="none" opacity="1" stroke="#3977ee" stroke-linecap="round" stroke-linejoin="round" stroke-width="3.15338"/>
<path d="M351.923 357.888C351.923 367.171 353.998 376.773 353.159 386.001C352.473 393.552 350.651 400.612 351.923 408.244C352.611 412.368 350.349 418.687 352.232 422.455" fill="none" opacity="1" stroke="#3977ee" stroke-linecap="round" stroke-linejoin="round" stroke-width="3.15338"/>
<path d="M371.545 329.223C371.545 335.971 371.085 357.974 371.695 364.684C372.017 368.232 372.758 372.245 372.313 375.806C370.833 387.647 371.077 399.939 371.077 411.951" fill="none" opacity="1" stroke="#3977ee" stroke-linecap="round" stroke-linejoin="round" stroke-width="3.15338"/>
<path d="M371.077 434.503C370.176 437.207 370.768 445.026 370.768 448.405C370.768 449.612 370.15 454.848 370.15 453.966" fill="none" opacity="1" stroke="#3977ee" stroke-linecap="round" stroke-linejoin="round" stroke-width="3.15338"/>
<path d="M352.85 441.608C351.696 445.07 353.159 448.85 353.159 452.421" fill="none" opacity="1" stroke="#3977ee" stroke-linecap="round" stroke-linejoin="round" stroke-width="3.15338"/>
<path d="M392.393 379.513C393.18 381.874 392.498 384.473 392.702 386.928C393.034 390.912 392.827 395.031 393.32 398.976C394.315 406.933 393.629 415.34 393.629 423.381C393.629 425.732 393.242 428.475 393.629 430.796C394.118 433.731 393.222 437.198 393.938 440.064C394.835 443.653 395.174 448.033 395.174 451.803" fill="none" opacity="1" stroke="#3977ee" stroke-linecap="round" stroke-linejoin="round" stroke-width="3.15338"/>
<path d="M415.211 313.443C413.39 317.084 414.019 353.599 414.019 357.579C414.019 369.056 414.019 380.589 414.019 391.87" fill="none" opacity="1" stroke="#3977ee" stroke-linecap="round" stroke-linejoin="round" stroke-width="3.15338"/>
<path d="M442.44 343.677C442.44 348.941 441.791 354.544 442.44 359.742C442.717 361.954 443.123 364.602 442.749 366.847C441.788 372.612 443.467 380.042 442.131 385.383C440.66 391.268 441.513 396.543 441.513 402.683C441.513 409.127 440.896 415.368 440.896 421.837" fill="none" opacity="1" stroke="#3977ee" stroke-linecap="round" stroke-linejoin="round" stroke-width="3.15338"/>
<path d="M418.035 417.821C418.035 420.875 418.458 423.453 418.961 426.471C420.116 433.395 418.344 441.085 418.344 448.096" fill="none" opacity="1" stroke="#3977ee" stroke-linecap="round" stroke-linejoin="round" stroke-width="3.15338"/>
<path d="M399.143 286.576C399.143 284.269 396.718 348.261 396.718 349.238C396.718 351.794 395.884 354.458 396.718 356.961" fill="none" opacity="1" stroke="#3977ee" stroke-linecap="round" stroke-linejoin="round" stroke-width="3.15338"/>
<path d="M445.221 445.316C443.848 448.06 445.221 452.429 445.221 455.51" fill="none" opacity="1" stroke="#3977ee" stroke-linecap="round" stroke-linejoin="round" stroke-width="3.15338"/>
<path d="M466.908 283.353C466.908 287.08 468.43 349.39 467.464 353.254C467.024 355.012 466.537 357.301 466.537 359.124" fill="none" opacity="1" stroke="#3977ee" stroke-linecap="round" stroke-linejoin="round" stroke-width="3.15338"/>
<path d="M466.846 381.676C466.846 386.909 468.39 392 468.39 397.431C468.39 405.386 467.72 413.182 469.008 420.91C469.483 423.755 468.622 426.778 469.317 429.56C470.731 435.215 468.735 442.712 469.935 448.714C470.135 449.712 469.763 450.531 470.244 451.494" fill="none" opacity="1" stroke="#3977ee" stroke-linecap="round" stroke-linejoin="round" stroke-width="3.15338"/>
<path d="M492.487 335.645C491.612 337.396 492.487 340.671 492.487 342.441C492.487 348.826 492.487 355.211 492.487 361.595C492.487 371.687 492.487 381.779 492.487 391.87C492.487 396.212 491.636 401.519 492.487 405.772C494.112 413.896 494.032 422.303 494.032 430.796" fill="none" opacity="1" stroke="#3977ee" stroke-linecap="round" stroke-linejoin="round" stroke-width="3.15338"/>
<path d="M495.267 446.551C495.157 445.775 495.042 444.739 494.341 444.389C493.871 444.154 493.958 445.414 494.032 445.933C494.17 446.9 494.085 448.277 494.959 448.714C495.61 449.039 495.37 447.272 495.267 446.551Z" fill="none" opacity="1" stroke="#3977ee" stroke-linecap="round" stroke-linejoin="round" stroke-width="3.15338"/>
<path d="M523.107 285.39C523.107 289.913 522.307 340.046 522.762 344.604C523.09 347.881 523.859 351.444 523.38 354.799C522.885 358.263 521.889 363.354 522.762 366.847C523.918 371.471 523.998 375.785 523.998 380.749" fill="none" opacity="1" stroke="#3977ee" stroke-linecap="round" stroke-linejoin="round" stroke-width="3.15338"/>
<path d="M525.234 409.171C524.902 409.005 524.245 408.244 524.616 408.244C525.462 408.244 525.173 411.278 525.234 411.642C525.848 415.327 525.852 418.978 525.852 422.764C525.852 432.527 526.47 442.137 526.47 451.803" fill="none" opacity="1" stroke="#3977ee" stroke-linecap="round" stroke-linejoin="round" stroke-width="3.15338"/>
<path d="M550.257 323.597C550.257 330.256 551.89 338.292 550.566 344.913C548.905 353.221 546.837 361.439 545.623 369.936C544.974 374.48 545.932 379.287 545.932 383.838C545.932 387.069 546.463 390.846 545.932 394.033C545.399 397.234 544.657 401.557 545.314 404.846C546.137 408.961 546.241 413.904 546.241 418.13" fill="none" opacity="1" stroke="#3977ee" stroke-linecap="round" stroke-linejoin="round" stroke-width="3.15338"/>
<path d="M545.314 439.137C545.314 445.701 544.696 452.077 544.696 458.6" fill="none" opacity="1" stroke="#3977ee" stroke-linecap="round" stroke-linejoin="round" stroke-width="3.15338"/>
<path d="M577.675 277.951C579.017 280.635 576.825 319.052 576.825 322.361C576.825 330.579 575.899 338.845 575.899 347.075C575.899 349.786 576.392 357.209 575.281 359.433" fill="none" opacity="1" stroke="#3977ee" stroke-linecap="round" stroke-linejoin="round" stroke-width="3.15338"/>
<path d="M575.281 373.952C574.751 374.483 573.855 387.259 573.427 389.399C572.97 391.683 571.958 393.888 571.573 396.195C571.207 398.392 572.01 400.811 571.573 402.992C570.467 408.524 570.956 414.573 570.956 420.292C570.956 427.989 569.55 436.405 570.647 444.08C570.976 446.383 571.265 448.541 571.265 450.876" fill="none" opacity="1" stroke="#3977ee" stroke-linecap="round" stroke-linejoin="round" stroke-width="3.15338"/>
<path d="M356.278 283.508C355.372 285.593 356.218 288.612 356.013 290.929C355.51 296.609 354.431 302.167 353.933 307.79" fill="#50d5ee" fill-rule="nonzero" opacity="1" stroke="#3977ee" stroke-linecap="round" stroke-linejoin="round" stroke-width="3.15338"/>
<path d="M375.169 284.788C375.944 288.046 373.78 291.089 374.131 294.296C374.89 301.222 373.372 309.518 372.753 316.509" fill="#50d5ee" fill-rule="nonzero" opacity="1" stroke="#3977ee" stroke-linecap="round" stroke-linejoin="round" stroke-width="3.15338"/>
<path d="M443.175 284.539C442.556 291.531 441.491 299.447 442.025 306.38C442.179 308.376 441.531 310.414 441.686 312.423C441.792 313.807 441.091 315.332 441.307 316.7C441.653 318.892 442.244 321.038 442.489 323.27C442.619 324.455 442.298 326.118 442.728 327.209" fill="#50d5ee" fill-rule="nonzero" opacity="1" stroke="#3977ee" stroke-linecap="round" stroke-linejoin="round" stroke-width="3.15338"/>
<path d="M551.467 262.975C550.114 266.088 550.755 271.013 550.452 274.444C549.585 284.233 549.7 294.002 548.842 303.689" fill="#50d5ee" fill-rule="nonzero" opacity="1" stroke="#3977ee" stroke-linecap="round" stroke-linejoin="round" stroke-width="3.15338"/>
</g>
<g id="Layer-1" vectornator:layerName="Layer 1" visibility="hidden">
<path d="M316.037 139.392C316.037 125.215 326.097 115.568 336.426 108.19C340.924 104.978 344.909 102.489 350.637 102.012C354.072 101.725 357.8 103.123 361.141 103.865C365.98 104.941 371.753 104.87 375.969 107.881C384.471 113.954 391.107 128.423 391.107 138.775" fill="none" opacity="1" stroke="#000000" stroke-linecap="round" stroke-linejoin="round" stroke-width="4.66859"/>
<path d="M390.18 134.758C390.908 133.302 393.192 133.359 394.814 133.214C399.127 132.829 403.462 132.762 407.789 132.596C412.078 132.431 416.293 133.833 420.455 134.758C425.246 135.823 430.37 136.402 434.975 138.157C454.097 145.441 473.584 159.178 462.47 181.407" fill="none" opacity="1" stroke="#000000" stroke-linecap="round" stroke-linejoin="round" stroke-width="4.66859"/>
<path d="M422.618 194.073C419.871 194.073 424.831 191.438 425.089 191.293C426.093 190.728 427.131 190.225 428.179 189.748C429.397 189.194 430.636 188.684 431.886 188.204C439.681 185.205 447.023 183.83 455.365 183.57C466.611 183.218 479.451 184.448 489.038 190.984C495.893 195.658 500.939 202.882 507.883 207.048" fill="none" opacity="1" stroke="#000000" stroke-linecap="round" stroke-linejoin="round" stroke-width="4.66859"/>
<path d="M269.388 177.7C264.217 176.407 268.904 170.188 270.006 167.814C272.186 163.119 277.089 158.486 281.127 155.457C295.756 144.486 309.614 140.616 327.776 140.01C333.398 139.823 339.31 139.599 344.458 142.173" fill="none" opacity="1" stroke="#000000" stroke-linecap="round" stroke-linejoin="round" stroke-width="4.66859"/>
<path d="M289.777 178.936C286.829 173.038 272.924 179.171 268.77 181.407C255.441 188.584 252.122 204.641 249.616 218.17C249.042 221.273 247.529 226.861 249.307 229.909C251.312 233.345 257.059 233.673 260.429 234.234" fill="none" opacity="1" stroke="#000000" stroke-linecap="round" stroke-linejoin="round" stroke-width="4.66859"/>
<path d="M288.542 216.007C286.382 211.688 278.528 223.244 277.42 225.275C274.569 230.503 275.228 235.966 274.331 241.649C273.544 246.634 271.81 252.848 274.022 257.713C279.141 268.975 292.684 270.076 303.37 272.542C308.466 273.718 313.262 275.845 318.508 276.249C321.814 276.503 324.438 273.777 327.467 273.777" fill="none" opacity="1" stroke="#000000" stroke-linecap="round" stroke-linejoin="round" stroke-width="4.66859"/>
<path d="M340.133 255.242C339.721 256.065 339.043 256.804 338.898 257.713C338.211 262.003 336.393 266.533 337.662 270.688C339.539 276.837 343.672 282.18 347.857 287.061C348.882 288.258 350.937 287.729 352.49 287.988C353.41 288.142 354.339 288.264 355.271 288.297C357.226 288.367 359.185 288.345 361.141 288.297C372.593 288.018 391.625 284.999 400.066 276.558" fill="none" opacity="1" stroke="#000000" stroke-linecap="round" stroke-linejoin="round" stroke-width="4.66859"/>
<path d="M508.192 207.975C512.676 216.944 512.04 231.094 503.867 237.633C498.607 241.84 491.511 243.006 486.258 247.209" fill="none" opacity="1" stroke="#000000" stroke-linecap="round" stroke-linejoin="round" stroke-width="4.66859"/>
<path d="M400.993 262.965C400.89 263.48 400.617 263.989 400.684 264.51C401.136 268.036 400.157 272.372 402.537 275.013C408.179 281.274 415.872 285.433 423.236 289.533C425.134 290.59 427.555 290.011 429.723 290.151C430.751 290.217 431.788 290.251 432.813 290.151C442.67 289.189 448.626 287.506 456.6 281.81" fill="none" opacity="1" stroke="#000000" stroke-linecap="round" stroke-linejoin="round" stroke-width="4.66859"/>
<path d="M474.209 236.397C474.415 236.5 474.739 236.493 474.827 236.706C476.306 240.255 478.009 243.765 478.843 247.518C480.082 253.092 480.739 258.806 481.006 264.51C481.097 266.447 478.419 270.046 477.299 271.615C472.724 278.019 465.935 284.996 458.454 287.988" fill="none" opacity="1" stroke="#000000" stroke-linecap="round" stroke-linejoin="round" stroke-width="4.66859"/>
<path d="M260.429 236.397C265.171 237.345 268.436 236.814 273.095 235.779" fill="none" opacity="1" stroke="#000000" stroke-linecap="round" stroke-linejoin="round" stroke-width="4.66859"/>
<path d="M319.435 273.777C326.214 278.297 333.361 273.556 339.824 270.997C340.515 270.724 341.06 270.173 341.678 269.761" fill="none" opacity="1" stroke="#000000" stroke-linecap="round" stroke-linejoin="round" stroke-width="4.66859"/>
</g>
<g id="Layer-3" vectornator:layerName="Layer 3" visibility="hidden">
<path d="M317.367 138.461C317.367 138.461 322.244 105.35 351.76 102.658C382.389 99.8634 390.971 131.605 390.971 131.605" fill="none" opacity="1" stroke="#adb5bd" stroke-linecap="butt" stroke-linejoin="round" stroke-width="4.66859"/>
<path d="M390.52 130.281C390.52 130.281 434.988 130.128 457.982 151.815C471.233 164.313 464.908 182.383 464.908 182.383" fill="none" opacity="1" stroke="#adb5bd" stroke-linecap="butt" stroke-linejoin="round" stroke-width="4.66859"/>
<path d="M423.649 192.623C423.649 192.623 468.04 171.239 496.832 196.086C537.489 231.172 486.894 246.23 486.894 246.23" fill="none" opacity="1" stroke="#adb5bd" stroke-linecap="butt" stroke-linejoin="round" stroke-width="4.66859"/>
<path d="M471.801 227.979C471.801 227.979 513.436 261.458 456.862 285.736C407.583 306.883 384.807 262.259 384.807 262.259" fill="none" opacity="1" stroke="#adb5bd" stroke-linecap="butt" stroke-linejoin="round" stroke-width="4.66859"/>
<path d="M285.227 216.511C285.227 216.511 258.572 272.867 312.77 278.452C388.749 286.281 392.606 248.243 392.606 248.243" fill="none" opacity="1" stroke="#adb5bd" stroke-linecap="butt" stroke-linejoin="round" stroke-width="4.66859"/>
<path d="M290.05 175.895C290.05 175.895 248.164 177.672 253.114 219.938C254.305 230.104 273.549 236.82 280.657 226.919" fill="none" opacity="1" stroke="#adb5bd" stroke-linecap="butt" stroke-linejoin="round" stroke-width="4.66859"/>
<path d="M266.949 181.988C266.949 181.988 268.472 153.302 296.269 144.925C317.834 138.426 344.882 139.848 344.882 139.848" fill="none" opacity="1" stroke="#adb5bd" stroke-linecap="butt" stroke-linejoin="round" stroke-width="4.66859"/>
</g>
<g id="Layer-4" vectornator:layerName="Layer 4">
<path d="M319.178 216.055C316.983 218.3 287.374 232.571 318.667 268.03C344.569 297.381 482.239 276.535 482.239 276.535C482.239 276.535 641.302 263.767 583.693 186.153C537.807 124.333 521.672 157.097 521.672 157.097C521.672 157.097 581.917 55.1062 426.127 76.1367C340.703 87.6685 286.152 190.795 350.035 199.881C405.523 207.774 345.641 188.993 319.178 216.055Z" fill="#d6d8da" fill-rule="nonzero" opacity="1" stroke="#93999e" stroke-linecap="butt" stroke-linejoin="round" stroke-width="3.97941"/>
</g>
<g id="Layer-5" vectornator:layerName="Layer 5">
<path d="M404.793 188.547C418.128 219.95 386.726 245.33 363.496 241.889" fill="none" opacity="1" stroke="#93999e" stroke-linecap="butt" stroke-linejoin="round" stroke-width="4.66859"/>
<path d="M446.834 122.441C440.338 134.733 429.068 134.38 421.327 136.96" fill="none" opacity="1" stroke="#93999e" stroke-linecap="round" stroke-linejoin="round" stroke-width="4.66859"/>
<path d="M461.046 117.538C469.679 124.994 469.679 132.843 490.085 128.526" fill="none" opacity="1" stroke="#93999e" stroke-linecap="round" stroke-linejoin="round" stroke-width="4.66859"/>
</g>
<g id="Layer-6" vectornator:layerName="Layer 6">
<path d="M453.988 170.224C453.988 152.515 461.748 138.159 471.321 138.159C480.893 138.159 488.653 152.515 488.653 170.224C488.653 187.932 480.893 202.288 471.321 202.288C461.748 202.288 453.988 187.932 453.988 170.224Z" fill="#ffffff" fill-rule="nonzero" opacity="1" stroke="#727476" stroke-linecap="butt" stroke-linejoin="round" stroke-width="4.66859"/>
<path d="M432.612 170.613C432.612 153.008 440.372 138.737 449.944 138.737C459.517 138.737 467.276 153.008 467.276 170.613C467.276 188.217 459.517 202.489 449.944 202.489C440.372 202.489 432.612 188.217 432.612 170.613Z" fill="#ffffff" fill-rule="nonzero" opacity="1" stroke="#727476" stroke-linecap="butt" stroke-linejoin="round" stroke-width="4.66859"/>
<path d="M454.599 185.15C455.875 180.324 458.231 176.761 459.863 177.192C461.494 177.623 461.782 181.885 460.507 186.711C459.231 191.537 456.875 195.099 455.244 194.668C453.612 194.237 453.324 189.976 454.599 185.15Z" fill="#000000" fill-rule="nonzero" opacity="1" stroke="#000000" stroke-linecap="butt" stroke-linejoin="round" stroke-width="4.66859"/>
<path d="M474.818 187.73C476.487 183.026 479.129 179.669 480.719 180.233C482.309 180.798 482.245 185.068 480.576 189.773C478.908 194.477 476.266 197.834 474.675 197.269C473.085 196.705 473.149 192.434 474.818 187.73Z" fill="#000000" fill-rule="nonzero" opacity="1" stroke="#000000" stroke-linecap="butt" stroke-linejoin="round" stroke-width="4.66859"/>
<path d="M452.676 239.051C451.227 230.356 461.682 226.317 469.582 226.975C485.038 228.263 481.174 238.085 481.174 238.085" fill="none" opacity="1" stroke="#727476" stroke-linecap="round" stroke-linejoin="round" stroke-width="4.66859"/>
</g>
<g clip-path="url(#ArtboardFrame)" id="Layer-7" vectornator:layerName="Layer 7">
<path d="M428.266 474.227C428.638 473.318 428.638 473.318 429.009 472.409C431.649 479.675 439.185 502.822 433.242 511.576C429.391 517.249 421.937 510.669 422.762 502.082C424.056 488.629 424.347 485.831 428.266 474.227Z" fill="#50d5ee" fill-rule="nonzero" opacity="1" stroke="#50d5ee" stroke-linecap="round" stroke-linejoin="round" stroke-width="3.15338"/>
<path d="M500.072 490.695C500.428 489.9 500.428 489.9 500.784 489.105C503.315 495.46 510.542 515.707 504.843 523.365C501.151 528.326 494.002 522.571 494.794 515.06C496.034 503.293 496.314 500.845 500.072 490.695Z" fill="#50d5ee" fill-rule="nonzero" opacity="1" stroke="#50d5ee" stroke-linecap="round" stroke-linejoin="round" stroke-width="3.15338"/>
<path d="M507.152 429.601C506.818 429.154 506.818 429.154 506.484 428.706C504.113 432.285 497.345 443.687 502.683 447.999C506.141 450.793 512.837 447.552 512.095 443.322C510.933 436.696 510.671 435.317 507.152 429.601Z" fill="#50d5ee" fill-rule="nonzero" opacity="1" stroke="#50d5ee" stroke-linecap="round" stroke-linejoin="round" stroke-width="3.15338"/>
<path d="M485.707 555.86C485.223 554.905 485.223 554.905 484.739 553.951C481.299 561.581 471.478 585.887 479.223 595.081C484.241 601.037 493.956 594.128 492.88 585.111C491.194 570.984 490.814 568.045 485.707 555.86Z" fill="#50d5ee" fill-rule="nonzero" opacity="1" stroke="#50d5ee" stroke-linecap="round" stroke-linejoin="round" stroke-width="3.15338"/>
<path d="M400.416 452.916C400.69 451.993 400.69 451.993 400.964 451.071C402.908 458.445 408.46 481.938 404.082 490.824C401.245 496.581 395.753 489.903 396.362 481.188C397.315 467.534 397.529 464.693 400.416 452.916Z" fill="#50d5ee" fill-rule="nonzero" opacity="1" stroke="#50d5ee" stroke-linecap="round" stroke-linejoin="round" stroke-width="3.15338"/>
<path d="M478.227 444.6C478.541 443.704 478.541 443.704 478.855 442.809C481.088 449.97 487.462 472.782 482.435 481.41C479.178 487 472.873 480.516 473.571 472.053C474.666 458.795 474.912 456.036 478.227 444.6Z" fill="#50d5ee" fill-rule="nonzero" opacity="1" stroke="#50d5ee" stroke-linecap="round" stroke-linejoin="round" stroke-width="3.15338"/>
<path d="M456.7 500.363C457.079 499.642 457.079 499.642 457.458 498.921C460.15 504.685 467.834 523.046 461.774 529.991C457.848 534.491 450.246 529.271 451.088 522.46C452.407 511.788 452.705 509.568 456.7 500.363Z" fill="#50d5ee" fill-rule="nonzero" opacity="1" stroke="#50d5ee" stroke-linecap="round" stroke-linejoin="round" stroke-width="3.15338"/>
<path d="M437.161 422.242C437.509 421.713 437.509 421.713 437.858 421.184C440.336 425.415 447.41 438.895 441.831 443.994C438.217 447.297 431.219 443.465 431.994 438.464C433.209 430.63 433.482 429 437.161 422.242Z" fill="#50d5ee" fill-rule="nonzero" opacity="1" stroke="#50d5ee" stroke-linecap="round" stroke-linejoin="round" stroke-width="3.15338"/>
<path d="M495.017 247.192C495.136 246.628 495.136 246.628 495.255 246.063C497.694 249.885 504.935 262.167 502.363 267.894C500.696 271.605 495.428 268.767 494.929 263.765C494.147 255.929 493.998 254.296 495.017 247.192Z" fill="#50d5ee" fill-rule="nonzero" opacity="1" stroke="#50d5ee" stroke-linecap="round" stroke-linejoin="round" stroke-width="3.15338"/>
<path d="M395.369 511.725C395.718 511.278 395.718 511.278 396.067 510.83C398.545 514.409 405.618 525.811 400.04 530.123C396.425 532.917 389.428 529.676 390.203 525.446C391.417 518.82 391.691 517.441 395.369 511.725Z" fill="#50d5ee" fill-rule="nonzero" opacity="1" stroke="#50d5ee" stroke-linecap="round" stroke-linejoin="round" stroke-width="3.15338"/>
<path d="M435.778 210.955C435.778 210.955 426.912 222.407 428.734 227.175C430.668 232.238 434.832 230.762 436.425 226.638C439.466 218.768 435.778 210.955 435.778 210.955Z" fill="#50d5ee" fill-rule="nonzero" opacity="1" stroke="#50d5ee" stroke-linecap="round" stroke-linejoin="round" stroke-width="2.19166"/>
</g>
</svg>
