<?xml version="1.0" encoding="UTF-8" standalone="no"?>
<!DOCTYPE svg PUBLIC "-//W3C//DTD SVG 1.1//EN" "http://www.w3.org/Graphics/SVG/1.1/DTD/svg11.dtd">
<!-- Created with Vectornator (http://vectornator.io/) -->
<svg height="100%" stroke-miterlimit="10" style="fill-rule:nonzero;clip-rule:evenodd;stroke-linecap:round;stroke-linejoin:round;" version="1.1" viewBox="0 0 844 390" width="100%" xml:space="preserve" xmlns="http://www.w3.org/2000/svg" xmlns:vectornator="http://vectornator.io" xmlns:xlink="http://www.w3.org/1999/xlink">
<defs/>
<clipPath id="ArtboardFrame">
<rect height="390" width="844" x="0" y="0"/>
</clipPath>
<g clip-path="url(#ArtboardFrame)" id="Layer-8-copy-copy" vectornator:layerName="Layer 8 copy copy" visibility="hidden">
<path d="M313.844-32.6126L311.663 190.478" fill="none" opacity="1" stroke="#3977ee" stroke-linecap="butt" stroke-linejoin="round" stroke-width="3.15338"/>
<path d="M3.08644-23.5286L0.904619 199.562" fill="none" opacity="1" stroke="#3977ee" stroke-linecap="butt" stroke-linejoin="round" stroke-width="3.15338"/>
<path d="M625.56-34.804L623.378 188.287" fill="none" opacity="1" stroke="#3977ee" stroke-linecap="butt" stroke-linejoin="round" stroke-width="3.15338"/>
<path d="M318.769-367.829L316.587-144.738" fill="none" opacity="1" stroke="#3977ee" stroke-linecap="butt" stroke-linejoin="round" stroke-width="3.15338"/>
<path d="M8.01092-358.745L5.8291-135.654" fill="none" opacity="1" stroke="#3977ee" stroke-linecap="butt" stroke-linejoin="round" stroke-width="3.15338"/>
<path d="M630.484-370.02L628.303-146.929" fill="none" opacity="1" stroke="#3977ee" stroke-linecap="butt" stroke-linejoin="round" stroke-width="3.15338"/>
<path d="M373.993-369.236L371.811-146.145" fill="none" opacity="1" stroke="#3977ee" stroke-linecap="butt" stroke-linejoin="round" stroke-width="3.15338"/>
<path d="M63.2354-360.152L61.0536-137.061" fill="none" opacity="1" stroke="#3977ee" stroke-linecap="butt" stroke-linejoin="round" stroke-width="3.15338"/>
<path d="M685.709-371.427L683.527-148.336" fill="none" opacity="1" stroke="#3977ee" stroke-linecap="butt" stroke-linejoin="round" stroke-width="3.15338"/>
<path d="M333.208 104.297L331.026 327.387" fill="none" opacity="1" stroke="#3977ee" stroke-linecap="butt" stroke-linejoin="round" stroke-width="3.15338"/>
<path d="M22.4501 113.381L20.2683 336.471" fill="none" opacity="1" stroke="#3977ee" stroke-linecap="butt" stroke-linejoin="round" stroke-width="3.15338"/>
<path d="M644.924 102.105L642.742 325.196" fill="none" opacity="1" stroke="#3977ee" stroke-linecap="butt" stroke-linejoin="round" stroke-width="3.15338"/>
<path d="M354.753 21.3874L352.572 244.478" fill="none" opacity="1" stroke="#3977ee" stroke-linecap="butt" stroke-linejoin="round" stroke-width="3.15338"/>
<path d="M43.9955 30.4714L41.8137 253.562" fill="none" opacity="1" stroke="#3977ee" stroke-linecap="butt" stroke-linejoin="round" stroke-width="3.15338"/>
<path d="M666.469 19.196L664.287 242.287" fill="none" opacity="1" stroke="#3977ee" stroke-linecap="butt" stroke-linejoin="round" stroke-width="3.15338"/>
<path d="M352.572 330.982L350.39 554.073" fill="none" opacity="1" stroke="#3977ee" stroke-linecap="butt" stroke-linejoin="round" stroke-width="3.15338"/>
<path d="M41.8137 340.066L39.6319 563.157" fill="none" opacity="1" stroke="#3977ee" stroke-linecap="butt" stroke-linejoin="round" stroke-width="3.15338"/>
<path d="M664.287 328.791L662.105 551.882" fill="none" opacity="1" stroke="#3977ee" stroke-linecap="butt" stroke-linejoin="round" stroke-width="3.15338"/>
<path d="M389.663 195.982L387.481 419.073" fill="none" opacity="1" stroke="#3977ee" stroke-linecap="butt" stroke-linejoin="round" stroke-width="3.15338"/>
<path d="M78.9046 205.066L76.7228 428.157" fill="none" opacity="1" stroke="#3977ee" stroke-linecap="butt" stroke-linejoin="round" stroke-width="3.15338"/>
<path d="M701.378 193.791L699.196 416.882" fill="none" opacity="1" stroke="#3977ee" stroke-linecap="butt" stroke-linejoin="round" stroke-width="3.15338"/>
<path d="M445.844 222.437L443.663 445.528" fill="none" opacity="1" stroke="#3977ee" stroke-linecap="butt" stroke-linejoin="round" stroke-width="3.15338"/>
<path d="M135.086 231.521L132.905 454.612" fill="none" opacity="1" stroke="#3977ee" stroke-linecap="butt" stroke-linejoin="round" stroke-width="3.15338"/>
<path d="M757.56 220.246L755.378 443.336" fill="none" opacity="1" stroke="#3977ee" stroke-linecap="butt" stroke-linejoin="round" stroke-width="3.15338"/>
<path d="M472.844 290.892L470.663 513.982" fill="none" opacity="1" stroke="#3977ee" stroke-linecap="butt" stroke-linejoin="round" stroke-width="3.15338"/>
<path d="M162.086 299.976L159.905 523.066" fill="none" opacity="1" stroke="#3977ee" stroke-linecap="butt" stroke-linejoin="round" stroke-width="3.15338"/>
<path d="M784.56 288.7L782.378 511.791" fill="none" opacity="1" stroke="#3977ee" stroke-linecap="butt" stroke-linejoin="round" stroke-width="3.15338"/>
<path d="M540.208 199.528L538.026 422.619" fill="none" opacity="1" stroke="#3977ee" stroke-linecap="butt" stroke-linejoin="round" stroke-width="3.15338"/>
<path d="M229.45 208.612L227.268 431.703" fill="none" opacity="1" stroke="#3977ee" stroke-linecap="butt" stroke-linejoin="round" stroke-width="3.15338"/>
<path d="M851.924 197.336L849.742 420.427" fill="none" opacity="1" stroke="#3977ee" stroke-linecap="butt" stroke-linejoin="round" stroke-width="3.15338"/>
<path d="M565.844 314.619L563.663 537.71" fill="none" opacity="1" stroke="#3977ee" stroke-linecap="butt" stroke-linejoin="round" stroke-width="3.15338"/>
<path d="M255.086 323.703L252.905 546.794" fill="none" opacity="1" stroke="#3977ee" stroke-linecap="butt" stroke-linejoin="round" stroke-width="3.15338"/>
<path d="M877.56 312.427L875.378 535.518" fill="none" opacity="1" stroke="#3977ee" stroke-linecap="butt" stroke-linejoin="round" stroke-width="3.15338"/>
<path d="M368.935 168.115L366.753 391.206" fill="none" opacity="1" stroke="#3977ee" stroke-linecap="butt" stroke-linejoin="round" stroke-width="3.15338"/>
<path d="M58.1773 177.199L55.9955 400.29" fill="none" opacity="1" stroke="#3977ee" stroke-linecap="butt" stroke-linejoin="round" stroke-width="3.15338"/>
<path d="M680.651 165.923L678.469 389.014" fill="none" opacity="1" stroke="#3977ee" stroke-linecap="butt" stroke-linejoin="round" stroke-width="3.15338"/>
<path d="M392.117-32.3399L389.935 190.751" fill="none" opacity="1" stroke="#3977ee" stroke-linecap="butt" stroke-linejoin="round" stroke-width="3.15338"/>
<path d="M81.3592-23.2559L79.1773 199.835" fill="none" opacity="1" stroke="#3977ee" stroke-linecap="butt" stroke-linejoin="round" stroke-width="3.15338"/>
<path d="M703.833-34.5313L701.651 188.56" fill="none" opacity="1" stroke="#3977ee" stroke-linecap="butt" stroke-linejoin="round" stroke-width="3.15338"/>
<path d="M395.986-342.934L393.804-119.843" fill="none" opacity="1" stroke="#3977ee" stroke-linecap="butt" stroke-linejoin="round" stroke-width="3.15338"/>
<path d="M85.2284-333.85L83.0466-110.759" fill="none" opacity="1" stroke="#3977ee" stroke-linecap="butt" stroke-linejoin="round" stroke-width="3.15338"/>
<path d="M707.702-345.125L705.52-122.034" fill="none" opacity="1" stroke="#3977ee" stroke-linecap="butt" stroke-linejoin="round" stroke-width="3.15338"/>
<path d="M449.804-233.188L447.622-10.0973" fill="none" opacity="1" stroke="#3977ee" stroke-linecap="butt" stroke-linejoin="round" stroke-width="3.15338"/>
<path d="M139.046-224.104L136.864-1.01328" fill="none" opacity="1" stroke="#3977ee" stroke-linecap="butt" stroke-linejoin="round" stroke-width="3.15338"/>
<path d="M761.519-235.38L759.338-12.2887" fill="none" opacity="1" stroke="#3977ee" stroke-linecap="butt" stroke-linejoin="round" stroke-width="3.15338"/>
<path d="M423.071-383.385L420.889-160.294" fill="none" opacity="1" stroke="#3977ee" stroke-linecap="butt" stroke-linejoin="round" stroke-width="3.15338"/>
<path d="M112.313-374.301L110.131-151.21" fill="none" opacity="1" stroke="#3977ee" stroke-linecap="butt" stroke-linejoin="round" stroke-width="3.15338"/>
<path d="M734.787-385.576L732.605-162.485" fill="none" opacity="1" stroke="#3977ee" stroke-linecap="butt" stroke-linejoin="round" stroke-width="3.15338"/>
<path d="M544.776-381.274L542.594-158.183" fill="none" opacity="1" stroke="#3977ee" stroke-linecap="butt" stroke-linejoin="round" stroke-width="3.15338"/>
<path d="M234.018-372.19L231.836-149.099" fill="none" opacity="1" stroke="#3977ee" stroke-linecap="butt" stroke-linejoin="round" stroke-width="3.15338"/>
<path d="M856.491-383.466L854.31-160.375" fill="none" opacity="1" stroke="#3977ee" stroke-linecap="butt" stroke-linejoin="round" stroke-width="3.15338"/>
<path d="M415.299 149.842L413.117 372.933" fill="none" opacity="1" stroke="#3977ee" stroke-linecap="butt" stroke-linejoin="round" stroke-width="3.15338"/>
<path d="M104.541 158.926L102.359 382.017" fill="none" opacity="1" stroke="#3977ee" stroke-linecap="butt" stroke-linejoin="round" stroke-width="3.15338"/>
<path d="M727.014 147.651L724.833 370.741" fill="none" opacity="1" stroke="#3977ee" stroke-linecap="butt" stroke-linejoin="round" stroke-width="3.15338"/>
<path d="M448.026-39.4308L445.844 183.66" fill="none" opacity="1" stroke="#3977ee" stroke-linecap="butt" stroke-linejoin="round" stroke-width="3.15338"/>
<path d="M137.268-30.3468L135.086 192.744" fill="none" opacity="1" stroke="#3977ee" stroke-linecap="butt" stroke-linejoin="round" stroke-width="3.15338"/>
<path d="M759.742-41.6222L757.56 181.469" fill="none" opacity="1" stroke="#3977ee" stroke-linecap="butt" stroke-linejoin="round" stroke-width="3.15338"/>
<path d="M417.316-90.2189L415.134 132.872" fill="none" opacity="1" stroke="#3977ee" stroke-linecap="butt" stroke-linejoin="round" stroke-width="3.15338"/>
<path d="M106.558-81.1349L104.377 141.956" fill="none" opacity="1" stroke="#3977ee" stroke-linecap="butt" stroke-linejoin="round" stroke-width="3.15338"/>
<path d="M729.032-92.4103L726.85 130.681" fill="none" opacity="1" stroke="#3977ee" stroke-linecap="butt" stroke-linejoin="round" stroke-width="3.15338"/>
<path d="M515.071-176.581L512.889 46.5097" fill="none" opacity="1" stroke="#3977ee" stroke-linecap="butt" stroke-linejoin="round" stroke-width="3.15338"/>
<path d="M204.313-167.497L202.131 55.5937" fill="none" opacity="1" stroke="#3977ee" stroke-linecap="butt" stroke-linejoin="round" stroke-width="3.15338"/>
<path d="M826.787-178.773L824.605 44.3183" fill="none" opacity="1" stroke="#3977ee" stroke-linecap="butt" stroke-linejoin="round" stroke-width="3.15338"/>
<path d="M480.713-257.557L478.531-34.4665" fill="none" opacity="1" stroke="#3977ee" stroke-linecap="butt" stroke-linejoin="round" stroke-width="3.15338"/>
<path d="M169.955-248.473L167.773-25.3825" fill="none" opacity="1" stroke="#3977ee" stroke-linecap="butt" stroke-linejoin="round" stroke-width="3.15338"/>
<path d="M792.429-259.749L790.247-36.658" fill="none" opacity="1" stroke="#3977ee" stroke-linecap="butt" stroke-linejoin="round" stroke-width="3.15338"/>
<path d="M574.821-289.901L572.639-66.8096" fill="none" opacity="1" stroke="#3977ee" stroke-linecap="butt" stroke-linejoin="round" stroke-width="3.15338"/>
<path d="M264.063-280.817L261.881-57.7256" fill="none" opacity="1" stroke="#3977ee" stroke-linecap="butt" stroke-linejoin="round" stroke-width="3.15338"/>
<path d="M886.536-292.092L884.355-69.0011" fill="none" opacity="1" stroke="#3977ee" stroke-linecap="butt" stroke-linejoin="round" stroke-width="3.15338"/>
<path d="M370.592-124.714L368.41 98.3767" fill="none" opacity="1" stroke="#3977ee" stroke-linecap="butt" stroke-linejoin="round" stroke-width="3.15338"/>
<path d="M59.834-115.63L57.6522 107.461" fill="none" opacity="1" stroke="#3977ee" stroke-linecap="butt" stroke-linejoin="round" stroke-width="3.15338"/>
<path d="M682.308-126.906L680.126 96.1853" fill="none" opacity="1" stroke="#3977ee" stroke-linecap="butt" stroke-linejoin="round" stroke-width="3.15338"/>
<path d="M478.948 20.844L476.767 243.935" fill="none" opacity="1" stroke="#3977ee" stroke-linecap="butt" stroke-linejoin="round" stroke-width="3.15338"/>
<path d="M168.191 29.928L166.009 253.019" fill="none" opacity="1" stroke="#3977ee" stroke-linecap="butt" stroke-linejoin="round" stroke-width="3.15338"/>
<path d="M790.664 18.6526L788.482 241.744" fill="none" opacity="1" stroke="#3977ee" stroke-linecap="butt" stroke-linejoin="round" stroke-width="3.15338"/>
<path d="M509.39 131.297L507.208 354.387" fill="none" opacity="1" stroke="#3977ee" stroke-linecap="butt" stroke-linejoin="round" stroke-width="3.15338"/>
<path d="M198.632 140.381L196.45 363.471" fill="none" opacity="1" stroke="#3977ee" stroke-linecap="butt" stroke-linejoin="round" stroke-width="3.15338"/>
<path d="M821.105 129.105L818.924 352.196" fill="none" opacity="1" stroke="#3977ee" stroke-linecap="butt" stroke-linejoin="round" stroke-width="3.15338"/>
<path d="M541.299-39.9762L539.117 183.115" fill="none" opacity="1" stroke="#3977ee" stroke-linecap="butt" stroke-linejoin="round" stroke-width="3.15338"/>
<path d="M230.541-30.8922L228.359 192.199" fill="none" opacity="1" stroke="#3977ee" stroke-linecap="butt" stroke-linejoin="round" stroke-width="3.15338"/>
<path d="M853.014-42.1677L850.833 180.923" fill="none" opacity="1" stroke="#3977ee" stroke-linecap="butt" stroke-linejoin="round" stroke-width="3.15338"/>
<path d="M568.844 41.0238L566.663 264.115" fill="none" opacity="1" stroke="#3977ee" stroke-linecap="butt" stroke-linejoin="round" stroke-width="3.15338"/>
<path d="M258.086 50.1078L255.905 273.199" fill="none" opacity="1" stroke="#3977ee" stroke-linecap="butt" stroke-linejoin="round" stroke-width="3.15338"/>
<path d="M880.56 38.8323L878.378 261.923" fill="none" opacity="1" stroke="#3977ee" stroke-linecap="butt" stroke-linejoin="round" stroke-width="3.15338"/>
<path d="M287.39 112.751L285.208 335.842" fill="none" opacity="1" stroke="#3977ee" stroke-linecap="butt" stroke-linejoin="round" stroke-width="3.15338"/>
<path d="M-23.3681 121.835L-25.5499 344.926" fill="none" opacity="1" stroke="#3977ee" stroke-linecap="butt" stroke-linejoin="round" stroke-width="3.15338"/>
<path d="M599.105 110.56L596.924 333.651" fill="none" opacity="1" stroke="#3977ee" stroke-linecap="butt" stroke-linejoin="round" stroke-width="3.15338"/>
<path d="M292.844-191.662L290.663 31.4287" fill="none" opacity="1" stroke="#3977ee" stroke-linecap="butt" stroke-linejoin="round" stroke-width="3.15338"/>
<path d="M-17.9136-182.578L-20.0954 40.5127" fill="none" opacity="1" stroke="#3977ee" stroke-linecap="butt" stroke-linejoin="round" stroke-width="3.15338"/>
<path d="M604.56-193.854L602.378 29.2373" fill="none" opacity="1" stroke="#3977ee" stroke-linecap="butt" stroke-linejoin="round" stroke-width="3.15338"/>
<path d="M334.844-123.208L332.663 99.8833" fill="none" opacity="1" stroke="#3977ee" stroke-linecap="butt" stroke-linejoin="round" stroke-width="3.15338"/>
<path d="M24.0864-114.124L21.9046 108.967" fill="none" opacity="1" stroke="#3977ee" stroke-linecap="butt" stroke-linejoin="round" stroke-width="3.15338"/>
<path d="M646.56-125.399L644.378 97.6918" fill="none" opacity="1" stroke="#3977ee" stroke-linecap="butt" stroke-linejoin="round" stroke-width="3.15338"/>
<path d="M338.992-445.357L336.81-222.266" fill="none" opacity="1" stroke="#3977ee" stroke-linecap="butt" stroke-linejoin="round" stroke-width="3.15338"/>
<path d="M28.2343-436.273L26.0525-213.182" fill="none" opacity="1" stroke="#3977ee" stroke-linecap="butt" stroke-linejoin="round" stroke-width="3.15338"/>
<path d="M650.708-447.548L648.526-224.458" fill="none" opacity="1" stroke="#3977ee" stroke-linecap="butt" stroke-linejoin="round" stroke-width="3.15338"/>
<path d="M357.481-255.208L355.299-32.1167" fill="none" opacity="1" stroke="#3977ee" stroke-linecap="butt" stroke-linejoin="round" stroke-width="3.15338"/>
<path d="M46.7228-246.124L44.541-23.0327" fill="none" opacity="1" stroke="#3977ee" stroke-linecap="butt" stroke-linejoin="round" stroke-width="3.15338"/>
<path d="M669.196-257.399L667.014-34.3082" fill="none" opacity="1" stroke="#3977ee" stroke-linecap="butt" stroke-linejoin="round" stroke-width="3.15338"/>
<path d="M312.481 205.206L310.299 428.297" fill="none" opacity="1" stroke="#3977ee" stroke-linecap="butt" stroke-linejoin="round" stroke-width="3.15338"/>
<path d="M1.7228 214.29L-0.459017 437.381" fill="none" opacity="1" stroke="#3977ee" stroke-linecap="butt" stroke-linejoin="round" stroke-width="3.15338"/>
<path d="M624.196 203.014L622.014 426.105" fill="none" opacity="1" stroke="#3977ee" stroke-linecap="butt" stroke-linejoin="round" stroke-width="3.15338"/>
</g>
<g clip-path="url(#ArtboardFrame)" id="Layer-9-copy-copy" vectornator:layerName="Layer 9 copy copy">
<path d="M338.22 361.184C338.931 359.763 335.983 404.592 335.859 405.463C335.298 409.391 335.241 413.545 335.241 417.512C335.241 428.172 333.388 438.535 333.388 449.023" fill="none" opacity="1" stroke="#3977ee" stroke-linecap="round" stroke-linejoin="round" stroke-width="3.15338"/>
<path d="M332.77 464.778C331.572 467.173 332.677 470.135 332.77 472.81C332.841 474.88 333.079 476.915 333.079 478.989C333.079 491.355 333.388 503.449 333.388 515.752" fill="none" opacity="1" stroke="#3977ee" stroke-linecap="round" stroke-linejoin="round" stroke-width="3.15338"/>
<path d="M353.468 420.91C353.468 430.193 355.543 439.794 354.704 449.023C354.017 456.574 352.196 463.634 353.468 471.266C354.155 475.39 351.893 481.709 353.777 485.477" fill="none" opacity="1" stroke="#3977ee" stroke-linecap="round" stroke-linejoin="round" stroke-width="3.15338"/>
<path d="M373.089 392.245C373.089 398.993 372.63 420.996 373.24 427.706C373.562 431.254 374.303 435.267 373.858 438.828C372.377 450.669 372.622 462.961 372.622 474.973" fill="none" opacity="1" stroke="#3977ee" stroke-linecap="round" stroke-linejoin="round" stroke-width="3.15338"/>
<path d="M372.622 497.525C371.721 500.229 372.313 508.048 372.313 511.427C372.313 512.634 371.695 517.869 371.695 516.988" fill="none" opacity="1" stroke="#3977ee" stroke-linecap="round" stroke-linejoin="round" stroke-width="3.15338"/>
<path d="M354.395 504.63C353.241 508.092 354.704 511.872 354.704 515.443" fill="none" opacity="1" stroke="#3977ee" stroke-linecap="round" stroke-linejoin="round" stroke-width="3.15338"/>
<path d="M393.938 442.535C394.725 444.896 394.042 447.495 394.247 449.949C394.579 453.934 394.372 458.053 394.865 461.998C395.859 469.955 395.174 478.362 395.174 486.403C395.174 488.754 394.787 491.497 395.174 493.818C395.663 496.753 394.766 500.22 395.483 503.086C396.38 506.675 396.718 511.055 396.718 514.825" fill="none" opacity="1" stroke="#3977ee" stroke-linecap="round" stroke-linejoin="round" stroke-width="3.15338"/>
<path d="M415.773 372.535C413.952 376.176 415.563 416.621 415.563 420.601C415.563 432.078 415.563 443.611 415.563 454.892" fill="none" opacity="1" stroke="#3977ee" stroke-linecap="round" stroke-linejoin="round" stroke-width="3.15338"/>
<path d="M443.985 406.699C443.985 411.962 443.335 417.565 443.985 422.764C444.261 424.976 444.668 427.624 444.294 429.869C443.333 435.634 445.011 443.064 443.676 448.405C442.205 454.289 443.058 459.565 443.058 465.705C443.058 472.149 442.44 478.39 442.44 484.859" fill="none" opacity="1" stroke="#3977ee" stroke-linecap="round" stroke-linejoin="round" stroke-width="3.15338"/>
<path d="M419.579 480.843C419.579 483.897 420.003 486.475 420.506 489.493C421.66 496.417 419.888 504.107 419.888 511.118" fill="none" opacity="1" stroke="#3977ee" stroke-linecap="round" stroke-linejoin="round" stroke-width="3.15338"/>
<path d="M400.687 314.425C400.687 312.118 398.263 411.283 398.263 412.26C398.263 414.816 397.429 417.48 398.263 419.983" fill="none" opacity="1" stroke="#3977ee" stroke-linecap="round" stroke-linejoin="round" stroke-width="3.15338"/>
<path d="M446.765 508.337C445.393 511.082 446.765 515.451 446.765 518.532" fill="none" opacity="1" stroke="#3977ee" stroke-linecap="round" stroke-linejoin="round" stroke-width="3.15338"/>
<path d="M469.632 320.438C469.632 324.165 469.974 412.412 469.008 416.276C468.569 418.033 468.082 420.323 468.082 422.146" fill="none" opacity="1" stroke="#3977ee" stroke-linecap="round" stroke-linejoin="round" stroke-width="3.15338"/>
<path d="M468.39 444.698C468.39 449.931 469.935 455.022 469.935 460.453C469.935 468.408 469.265 476.204 470.553 483.932C471.027 486.777 470.166 489.8 470.862 492.582C472.276 498.237 470.279 505.734 471.48 511.736C471.679 512.734 471.307 513.553 471.789 514.516" fill="none" opacity="1" stroke="#3977ee" stroke-linecap="round" stroke-linejoin="round" stroke-width="3.15338"/>
<path d="M494.032 398.667C493.156 400.418 494.032 403.693 494.032 405.463C494.032 411.848 494.032 418.233 494.032 424.617C494.032 434.709 494.032 444.801 494.032 454.892C494.032 459.234 493.181 464.541 494.032 468.794C495.657 476.918 495.576 485.325 495.576 493.818" fill="none" opacity="1" stroke="#3977ee" stroke-linecap="round" stroke-linejoin="round" stroke-width="3.15338"/>
<path d="M496.812 509.573C496.701 508.797 496.587 507.761 495.885 507.411C495.416 507.176 495.502 508.436 495.576 508.955C495.715 509.922 495.629 511.299 496.503 511.736C497.154 512.061 496.915 510.294 496.812 509.573Z" fill="none" opacity="1" stroke="#3977ee" stroke-linecap="round" stroke-linejoin="round" stroke-width="3.15338"/>
<path d="M524.651 348.412C524.651 352.935 523.851 403.068 524.307 407.626C524.635 410.902 525.404 414.466 524.925 417.821C524.43 421.284 523.434 426.376 524.307 429.869C525.463 434.493 525.543 438.807 525.543 443.771" fill="none" opacity="1" stroke="#3977ee" stroke-linecap="round" stroke-linejoin="round" stroke-width="3.15338"/>
<path d="M526.778 472.193C526.446 472.026 525.789 471.266 526.161 471.266C527.007 471.266 526.718 474.3 526.778 474.664C527.393 478.348 527.396 482 527.396 485.785C527.396 495.549 528.014 505.159 528.014 514.825" fill="none" opacity="1" stroke="#3977ee" stroke-linecap="round" stroke-linejoin="round" stroke-width="3.15338"/>
<path d="M551.802 386.619C551.802 393.278 553.435 401.314 552.111 407.935C550.449 416.243 548.382 424.461 547.168 432.958C546.519 437.502 547.477 442.309 547.477 446.86C547.477 450.091 548.008 453.868 547.477 457.055C546.943 460.256 546.201 464.579 546.859 467.867C547.682 471.983 547.786 476.926 547.786 481.152" fill="none" opacity="1" stroke="#3977ee" stroke-linecap="round" stroke-linejoin="round" stroke-width="3.15338"/>
<path d="M546.859 502.159C546.859 508.723 546.241 515.099 546.241 521.622" fill="none" opacity="1" stroke="#3977ee" stroke-linecap="round" stroke-linejoin="round" stroke-width="3.15338"/>
<path d="M579.613 312.481C580.955 315.165 578.37 382.074 578.37 385.383C578.37 393.601 577.443 401.867 577.443 410.097C577.443 412.808 577.937 420.231 576.825 422.455" fill="none" opacity="1" stroke="#3977ee" stroke-linecap="round" stroke-linejoin="round" stroke-width="3.15338"/>
<path d="M576.825 436.974C576.295 437.504 575.4 450.281 574.972 452.421C574.515 454.705 573.503 456.91 573.118 459.217C572.752 461.414 573.554 463.833 573.118 466.014C572.012 471.546 572.5 477.595 572.5 483.314C572.5 491.011 571.095 499.427 572.191 507.102C572.52 509.404 572.809 511.563 572.809 513.898" fill="none" opacity="1" stroke="#3977ee" stroke-linecap="round" stroke-linejoin="round" stroke-width="3.15338"/>
<path d="M361.556 281.882C360.65 283.967 357.763 351.634 357.558 353.951C357.055 359.631 355.975 365.189 355.478 370.812" fill="#50d5ee" fill-rule="nonzero" opacity="1" stroke="#3977ee" stroke-linecap="round" stroke-linejoin="round" stroke-width="3.15338"/>
<path d="M377.696 293.184C378.471 296.442 375.325 354.111 375.676 357.318C376.435 364.244 374.916 372.54 374.297 379.531" fill="#50d5ee" fill-rule="nonzero" opacity="1" stroke="#3977ee" stroke-linecap="round" stroke-linejoin="round" stroke-width="3.15338"/>
<path d="M446.291 295.096C445.672 302.089 443.036 362.469 443.569 369.402C443.723 371.398 443.076 373.436 443.23 375.445C443.337 376.829 442.636 378.354 442.852 379.722C443.198 381.914 443.789 384.06 444.033 386.292C444.163 387.477 443.843 389.14 444.272 390.231" fill="#50d5ee" fill-rule="nonzero" opacity="1" stroke="#3977ee" stroke-linecap="round" stroke-linejoin="round" stroke-width="3.15338"/>
<path d="M555.763 258.991C554.409 262.104 552.3 334.035 551.996 337.466C551.13 347.255 551.245 357.024 550.387 366.711" fill="#50d5ee" fill-rule="nonzero" opacity="1" stroke="#3977ee" stroke-linecap="round" stroke-linejoin="round" stroke-width="3.15338"/>
<path d="M342.952 282.249C342.204 283.744 342.678 285.421 342.755 286.965C342.916 290.177 342.682 293.595 342.362 296.79C342.05 299.916 342.478 303.102 342.166 306.222C341.845 309.432 341.541 312.807 341.773 316.047C341.958 318.645 342.602 321.485 342.166 324.103C341.353 328.981 340.397 333.846 340.397 338.841" fill="#50d5ee" fill-rule="nonzero" opacity="1" stroke="#3977ee" stroke-linecap="round" stroke-linejoin="round" stroke-width="3.15338"/>
<path d="M400.918 287.358C400.346 288.503 400.504 289.868 400.329 291.092C399.983 293.512 398.322 295.921 399.543 298.362" fill="#50d5ee" fill-rule="nonzero" opacity="1" stroke="#3977ee" stroke-linecap="round" stroke-linejoin="round" stroke-width="3.15338"/>
<path d="M423.712 285.59C423.712 285.328 423.595 285.038 423.712 284.804C423.777 284.673 423.899 285.051 423.908 285.197C423.966 286.112 423.908 287.031 423.908 287.948C423.908 289.323 423.908 290.699 423.908 292.074C423.908 296.479 423.712 300.844 423.712 305.24C423.712 318.049 419.978 330.113 419.978 342.77" fill="#50d5ee" fill-rule="nonzero" opacity="1" stroke="#3977ee" stroke-linecap="round" stroke-linejoin="round" stroke-width="3.15338"/>
<path d="M527.266 272.425C526.319 274.318 526.975 279.023 526.873 281.07C526.597 286.587 525.497 292.08 525.497 297.576" fill="#50d5ee" fill-rule="nonzero" opacity="1" stroke="#3977ee" stroke-linecap="round" stroke-linejoin="round" stroke-width="3.15338"/>
<path d="M473.229 281.856C473.229 283.69 473.229 285.524 473.229 287.358" fill="#50d5ee" fill-rule="nonzero" opacity="1" stroke="#3977ee" stroke-linecap="round" stroke-linejoin="round" stroke-width="3.15338"/>
<path d="M579.927 250.22C580.704 251.775 579.786 253.672 580.516 255.133" fill="#50d5ee" fill-rule="nonzero" opacity="1" stroke="#3977ee" stroke-linecap="round" stroke-linejoin="round" stroke-width="3.15338"/>
</g>
<g id="Layer-2" vectornator:layerName="Layer 2"/>
<g id="Layer-1" vectornator:layerName="Layer 1" visibility="hidden">
<path d="M316.037 139.392C316.037 125.215 326.097 115.568 336.426 108.19C340.924 104.978 344.909 102.489 350.637 102.012C354.072 101.725 357.8 103.123 361.141 103.865C365.98 104.941 371.753 104.87 375.969 107.881C384.471 113.954 391.107 128.423 391.107 138.775" fill="none" opacity="1" stroke="#000000" stroke-linecap="round" stroke-linejoin="round" stroke-width="4.66859"/>
<path d="M390.18 134.758C390.908 133.302 393.192 133.359 394.814 133.214C399.127 132.829 403.462 132.762 407.789 132.596C412.078 132.431 416.293 133.833 420.455 134.758C425.246 135.823 430.37 136.402 434.975 138.157C454.097 145.441 473.584 159.178 462.47 181.407" fill="none" opacity="1" stroke="#000000" stroke-linecap="round" stroke-linejoin="round" stroke-width="4.66859"/>
<path d="M422.618 194.073C419.871 194.073 424.831 191.438 425.089 191.293C426.093 190.728 427.131 190.225 428.179 189.748C429.397 189.194 430.636 188.684 431.886 188.204C439.681 185.205 447.023 183.83 455.365 183.57C466.611 183.218 479.451 184.448 489.038 190.984C495.893 195.658 500.939 202.882 507.883 207.048" fill="none" opacity="1" stroke="#000000" stroke-linecap="round" stroke-linejoin="round" stroke-width="4.66859"/>
<path d="M269.388 177.7C264.217 176.407 268.904 170.188 270.006 167.814C272.186 163.119 277.089 158.486 281.127 155.457C295.756 144.486 309.614 140.616 327.776 140.01C333.398 139.823 339.31 139.599 344.458 142.173" fill="none" opacity="1" stroke="#000000" stroke-linecap="round" stroke-linejoin="round" stroke-width="4.66859"/>
<path d="M289.777 178.936C286.829 173.038 272.924 179.171 268.77 181.407C255.441 188.584 252.122 204.641 249.616 218.17C249.042 221.273 247.529 226.861 249.307 229.909C251.312 233.345 257.059 233.673 260.429 234.234" fill="none" opacity="1" stroke="#000000" stroke-linecap="round" stroke-linejoin="round" stroke-width="4.66859"/>
<path d="M288.542 216.007C286.382 211.688 278.528 223.244 277.42 225.275C274.569 230.503 275.228 235.966 274.331 241.649C273.544 246.634 271.81 252.848 274.022 257.713C279.141 268.975 292.684 270.076 303.37 272.542C308.466 273.718 313.262 275.845 318.508 276.249C321.814 276.503 324.438 273.777 327.467 273.777" fill="none" opacity="1" stroke="#000000" stroke-linecap="round" stroke-linejoin="round" stroke-width="4.66859"/>
<path d="M340.133 255.242C339.721 256.065 339.043 256.804 338.898 257.713C338.211 262.003 336.393 266.533 337.662 270.688C339.539 276.837 343.672 282.18 347.857 287.061C348.882 288.258 350.937 287.729 352.49 287.988C353.41 288.142 354.339 288.264 355.271 288.297C357.226 288.367 359.185 288.345 361.141 288.297C372.593 288.018 391.625 284.999 400.066 276.558" fill="none" opacity="1" stroke="#000000" stroke-linecap="round" stroke-linejoin="round" stroke-width="4.66859"/>
<path d="M508.192 207.975C512.676 216.944 512.04 231.094 503.867 237.633C498.607 241.84 491.511 243.006 486.258 247.209" fill="none" opacity="1" stroke="#000000" stroke-linecap="round" stroke-linejoin="round" stroke-width="4.66859"/>
<path d="M400.993 262.965C400.89 263.48 400.617 263.989 400.684 264.51C401.136 268.036 400.157 272.372 402.537 275.013C408.179 281.274 415.872 285.433 423.236 289.533C425.134 290.59 427.555 290.011 429.723 290.151C430.751 290.217 431.788 290.251 432.813 290.151C442.67 289.189 448.626 287.506 456.6 281.81" fill="none" opacity="1" stroke="#000000" stroke-linecap="round" stroke-linejoin="round" stroke-width="4.66859"/>
<path d="M474.209 236.397C474.415 236.5 474.739 236.493 474.827 236.706C476.306 240.255 478.009 243.765 478.843 247.518C480.082 253.092 480.739 258.806 481.006 264.51C481.097 266.447 478.419 270.046 477.299 271.615C472.724 278.019 465.935 284.996 458.454 287.988" fill="none" opacity="1" stroke="#000000" stroke-linecap="round" stroke-linejoin="round" stroke-width="4.66859"/>
<path d="M260.429 236.397C265.171 237.345 268.436 236.814 273.095 235.779" fill="none" opacity="1" stroke="#000000" stroke-linecap="round" stroke-linejoin="round" stroke-width="4.66859"/>
<path d="M319.435 273.777C326.214 278.297 333.361 273.556 339.824 270.997C340.515 270.724 341.06 270.173 341.678 269.761" fill="none" opacity="1" stroke="#000000" stroke-linecap="round" stroke-linejoin="round" stroke-width="4.66859"/>
</g>
<g id="Layer-3" vectornator:layerName="Layer 3" visibility="hidden">
<path d="M317.367 138.461C317.367 138.461 322.244 105.35 351.76 102.658C382.389 99.8634 390.971 131.605 390.971 131.605" fill="none" opacity="1" stroke="#adb5bd" stroke-linecap="butt" stroke-linejoin="round" stroke-width="4.66859"/>
<path d="M390.52 130.281C390.52 130.281 434.988 130.128 457.982 151.815C471.233 164.313 464.908 182.383 464.908 182.383" fill="none" opacity="1" stroke="#adb5bd" stroke-linecap="butt" stroke-linejoin="round" stroke-width="4.66859"/>
<path d="M423.649 192.623C423.649 192.623 468.04 171.239 496.832 196.086C537.489 231.172 486.894 246.23 486.894 246.23" fill="none" opacity="1" stroke="#adb5bd" stroke-linecap="butt" stroke-linejoin="round" stroke-width="4.66859"/>
<path d="M471.801 227.979C471.801 227.979 513.436 261.458 456.862 285.736C407.583 306.883 384.807 262.259 384.807 262.259" fill="none" opacity="1" stroke="#adb5bd" stroke-linecap="butt" stroke-linejoin="round" stroke-width="4.66859"/>
<path d="M285.227 216.511C285.227 216.511 258.572 272.867 312.77 278.452C388.749 286.281 392.606 248.243 392.606 248.243" fill="none" opacity="1" stroke="#adb5bd" stroke-linecap="butt" stroke-linejoin="round" stroke-width="4.66859"/>
<path d="M290.05 175.895C290.05 175.895 248.164 177.672 253.114 219.938C254.305 230.104 273.549 236.82 280.657 226.919" fill="none" opacity="1" stroke="#adb5bd" stroke-linecap="butt" stroke-linejoin="round" stroke-width="4.66859"/>
<path d="M266.949 181.988C266.949 181.988 268.472 153.302 296.269 144.925C317.834 138.426 344.882 139.848 344.882 139.848" fill="none" opacity="1" stroke="#adb5bd" stroke-linecap="butt" stroke-linejoin="round" stroke-width="4.66859"/>
</g>
<g id="Layer-4" vectornator:layerName="Layer 4">
<path d="M319.178 216.055C316.983 218.3 287.374 232.571 318.667 268.03C344.569 297.381 482.239 276.535 482.239 276.535C482.239 276.535 641.302 263.767 583.693 186.153C537.807 124.333 521.672 157.097 521.672 157.097C521.672 157.097 581.917 55.1062 426.127 76.1367C340.703 87.6685 286.152 190.795 350.035 199.881C405.523 207.774 345.641 188.993 319.178 216.055Z" fill="#d6d8da" fill-rule="nonzero" opacity="1" stroke="#93999e" stroke-linecap="butt" stroke-linejoin="round" stroke-width="3.97941"/>
</g>
<g id="Layer-5" vectornator:layerName="Layer 5">
<path d="M404.793 188.547C418.128 219.95 386.726 245.33 363.496 241.889" fill="none" opacity="1" stroke="#93999e" stroke-linecap="butt" stroke-linejoin="round" stroke-width="4.66859"/>
<path d="M446.834 122.441C440.338 134.733 429.068 134.38 421.327 136.96" fill="none" opacity="1" stroke="#93999e" stroke-linecap="round" stroke-linejoin="round" stroke-width="4.66859"/>
<path d="M461.046 117.538C469.679 124.994 469.679 132.843 490.085 128.526" fill="none" opacity="1" stroke="#93999e" stroke-linecap="round" stroke-linejoin="round" stroke-width="4.66859"/>
</g>
<g id="Layer-6" vectornator:layerName="Layer 6">
<path d="M453.988 170.224C453.988 152.515 461.748 138.159 471.321 138.159C480.893 138.159 488.653 152.515 488.653 170.224C488.653 187.932 480.893 202.288 471.321 202.288C461.748 202.288 453.988 187.932 453.988 170.224Z" fill="#ffffff" fill-rule="nonzero" opacity="1" stroke="#727476" stroke-linecap="butt" stroke-linejoin="round" stroke-width="4.66859"/>
<path d="M432.612 170.613C432.612 153.008 440.372 138.737 449.944 138.737C459.517 138.737 467.276 153.008 467.276 170.613C467.276 188.217 459.517 202.489 449.944 202.489C440.372 202.489 432.612 188.217 432.612 170.613Z" fill="#ffffff" fill-rule="nonzero" opacity="1" stroke="#727476" stroke-linecap="butt" stroke-linejoin="round" stroke-width="4.66859"/>
<path d="M454.599 185.15C455.875 180.324 458.231 176.761 459.863 177.192C461.494 177.623 461.782 181.885 460.507 186.711C459.231 191.537 456.875 195.099 455.244 194.668C453.612 194.237 453.324 189.976 454.599 185.15Z" fill="#000000" fill-rule="nonzero" opacity="1" stroke="#000000" stroke-linecap="butt" stroke-linejoin="round" stroke-width="4.66859"/>
<path d="M474.818 187.73C476.487 183.026 479.129 179.669 480.719 180.233C482.309 180.798 482.245 185.068 480.576 189.773C478.908 194.477 476.266 197.834 474.675 197.269C473.085 196.705 473.149 192.434 474.818 187.73Z" fill="#000000" fill-rule="nonzero" opacity="1" stroke="#000000" stroke-linecap="butt" stroke-linejoin="round" stroke-width="4.66859"/>
<path d="M452.676 239.051C451.227 230.356 461.682 226.317 469.582 226.975C485.038 228.263 481.174 238.085 481.174 238.085" fill="none" opacity="1" stroke="#727476" stroke-linecap="round" stroke-linejoin="round" stroke-width="4.66859"/>
</g>
<g clip-path="url(#ArtboardFrame)" id="Layer-7" vectornator:layerName="Layer 7">
<path d="M421.126 486.73C421.498 485.821 421.498 485.821 421.869 484.912C424.509 492.178 432.045 515.324 426.102 524.079C422.251 529.751 414.797 523.172 415.622 514.585C416.916 501.132 417.208 498.334 421.126 486.73Z" fill="#50d5ee" fill-rule="nonzero" opacity="1" stroke="#50d5ee" stroke-linecap="round" stroke-linejoin="round" stroke-width="3.15338"/>
<path d="M490.769 504.88C491.125 504.085 491.125 504.085 491.481 503.29C494.012 509.645 501.239 529.892 495.54 537.55C491.848 542.511 484.699 536.756 485.491 529.245C486.731 517.478 487.011 515.03 490.769 504.88Z" fill="#50d5ee" fill-rule="nonzero" opacity="1" stroke="#50d5ee" stroke-linecap="round" stroke-linejoin="round" stroke-width="3.15338"/>
<path d="M501.164 430.216C500.907 429.223 500.907 429.223 500.651 428.23C498.826 436.166 493.618 461.446 497.725 471.007C500.386 477.202 505.539 470.016 504.968 460.638C504.074 445.945 503.873 442.889 501.164 430.216Z" fill="#50d5ee" fill-rule="nonzero" opacity="1" stroke="#50d5ee" stroke-linecap="round" stroke-linejoin="round" stroke-width="3.15338"/>
<path d="M479.529 532.072C479.045 531.117 479.045 531.117 478.56 530.163C475.12 537.793 465.299 562.1 473.044 571.293C478.062 577.249 487.777 570.34 486.701 561.323C485.015 547.196 484.636 544.257 479.529 532.072Z" fill="#50d5ee" fill-rule="nonzero" opacity="1" stroke="#50d5ee" stroke-linecap="round" stroke-linejoin="round" stroke-width="3.15338"/>
<path d="M389.191 462.775C389.464 461.852 389.464 461.852 389.738 460.93C391.683 468.304 397.234 491.797 392.856 500.683C390.02 506.44 384.528 499.762 385.136 491.047C386.089 477.393 386.304 474.552 389.191 462.775Z" fill="#50d5ee" fill-rule="nonzero" opacity="1" stroke="#50d5ee" stroke-linecap="round" stroke-linejoin="round" stroke-width="3.15338"/>
<path d="M468.924 450.373C469.238 449.478 469.238 449.478 469.552 448.582C471.785 455.743 478.159 478.555 473.132 487.183C469.876 492.774 463.57 486.289 464.268 477.826C465.363 464.568 465.609 461.81 468.924 450.373Z" fill="#50d5ee" fill-rule="nonzero" opacity="1" stroke="#50d5ee" stroke-linecap="round" stroke-linejoin="round" stroke-width="3.15338"/>
<path d="M439.605 442.127C439.984 441.406 439.984 441.406 440.363 440.685C443.055 446.45 450.739 464.811 444.679 471.756C440.753 476.255 433.151 471.036 433.993 464.224C435.312 453.553 435.61 451.333 439.605 442.127Z" fill="#50d5ee" fill-rule="nonzero" opacity="1" stroke="#50d5ee" stroke-linecap="round" stroke-linejoin="round" stroke-width="3.15338"/>
<path d="M423.162 417.4C423.406 416.41 423.406 416.41 423.649 415.421C425.382 423.332 430.329 448.534 426.428 458.066C423.9 464.242 419.007 457.078 419.549 447.729C420.398 433.082 420.59 430.035 423.162 417.4Z" fill="#50d5ee" fill-rule="nonzero" opacity="1" stroke="#50d5ee" stroke-linecap="round" stroke-linejoin="round" stroke-width="3.15338"/>
<path d="M494.639 280.009C494.924 279.269 494.924 279.269 495.21 278.528C496.607 284.655 500.486 304.142 496.183 311.192C493.396 315.76 488.808 310.027 489.745 302.93C491.213 291.811 491.533 289.499 494.639 280.009Z" fill="#50d5ee" fill-rule="nonzero" opacity="1" stroke="#50d5ee" stroke-linecap="round" stroke-linejoin="round" stroke-width="3.15338"/>
<path d="M380.918 452.529C381.267 452.081 381.267 452.081 381.616 451.633C384.093 455.212 391.167 466.614 385.589 470.926C381.974 473.72 374.977 470.479 375.752 466.25C376.966 459.623 377.24 458.244 380.918 452.529Z" fill="#50d5ee" fill-rule="nonzero" opacity="1" stroke="#50d5ee" stroke-linecap="round" stroke-linejoin="round" stroke-width="3.15338"/>
<path d="M427.042 239.669C427.042 239.669 420.308 254.95 422.83 260.623C425.509 266.647 429.295 264.301 430.175 258.999C431.853 248.879 427.042 239.669 427.042 239.669Z" fill="#50d5ee" fill-rule="nonzero" opacity="1" stroke="#50d5ee" stroke-linecap="round" stroke-linejoin="round" stroke-width="2.19166"/>
</g>
</svg>
