<?xml version="1.0" encoding="UTF-8" standalone="no"?>
<!DOCTYPE svg PUBLIC "-//W3C//DTD SVG 1.1//EN" "http://www.w3.org/Graphics/SVG/1.1/DTD/svg11.dtd">
<!-- Created with Vectornator (http://vectornator.io/) -->
<svg height="100%" stroke-miterlimit="10" style="fill-rule:nonzero;clip-rule:evenodd;stroke-linecap:round;stroke-linejoin:round;" version="1.1" viewBox="0 0 844 390" width="100%" xml:space="preserve" xmlns="http://www.w3.org/2000/svg" xmlns:vectornator="http://vectornator.io" xmlns:xlink="http://www.w3.org/1999/xlink">
<defs/>
<clipPath id="ArtboardFrame">
<rect height="390" width="844" x="0" y="0"/>
</clipPath>
<g clip-path="url(#ArtboardFrame)" id="Layer-8" vectornator:layerName="Layer 8" visibility="hidden">
<path d="M342.212 10.3348L340.03 233.426" fill="none" opacity="1" stroke="#3977ee" stroke-linecap="butt" stroke-linejoin="round" stroke-width="3.15338"/>
<path d="M33.4472 1.69804L31.2654 224.789" fill="none" opacity="1" stroke="#3977ee" stroke-linecap="butt" stroke-linejoin="round" stroke-width="3.15338"/>
<path d="M649.897 35.1656L647.715 258.256" fill="none" opacity="1" stroke="#3977ee" stroke-linecap="butt" stroke-linejoin="round" stroke-width="3.15338"/>
<path d="M361.576 147.244L359.394 370.335" fill="none" opacity="1" stroke="#3977ee" stroke-linecap="butt" stroke-linejoin="round" stroke-width="3.15338"/>
<path d="M52.8109 138.607L50.629 361.698" fill="none" opacity="1" stroke="#3977ee" stroke-linecap="butt" stroke-linejoin="round" stroke-width="3.15338"/>
<path d="M669.261 172.075L667.079 395.166" fill="none" opacity="1" stroke="#3977ee" stroke-linecap="butt" stroke-linejoin="round" stroke-width="3.15338"/>
<path d="M383.121 64.3348L380.939 287.426" fill="none" opacity="1" stroke="#3977ee" stroke-linecap="butt" stroke-linejoin="round" stroke-width="3.15338"/>
<path d="M74.3563 55.698L72.1745 278.789" fill="none" opacity="1" stroke="#3977ee" stroke-linecap="butt" stroke-linejoin="round" stroke-width="3.15338"/>
<path d="M690.806 89.1656L688.624 312.256" fill="none" opacity="1" stroke="#3977ee" stroke-linecap="butt" stroke-linejoin="round" stroke-width="3.15338"/>
<path d="M380.939 373.93L378.757 597.021" fill="none" opacity="1" stroke="#3977ee" stroke-linecap="butt" stroke-linejoin="round" stroke-width="3.15338"/>
<path d="M72.1745 365.293L69.9927 588.384" fill="none" opacity="1" stroke="#3977ee" stroke-linecap="butt" stroke-linejoin="round" stroke-width="3.15338"/>
<path d="M688.624 398.761L686.443 621.852" fill="none" opacity="1" stroke="#3977ee" stroke-linecap="butt" stroke-linejoin="round" stroke-width="3.15338"/>
<path d="M418.03 238.93L415.848 462.021" fill="none" opacity="1" stroke="#3977ee" stroke-linecap="butt" stroke-linejoin="round" stroke-width="3.15338"/>
<path d="M109.265 230.293L107.084 453.384" fill="none" opacity="1" stroke="#3977ee" stroke-linecap="butt" stroke-linejoin="round" stroke-width="3.15338"/>
<path d="M725.715 263.761L723.533 486.852" fill="none" opacity="1" stroke="#3977ee" stroke-linecap="butt" stroke-linejoin="round" stroke-width="3.15338"/>
<path d="M474.212 265.384L472.03 488.475" fill="none" opacity="1" stroke="#3977ee" stroke-linecap="butt" stroke-linejoin="round" stroke-width="3.15338"/>
<path d="M165.447 256.748L163.265 479.839" fill="none" opacity="1" stroke="#3977ee" stroke-linecap="butt" stroke-linejoin="round" stroke-width="3.15338"/>
<path d="M781.897 290.215L779.715 513.306" fill="none" opacity="1" stroke="#3977ee" stroke-linecap="butt" stroke-linejoin="round" stroke-width="3.15338"/>
<path d="M501.212 333.839L499.03 556.93" fill="none" opacity="1" stroke="#3977ee" stroke-linecap="butt" stroke-linejoin="round" stroke-width="3.15338"/>
<path d="M192.447 325.202L190.265 548.293" fill="none" opacity="1" stroke="#3977ee" stroke-linecap="butt" stroke-linejoin="round" stroke-width="3.15338"/>
<path d="M808.897 358.67L806.715 581.761" fill="none" opacity="1" stroke="#3977ee" stroke-linecap="butt" stroke-linejoin="round" stroke-width="3.15338"/>
<path d="M568.576 242.475L566.394 465.566" fill="none" opacity="1" stroke="#3977ee" stroke-linecap="butt" stroke-linejoin="round" stroke-width="3.15338"/>
<path d="M259.811 233.839L257.629 456.929" fill="none" opacity="1" stroke="#3977ee" stroke-linecap="butt" stroke-linejoin="round" stroke-width="3.15338"/>
<path d="M876.261 267.306L874.079 490.397" fill="none" opacity="1" stroke="#3977ee" stroke-linecap="butt" stroke-linejoin="round" stroke-width="3.15338"/>
<path d="M594.212 357.566L592.03 580.657" fill="none" opacity="1" stroke="#3977ee" stroke-linecap="butt" stroke-linejoin="round" stroke-width="3.15338"/>
<path d="M285.447 348.929L283.265 572.02" fill="none" opacity="1" stroke="#3977ee" stroke-linecap="butt" stroke-linejoin="round" stroke-width="3.15338"/>
<path d="M901.897 382.397L899.715 605.488" fill="none" opacity="1" stroke="#3977ee" stroke-linecap="butt" stroke-linejoin="round" stroke-width="3.15338"/>
<path d="M397.303 211.062L395.121 434.153" fill="none" opacity="1" stroke="#3977ee" stroke-linecap="butt" stroke-linejoin="round" stroke-width="3.15338"/>
<path d="M88.5381 202.425L86.3563 425.516" fill="none" opacity="1" stroke="#3977ee" stroke-linecap="butt" stroke-linejoin="round" stroke-width="3.15338"/>
<path d="M704.988 235.893L702.806 458.984" fill="none" opacity="1" stroke="#3977ee" stroke-linecap="butt" stroke-linejoin="round" stroke-width="3.15338"/>
<path d="M420.485 10.6075L418.303 233.698" fill="none" opacity="1" stroke="#3977ee" stroke-linecap="butt" stroke-linejoin="round" stroke-width="3.15338"/>
<path d="M111.72 1.97077L109.538 225.062" fill="none" opacity="1" stroke="#3977ee" stroke-linecap="butt" stroke-linejoin="round" stroke-width="3.15338"/>
<path d="M728.17 35.4383L725.988 258.529" fill="none" opacity="1" stroke="#3977ee" stroke-linecap="butt" stroke-linejoin="round" stroke-width="3.15338"/>
<path d="M443.667 192.789L441.485 415.88" fill="none" opacity="1" stroke="#3977ee" stroke-linecap="butt" stroke-linejoin="round" stroke-width="3.15338"/>
<path d="M134.902 184.153L132.72 407.243" fill="none" opacity="1" stroke="#3977ee" stroke-linecap="butt" stroke-linejoin="round" stroke-width="3.15338"/>
<path d="M751.352 217.62L749.17 440.711" fill="none" opacity="1" stroke="#3977ee" stroke-linecap="butt" stroke-linejoin="round" stroke-width="3.15338"/>
<path d="M476.394 3.51664L474.212 226.608" fill="none" opacity="1" stroke="#3977ee" stroke-linecap="butt" stroke-linejoin="round" stroke-width="3.15338"/>
<path d="M167.629-5.12014L165.447 217.971" fill="none" opacity="1" stroke="#3977ee" stroke-linecap="butt" stroke-linejoin="round" stroke-width="3.15338"/>
<path d="M784.079 28.3474L781.897 251.438" fill="none" opacity="1" stroke="#3977ee" stroke-linecap="butt" stroke-linejoin="round" stroke-width="3.15338"/>
<path d="M445.684-47.2715L443.502 175.819" fill="none" opacity="1" stroke="#3977ee" stroke-linecap="butt" stroke-linejoin="round" stroke-width="3.15338"/>
<path d="M136.919-55.9082L134.737 167.183" fill="none" opacity="1" stroke="#3977ee" stroke-linecap="butt" stroke-linejoin="round" stroke-width="3.15338"/>
<path d="M753.369-22.4407L751.187 200.65" fill="none" opacity="1" stroke="#3977ee" stroke-linecap="butt" stroke-linejoin="round" stroke-width="3.15338"/>
<path d="M543.439-133.634L541.257 89.4571" fill="none" opacity="1" stroke="#3977ee" stroke-linecap="butt" stroke-linejoin="round" stroke-width="3.15338"/>
<path d="M234.674-142.271L232.492 80.8204" fill="none" opacity="1" stroke="#3977ee" stroke-linecap="butt" stroke-linejoin="round" stroke-width="3.15338"/>
<path d="M851.124-108.803L848.942 114.288" fill="none" opacity="1" stroke="#3977ee" stroke-linecap="butt" stroke-linejoin="round" stroke-width="3.15338"/>
<path d="M509.081-214.61L506.899 8.48087" fill="none" opacity="1" stroke="#3977ee" stroke-linecap="butt" stroke-linejoin="round" stroke-width="3.15338"/>
<path d="M200.316-223.247L198.134-0.155907" fill="none" opacity="1" stroke="#3977ee" stroke-linecap="butt" stroke-linejoin="round" stroke-width="3.15338"/>
<path d="M816.766-189.779L814.584 33.3116" fill="none" opacity="1" stroke="#3977ee" stroke-linecap="butt" stroke-linejoin="round" stroke-width="3.15338"/>
<path d="M603.188-246.953L601.007-23.8622" fill="none" opacity="1" stroke="#3977ee" stroke-linecap="butt" stroke-linejoin="round" stroke-width="3.15338"/>
<path d="M294.424-255.59L292.242-32.499" fill="none" opacity="1" stroke="#3977ee" stroke-linecap="butt" stroke-linejoin="round" stroke-width="3.15338"/>
<path d="M910.874-222.122L908.692 0.968528" fill="none" opacity="1" stroke="#3977ee" stroke-linecap="butt" stroke-linejoin="round" stroke-width="3.15338"/>
<path d="M398.96-81.7668L396.778 141.324" fill="none" opacity="1" stroke="#3977ee" stroke-linecap="butt" stroke-linejoin="round" stroke-width="3.15338"/>
<path d="M90.1948-90.4036L88.013 132.687" fill="none" opacity="1" stroke="#3977ee" stroke-linecap="butt" stroke-linejoin="round" stroke-width="3.15338"/>
<path d="M706.645-56.9361L704.463 166.155" fill="none" opacity="1" stroke="#3977ee" stroke-linecap="butt" stroke-linejoin="round" stroke-width="3.15338"/>
<path d="M507.316 63.7914L505.134 286.882" fill="none" opacity="1" stroke="#3977ee" stroke-linecap="butt" stroke-linejoin="round" stroke-width="3.15338"/>
<path d="M198.551 55.1547L196.37 278.246" fill="none" opacity="1" stroke="#3977ee" stroke-linecap="butt" stroke-linejoin="round" stroke-width="3.15338"/>
<path d="M815.001 88.6222L812.819 311.713" fill="none" opacity="1" stroke="#3977ee" stroke-linecap="butt" stroke-linejoin="round" stroke-width="3.15338"/>
<path d="M537.757 174.244L535.576 397.335" fill="none" opacity="1" stroke="#3977ee" stroke-linecap="butt" stroke-linejoin="round" stroke-width="3.15338"/>
<path d="M228.993 165.607L226.811 388.698" fill="none" opacity="1" stroke="#3977ee" stroke-linecap="butt" stroke-linejoin="round" stroke-width="3.15338"/>
<path d="M845.443 199.075L843.261 422.166" fill="none" opacity="1" stroke="#3977ee" stroke-linecap="butt" stroke-linejoin="round" stroke-width="3.15338"/>
<path d="M569.667 2.97118L567.485 226.062" fill="none" opacity="1" stroke="#3977ee" stroke-linecap="butt" stroke-linejoin="round" stroke-width="3.15338"/>
<path d="M260.902-5.66559L258.72 217.425" fill="none" opacity="1" stroke="#3977ee" stroke-linecap="butt" stroke-linejoin="round" stroke-width="3.15338"/>
<path d="M877.352 27.8019L875.17 250.893" fill="none" opacity="1" stroke="#3977ee" stroke-linecap="butt" stroke-linejoin="round" stroke-width="3.15338"/>
<path d="M597.212 83.9712L595.03 307.062" fill="none" opacity="1" stroke="#3977ee" stroke-linecap="butt" stroke-linejoin="round" stroke-width="3.15338"/>
<path d="M288.447 75.3344L286.265 298.425" fill="none" opacity="1" stroke="#3977ee" stroke-linecap="butt" stroke-linejoin="round" stroke-width="3.15338"/>
<path d="M904.897 108.802L902.715 331.893" fill="none" opacity="1" stroke="#3977ee" stroke-linecap="butt" stroke-linejoin="round" stroke-width="3.15338"/>
<path d="M315.757 155.698L313.576 378.789" fill="none" opacity="1" stroke="#3977ee" stroke-linecap="butt" stroke-linejoin="round" stroke-width="3.15338"/>
<path d="M6.99269 147.062L4.81087 370.153" fill="none" opacity="1" stroke="#3977ee" stroke-linecap="butt" stroke-linejoin="round" stroke-width="3.15338"/>
<path d="M623.443 180.529L621.261 403.62" fill="none" opacity="1" stroke="#3977ee" stroke-linecap="butt" stroke-linejoin="round" stroke-width="3.15338"/>
<path d="M321.212-148.715L319.03 74.3761" fill="none" opacity="1" stroke="#3977ee" stroke-linecap="butt" stroke-linejoin="round" stroke-width="3.15338"/>
<path d="M12.4472-157.352L10.2654 65.7394" fill="none" opacity="1" stroke="#3977ee" stroke-linecap="butt" stroke-linejoin="round" stroke-width="3.15338"/>
<path d="M628.897-123.884L626.715 99.2069" fill="none" opacity="1" stroke="#3977ee" stroke-linecap="butt" stroke-linejoin="round" stroke-width="3.15338"/>
<path d="M363.212-80.2602L361.03 142.831" fill="none" opacity="1" stroke="#3977ee" stroke-linecap="butt" stroke-linejoin="round" stroke-width="3.15338"/>
<path d="M54.4472-88.897L52.2654 134.194" fill="none" opacity="1" stroke="#3977ee" stroke-linecap="butt" stroke-linejoin="round" stroke-width="3.15338"/>
<path d="M670.897-55.4295L668.715 167.661" fill="none" opacity="1" stroke="#3977ee" stroke-linecap="butt" stroke-linejoin="round" stroke-width="3.15338"/>
<path d="M385.848-212.26L383.667 10.8307" fill="none" opacity="1" stroke="#3977ee" stroke-linecap="butt" stroke-linejoin="round" stroke-width="3.15338"/>
<path d="M77.0836-220.897L74.9018 2.19391" fill="none" opacity="1" stroke="#3977ee" stroke-linecap="butt" stroke-linejoin="round" stroke-width="3.15338"/>
<path d="M693.533-187.429L691.352 35.6614" fill="none" opacity="1" stroke="#3977ee" stroke-linecap="butt" stroke-linejoin="round" stroke-width="3.15338"/>
<path d="M340.848 248.153L338.667 471.244" fill="none" opacity="1" stroke="#3977ee" stroke-linecap="butt" stroke-linejoin="round" stroke-width="3.15338"/>
<path d="M32.0836 239.516L29.9018 462.607" fill="none" opacity="1" stroke="#3977ee" stroke-linecap="butt" stroke-linejoin="round" stroke-width="3.15338"/>
<path d="M648.533 272.984L646.352 496.075" fill="none" opacity="1" stroke="#3977ee" stroke-linecap="butt" stroke-linejoin="round" stroke-width="3.15338"/>
</g>
<g clip-path="url(#ArtboardFrame)" id="Layer-9" vectornator:layerName="Layer 9">
<path d="M332.41 279.956C333.121 278.535 332.534 283.41 332.41 284.281C331.849 288.208 331.792 292.363 331.792 296.329C331.792 306.99 329.717 336.583 329.717 347.071" fill="#50d5ee" fill-rule="nonzero" opacity="1" stroke="#3977ee" stroke-linecap="round" stroke-linejoin="round" stroke-width="3.15338"/>
<path d="M329.984 367.689C328.786 370.084 329.939 382.266 329.939 394.57" fill="#50d5ee" fill-rule="nonzero" opacity="1" stroke="#3977ee" stroke-linecap="round" stroke-linejoin="round" stroke-width="3.15338"/>
<path d="M350.019 299.728C350.019 309.011 352.094 318.612 351.255 327.84" fill="#50d5ee" fill-rule="nonzero" opacity="1" stroke="#3977ee" stroke-linecap="round" stroke-linejoin="round" stroke-width="3.15338"/>
<path d="M369.482 286.135C369.482 292.883 369.181 299.814 369.791 306.524C370.113 310.071 370.854 314.085 370.408 317.646C368.928 329.487 369.173 324.98 369.173 336.992" fill="#50d5ee" fill-rule="nonzero" opacity="1" stroke="#3977ee" stroke-linecap="round" stroke-linejoin="round" stroke-width="3.15338"/>
<path d="M367.847 347.166C366.945 349.87 368.864 386.865 368.864 390.245C368.864 391.452 368.246 396.687 368.246 395.805" fill="#50d5ee" fill-rule="nonzero" opacity="1" stroke="#3977ee" stroke-linecap="round" stroke-linejoin="round" stroke-width="3.15338"/>
<path d="M350.725 347.198C349.571 350.66 351.255 390.69 351.255 394.261" fill="#50d5ee" fill-rule="nonzero" opacity="1" stroke="#3977ee" stroke-linecap="round" stroke-linejoin="round" stroke-width="3.15338"/>
<path d="M390.931 346.33C391.718 348.69 391.338 370.315 391.725 372.635C392.214 375.571 391.317 379.038 392.034 381.903C392.931 385.493 393.269 389.873 393.269 393.643" fill="#50d5ee" fill-rule="nonzero" opacity="1" stroke="#3977ee" stroke-linecap="round" stroke-linejoin="round" stroke-width="3.15338"/>
<path d="M411.805 285.517C409.985 289.158 412.114 295.439 412.114 299.419C412.114 310.896 412.114 322.429 412.114 333.71" fill="#50d5ee" fill-rule="nonzero" opacity="1" stroke="#3977ee" stroke-linecap="round" stroke-linejoin="round" stroke-width="3.15338"/>
<path d="M440.536 285.517C440.536 290.78 439.886 296.383 440.536 301.581C440.812 303.794 441.219 306.442 440.845 308.687C439.884 314.452 441.562 321.882 440.227 327.223" fill="#50d5ee" fill-rule="nonzero" opacity="1" stroke="#3977ee" stroke-linecap="round" stroke-linejoin="round" stroke-width="3.15338"/>
<path d="M415.688 344.188C415.688 347.242 416.554 365.292 417.057 368.31C418.211 375.235 416.439 382.924 416.439 389.936" fill="#50d5ee" fill-rule="nonzero" opacity="1" stroke="#3977ee" stroke-linecap="round" stroke-linejoin="round" stroke-width="3.15338"/>
<path d="M395.432 286.444C395.432 284.137 394.814 290.1 394.814 291.078C394.814 293.634 393.98 296.298 394.814 298.801" fill="#50d5ee" fill-rule="nonzero" opacity="1" stroke="#3977ee" stroke-linecap="round" stroke-linejoin="round" stroke-width="3.15338"/>
<path d="M441.327 341.843C439.955 344.588 443.316 394.269 443.316 397.35" fill="#50d5ee" fill-rule="nonzero" opacity="1" stroke="#3977ee" stroke-linecap="round" stroke-linejoin="round" stroke-width="3.15338"/>
<path d="M465.559 280.883C465.559 284.61 466.525 291.23 465.559 295.094C465.12 296.851 464.633 299.141 464.633 300.963" fill="#50d5ee" fill-rule="nonzero" opacity="1" stroke="#3977ee" stroke-linecap="round" stroke-linejoin="round" stroke-width="3.15338"/>
<path d="M465.605 338.767C465.605 344 465.816 355.022 467.104 362.75C467.578 365.595 466.717 368.617 467.413 371.4C468.827 377.055 466.83 384.552 468.031 390.553C468.23 391.552 467.858 392.371 468.34 393.334" fill="#50d5ee" fill-rule="nonzero" opacity="1" stroke="#3977ee" stroke-linecap="round" stroke-linejoin="round" stroke-width="3.15338"/>
<path d="M490.583 277.485C489.707 279.235 490.583 282.51 490.583 284.281C490.583 290.666 490.583 297.05 490.583 303.435C490.583 313.527 490.583 323.618 490.583 333.71C490.583 338.051 489.732 343.358 490.583 347.612C492.208 355.736 492.127 364.142 492.127 372.635" fill="#50d5ee" fill-rule="nonzero" opacity="1" stroke="#3977ee" stroke-linecap="round" stroke-linejoin="round" stroke-width="3.15338"/>
<path d="M493.363 388.391C493.252 387.615 493.138 386.579 492.436 386.228C491.967 385.994 492.053 387.253 492.127 387.773C492.266 388.74 492.18 390.117 493.054 390.553C493.705 390.879 493.466 389.112 493.363 388.391Z" fill="#50d5ee" fill-rule="nonzero" opacity="1" stroke="#3977ee" stroke-linecap="round" stroke-linejoin="round" stroke-width="3.15338"/>
<path d="M520.549 272.233C520.549 276.756 520.402 281.885 520.858 286.444C521.186 289.72 521.955 293.284 521.476 296.638C520.981 300.102 522.315 304.805 522.315 309.768" fill="#50d5ee" fill-rule="nonzero" opacity="1" stroke="#3977ee" stroke-linecap="round" stroke-linejoin="round" stroke-width="3.15338"/>
<path d="M522.887 327.138C522.555 326.972 522.34 350.083 522.712 350.083C523.558 350.083 523.269 353.118 523.329 353.482C523.944 357.166 523.947 360.818 523.947 364.603C523.947 374.367 524.565 383.977 524.565 393.643" fill="#50d5ee" fill-rule="nonzero" opacity="1" stroke="#3977ee" stroke-linecap="round" stroke-linejoin="round" stroke-width="3.15338"/>
<path d="M548.353 265.436C548.353 272.095 549.986 280.131 548.662 286.753C547 295.061 544.933 303.279 543.719 311.776C543.07 316.32 544.028 321.126 544.028 325.678C544.028 328.909 544.559 332.685 544.028 335.873C543.494 339.074 542.752 343.396 543.41 346.685C544.233 350.8 544.337 355.744 544.337 359.969" fill="#50d5ee" fill-rule="nonzero" opacity="1" stroke="#3977ee" stroke-linecap="round" stroke-linejoin="round" stroke-width="3.15338"/>
<path d="M543.41 380.977C543.41 387.54 542.792 393.917 542.792 400.439" fill="#50d5ee" fill-rule="nonzero" opacity="1" stroke="#3977ee" stroke-linecap="round" stroke-linejoin="round" stroke-width="3.15338"/>
<path d="M575.23 252.461C576.572 255.145 574.921 260.892 574.921 264.201C574.921 272.419 573.994 280.685 573.994 288.915C573.994 291.626 574.488 299.049 573.376 301.272" fill="#50d5ee" fill-rule="nonzero" opacity="1" stroke="#3977ee" stroke-linecap="round" stroke-linejoin="round" stroke-width="3.15338"/>
<path d="M573.376 315.792C572.846 316.322 571.951 329.098 571.523 331.239C571.066 333.523 570.054 335.728 569.669 338.035C569.303 340.231 570.105 342.65 569.669 344.832C568.563 350.364 569.051 356.413 569.051 362.132C569.051 369.828 567.646 378.245 568.742 385.919C569.071 388.222 569.36 390.381 569.36 392.716" fill="#50d5ee" fill-rule="nonzero" opacity="1" stroke="#3977ee" stroke-linecap="round" stroke-linejoin="round" stroke-width="3.15338"/>
</g>
<g clip-path="url(#ArtboardFrame)" id="Layer-2" vectornator:layerName="Layer 2" visibility="hidden">
<path d="M323.578 617.377C324.289 615.956 321.341 660.785 321.216 661.656C320.655 665.583 320.598 669.738 320.598 673.705C320.598 684.365 318.745 694.728 318.745 705.216" fill="none" opacity="1" stroke="#ee3939" stroke-linecap="round" stroke-linejoin="round" stroke-width="3.15338"/>
<path d="M318.127 720.971C316.93 723.366 318.035 726.327 318.127 729.003C318.198 731.072 318.436 733.108 318.436 735.182C318.436 747.548 318.745 759.641 318.745 771.945" fill="none" opacity="1" stroke="#ee3939" stroke-linecap="round" stroke-linejoin="round" stroke-width="3.15338"/>
<path d="M338.825 677.103C338.825 686.386 340.9 695.987 340.061 705.216C339.375 712.767 337.553 719.827 338.825 727.459C339.513 731.583 337.251 737.902 339.134 741.669" fill="none" opacity="1" stroke="#ee3939" stroke-linecap="round" stroke-linejoin="round" stroke-width="3.15338"/>
<path d="M358.447 648.438C358.447 655.186 357.987 677.189 358.597 683.899C358.919 687.446 359.66 691.46 359.215 695.021C357.735 706.862 357.979 719.154 357.979 731.166" fill="none" opacity="1" stroke="#ee3939" stroke-linecap="round" stroke-linejoin="round" stroke-width="3.15338"/>
<path d="M357.979 753.718C357.078 756.422 357.67 764.241 357.67 767.62C357.67 768.827 357.052 774.062 357.052 773.18" fill="none" opacity="1" stroke="#ee3939" stroke-linecap="round" stroke-linejoin="round" stroke-width="3.15338"/>
<path d="M339.752 760.823C338.598 764.285 340.061 768.065 340.061 771.636" fill="none" opacity="1" stroke="#ee3939" stroke-linecap="round" stroke-linejoin="round" stroke-width="3.15338"/>
<path d="M379.295 698.728C380.082 701.088 379.4 703.688 379.604 706.142C379.936 710.126 379.729 714.246 380.222 718.191C381.217 726.148 380.531 734.555 380.531 742.596C380.531 744.947 380.144 747.69 380.531 750.011C381.02 752.946 380.124 756.413 380.84 759.278C381.737 762.868 382.076 767.248 382.076 771.018" fill="none" opacity="1" stroke="#ee3939" stroke-linecap="round" stroke-linejoin="round" stroke-width="3.15338"/>
<path d="M401.13 628.728C399.309 632.369 400.921 672.814 400.921 676.794C400.921 688.271 400.921 699.804 400.921 711.085" fill="none" opacity="1" stroke="#ee3939" stroke-linecap="round" stroke-linejoin="round" stroke-width="3.15338"/>
<path d="M429.342 662.892C429.342 668.155 428.692 673.758 429.342 678.956C429.619 681.169 430.025 683.817 429.651 686.062C428.69 691.827 430.369 699.257 429.033 704.598C427.562 710.482 428.415 715.758 428.415 721.898C428.415 728.342 427.798 734.583 427.798 741.052" fill="none" opacity="1" stroke="#ee3939" stroke-linecap="round" stroke-linejoin="round" stroke-width="3.15338"/>
<path d="M404.937 737.035C404.937 740.09 405.36 742.667 405.863 745.685C407.017 752.61 405.246 760.3 405.246 767.311" fill="none" opacity="1" stroke="#ee3939" stroke-linecap="round" stroke-linejoin="round" stroke-width="3.15338"/>
<path d="M386.045 570.618C386.045 568.311 383.62 667.475 383.62 668.453C383.62 671.009 382.786 673.673 383.62 676.176" fill="none" opacity="1" stroke="#ee3939" stroke-linecap="round" stroke-linejoin="round" stroke-width="3.15338"/>
<path d="M432.123 764.53C430.75 767.275 432.123 771.644 432.123 774.725" fill="none" opacity="1" stroke="#ee3939" stroke-linecap="round" stroke-linejoin="round" stroke-width="3.15338"/>
<path d="M454.989 576.63C454.989 580.357 455.332 668.605 454.366 672.469C453.926 674.226 453.439 676.516 453.439 678.338" fill="none" opacity="1" stroke="#ee3939" stroke-linecap="round" stroke-linejoin="round" stroke-width="3.15338"/>
<path d="M453.748 700.89C453.748 706.124 455.292 711.215 455.292 716.646C455.292 724.601 454.622 732.397 455.91 740.125C456.385 742.97 455.524 745.992 456.219 748.775C457.633 754.43 455.637 761.927 456.837 767.929C457.037 768.927 456.665 769.746 457.146 770.709" fill="none" opacity="1" stroke="#ee3939" stroke-linecap="round" stroke-linejoin="round" stroke-width="3.15338"/>
<path d="M479.389 654.86C478.514 656.61 479.389 659.885 479.389 661.656C479.389 668.041 479.389 674.425 479.389 680.81C479.389 690.902 479.389 700.993 479.389 711.085C479.389 715.427 478.538 720.733 479.389 724.987C481.014 733.111 480.934 741.517 480.934 750.011" fill="none" opacity="1" stroke="#ee3939" stroke-linecap="round" stroke-linejoin="round" stroke-width="3.15338"/>
<path d="M482.169 765.766C482.059 764.99 481.944 763.954 481.243 763.604C480.773 763.369 480.859 764.628 480.934 765.148C481.072 766.115 480.987 767.492 481.861 767.929C482.512 768.254 482.272 766.487 482.169 765.766Z" fill="none" opacity="1" stroke="#ee3939" stroke-linecap="round" stroke-linejoin="round" stroke-width="3.15338"/>
<path d="M510.009 604.605C510.009 609.128 509.208 659.261 509.664 663.819C509.992 667.095 510.761 670.659 510.282 674.013C509.787 677.477 508.791 682.568 509.664 686.062C510.82 690.686 510.9 695 510.9 699.964" fill="none" opacity="1" stroke="#ee3939" stroke-linecap="round" stroke-linejoin="round" stroke-width="3.15338"/>
<path d="M512.136 728.385C511.804 728.219 511.147 727.459 511.518 727.459C512.364 727.459 512.075 730.493 512.136 730.857C512.75 734.541 512.754 738.193 512.754 741.978C512.754 751.742 513.371 761.352 513.371 771.018" fill="none" opacity="1" stroke="#ee3939" stroke-linecap="round" stroke-linejoin="round" stroke-width="3.15338"/>
<path d="M537.159 642.811C537.159 649.47 538.792 657.506 537.468 664.128C535.806 672.436 533.739 680.654 532.525 689.151C531.876 693.695 532.834 698.502 532.834 703.053C532.834 706.284 533.365 710.06 532.834 713.248C532.301 716.449 531.559 720.771 532.216 724.06C533.039 728.175 533.143 733.119 533.143 737.344" fill="none" opacity="1" stroke="#ee3939" stroke-linecap="round" stroke-linejoin="round" stroke-width="3.15338"/>
<path d="M532.216 758.352C532.216 764.915 531.598 771.292 531.598 777.814" fill="none" opacity="1" stroke="#ee3939" stroke-linecap="round" stroke-linejoin="round" stroke-width="3.15338"/>
<path d="M564.97 568.674C566.312 571.358 563.727 638.267 563.727 641.576C563.727 649.794 562.8 658.06 562.8 666.29C562.8 669.001 563.294 676.424 562.183 678.647" fill="none" opacity="1" stroke="#ee3939" stroke-linecap="round" stroke-linejoin="round" stroke-width="3.15338"/>
<path d="M562.183 693.167C561.652 693.697 560.757 706.474 560.329 708.614C559.872 710.898 558.86 713.103 558.475 715.41C558.109 717.607 558.912 720.025 558.475 722.207C557.369 727.739 557.858 733.788 557.858 739.507C557.858 747.204 556.452 755.62 557.549 763.295C557.878 765.597 558.167 767.756 558.167 770.091" fill="none" opacity="1" stroke="#ee3939" stroke-linecap="round" stroke-linejoin="round" stroke-width="3.15338"/>
<path d="M347.099 527.522C346.192 529.608 343.12 607.827 342.915 610.144C342.412 615.824 341.333 621.381 340.835 627.004" fill="#50d5ee" fill-rule="nonzero" opacity="1" stroke="#ee3939" stroke-linecap="round" stroke-linejoin="round" stroke-width="3.15338"/>
<path d="M363.053 549.377C363.828 552.635 360.682 610.304 361.033 613.511C361.792 620.436 360.274 628.733 359.655 635.724" fill="#50d5ee" fill-rule="nonzero" opacity="1" stroke="#ee3939" stroke-linecap="round" stroke-linejoin="round" stroke-width="3.15338"/>
<path d="M431.649 551.289C431.03 558.281 428.393 618.662 428.927 625.595C429.08 627.591 428.433 629.629 428.588 631.638C428.694 633.022 427.993 634.547 428.209 635.915C428.555 638.107 429.146 640.253 429.391 642.485C429.521 643.67 429.2 645.333 429.63 646.424" fill="#50d5ee" fill-rule="nonzero" opacity="1" stroke="#ee3939" stroke-linecap="round" stroke-linejoin="round" stroke-width="3.15338"/>
<path d="M541.12 515.184C539.767 518.297 537.657 590.228 537.354 593.659C536.487 603.448 536.602 613.216 535.744 622.904" fill="#50d5ee" fill-rule="nonzero" opacity="1" stroke="#ee3939" stroke-linecap="round" stroke-linejoin="round" stroke-width="3.15338"/>
<path d="M329.235 508.821C328.487 510.316 328.035 541.614 328.113 543.158C328.273 546.37 328.039 549.788 327.72 552.983C327.407 556.109 327.835 559.295 327.523 562.415C327.202 565.625 326.899 569 327.13 572.24C327.316 574.838 327.959 577.678 327.523 580.296C326.71 585.174 325.755 590.039 325.755 595.033" fill="#50d5ee" fill-rule="nonzero" opacity="1" stroke="#ee3939" stroke-linecap="round" stroke-linejoin="round" stroke-width="3.15338"/>
<path d="M387.621 452.4C387.049 453.545 385.861 546.061 385.686 547.285C385.34 549.705 383.68 552.114 384.9 554.555" fill="#50d5ee" fill-rule="nonzero" opacity="1" stroke="#ee3939" stroke-linecap="round" stroke-linejoin="round" stroke-width="3.15338"/>
<path d="M409.069 541.783C409.069 541.521 408.026 524.754 408.144 524.52C408.209 524.389 409.257 541.244 409.266 541.39C409.323 542.305 409.266 543.224 409.266 544.141C409.266 545.516 409.266 546.892 409.266 548.267C409.266 552.672 409.069 557.037 409.069 561.432C409.069 574.241 405.336 586.306 405.336 598.963" fill="#50d5ee" fill-rule="nonzero" opacity="1" stroke="#ee3939" stroke-linecap="round" stroke-linejoin="round" stroke-width="3.15338"/>
<path d="M515.585 459.564C514.639 461.457 512.332 535.216 512.23 537.263C511.954 542.78 510.855 548.273 510.855 553.769" fill="#50d5ee" fill-rule="nonzero" opacity="1" stroke="#ee3939" stroke-linecap="round" stroke-linejoin="round" stroke-width="3.15338"/>
<path d="M459.142 455.219C459.142 457.053 458.586 541.717 458.586 543.551" fill="#50d5ee" fill-rule="nonzero" opacity="1" stroke="#ee3939" stroke-linecap="round" stroke-linejoin="round" stroke-width="3.15338"/>
<path d="M568.271 424.644C569.048 426.199 565.143 509.864 565.874 511.326" fill="#50d5ee" fill-rule="nonzero" opacity="1" stroke="#ee3939" stroke-linecap="round" stroke-linejoin="round" stroke-width="3.15338"/>
<path d="M543.241 404.761C544.606 407.491 542.079 459.396 541.661 462.323C541.212 465.464 541.846 468.845 541.846 471.949C541.846 477.633 541.476 483.158 541.476 488.796" fill="none" opacity="1" stroke="#ee3939" stroke-linecap="round" stroke-linejoin="round" stroke-width="3.15338"/>
<path d="M436.741 432.273C436.741 437.486 437.166 485.87 436.136 491.018C434.635 498.524 434.997 506.559 433.73 514.159C433.458 515.789 434.412 517.414 434.1 518.973C432.934 524.802 432.989 531.057 432.989 537.115" fill="none" opacity="1" stroke="#ee3939" stroke-linecap="round" stroke-linejoin="round" stroke-width="3.15338"/>
<path d="M366.207 437.939C366.207 441.803 367.125 484.186 366.157 488.056C365.076 492.381 366.099 497.05 365.231 501.385C363.576 509.66 363.75 517.82 363.75 526.378" fill="none" opacity="1" stroke="#ee3939" stroke-linecap="round" stroke-linejoin="round" stroke-width="3.15338"/>
<path d="M348.989 409.472C348.989 412.999 347.888 483.467 348.385 486.945C348.691 489.088 348.934 491.978 348.57 494.165C347.829 498.611 347.274 502.498 347.274 507.124" fill="none" opacity="1" stroke="#ee3939" stroke-linecap="round" stroke-linejoin="round" stroke-width="3.15338"/>
<path d="M333.05 371.25C333.727 373.281 331.427 477.253 331.538 479.355C331.708 482.599 332.463 485.589 332.463 488.796" fill="none" opacity="1" stroke="#ee3939" stroke-linecap="round" stroke-linejoin="round" stroke-width="3.15338"/>
<path d="M485.641 404.622C486.555 406.451 484.672 474.198 484.27 476.207C483.873 478.195 484.27 480.661 484.27 482.687C484.27 485.177 483.9 487.485 483.9 489.907" fill="none" opacity="1" stroke="#ee3939" stroke-linecap="round" stroke-linejoin="round" stroke-width="3.15338"/>
<path d="M367.866 347.048C368.091 348.944 365.741 418.639 365.971 420.581" fill="none" opacity="1" stroke="#ee3939" stroke-linecap="round" stroke-linejoin="round" stroke-width="3.15338"/>
<path d="M389.711 347.281C389.129 348.897 389.1 430.356 388.927 431.713C388.736 433.207 388.395 434.536 388.578 436.082" fill="none" opacity="1" stroke="#ee3939" stroke-linecap="round" stroke-linejoin="round" stroke-width="3.15338"/>
<path d="M461.629 340.404C460.911 340.742 459.695 413.653 459.43 414.934C458.753 418.207 459.764 421.77 459.336 425.115C459.166 426.445 459.839 427.687 459.364 429.006" fill="none" opacity="1" stroke="#ee3939" stroke-linecap="round" stroke-linejoin="round" stroke-width="3.15338"/>
<path d="M523.512 327.593C524.577 329.214 521.066 404.656 520.976 406.57C520.736 411.613 520.848 417.018 520.207 422.025C520.004 423.613 519.744 425.425 519.934 427.034" fill="none" opacity="1" stroke="#ee3939" stroke-linecap="round" stroke-linejoin="round" stroke-width="3.15338"/>
<path d="M570.22 306.57C569.927 306.605 568.873 381.482 568.877 381.645C568.964 384.867 569.965 389.68 568.884 392.68" fill="none" opacity="1" stroke="#ee3939" stroke-linecap="round" stroke-linejoin="round" stroke-width="3.15338"/>
<path d="M417.922 344.465C419.202 347.025 418.224 354.302 418.224 357.753C418.224 368.987 419.473 382.313 417.318 393.085C416.923 395.06 417.62 397.207 417.62 399.125C417.62 404.46 417.62 409.795 417.62 415.13C417.62 416.439 417.62 417.747 417.62 419.056C417.62 419.275 417.62 421.17 417.62 421.17C416.727 421.17 417.866 417.336 417.922 416.942C418.195 415.034 417.922 413.325 417.922 411.506" fill="none" opacity="1" stroke="#ee3939" stroke-linecap="round" stroke-linejoin="round" stroke-width="3.15338"/>
<path d="M439.665 342.955C438.863 344.559 440.329 356.121 440.571 358.055C440.919 360.835 440.304 363.511 439.967 366.208C439.53 369.707 439.967 373.55 439.967 377.08C439.967 382.876 439.665 388.316 439.665 393.991" fill="none" opacity="1" stroke="#ee3939" stroke-linecap="round" stroke-linejoin="round" stroke-width="3.15338"/>
<path d="M487.077 337.822C487.077 341.588 487.681 345.198 487.681 348.995C487.681 356.035 487.077 362.963 487.077 369.832" fill="none" opacity="1" stroke="#ee3939" stroke-linecap="round" stroke-linejoin="round" stroke-width="3.15338"/>
<path d="M545.058 320.91C543.905 323.216 545.058 329.281 545.058 332.084C545.058 337.365 545.762 344.876 544.757 349.901C544.398 351.692 543.851 352.735 543.851 354.733" fill="none" opacity="1" stroke="#ee3939" stroke-linecap="round" stroke-linejoin="round" stroke-width="3.15338"/>
<path d="M333.064 344.163C333.064 345.802 332.981 344.779 333.668 347.183" fill="none" opacity="1" stroke="#ee3939" stroke-linecap="round" stroke-linejoin="round" stroke-width="3.15338"/>
<path d="M351.485 347.787C349.54 351.678 350.881 358.221 350.881 362.584C350.881 364.612 350.447 366.436 349.975 368.322C349.505 370.202 350.25 372.437 349.975 374.362C349.276 379.256 349.371 384.155 349.371 389.159" fill="none" opacity="1" stroke="#ee3939" stroke-linecap="round" stroke-linejoin="round" stroke-width="3.15338"/>
</g>
<g id="Layer-1" vectornator:layerName="Layer 1" visibility="hidden">
<path d="M316.037 139.392C316.037 125.215 326.097 115.568 336.426 108.19C340.924 104.978 344.909 102.489 350.637 102.012C354.072 101.725 357.8 103.123 361.141 103.865C365.98 104.941 371.753 104.87 375.969 107.881C384.471 113.954 391.107 128.423 391.107 138.775" fill="none" opacity="1" stroke="#000000" stroke-linecap="round" stroke-linejoin="round" stroke-width="4.66859"/>
<path d="M390.18 134.758C390.908 133.302 393.192 133.359 394.814 133.214C399.127 132.829 403.462 132.762 407.789 132.596C412.078 132.431 416.293 133.833 420.455 134.758C425.246 135.823 430.37 136.402 434.975 138.157C454.097 145.441 473.584 159.178 462.47 181.407" fill="none" opacity="1" stroke="#000000" stroke-linecap="round" stroke-linejoin="round" stroke-width="4.66859"/>
<path d="M422.618 194.073C419.871 194.073 424.831 191.438 425.089 191.293C426.093 190.728 427.131 190.225 428.179 189.748C429.397 189.194 430.636 188.684 431.886 188.204C439.681 185.205 447.023 183.83 455.365 183.57C466.611 183.218 479.451 184.448 489.038 190.984C495.893 195.658 500.939 202.882 507.883 207.048" fill="none" opacity="1" stroke="#000000" stroke-linecap="round" stroke-linejoin="round" stroke-width="4.66859"/>
<path d="M269.388 177.7C264.217 176.407 268.904 170.188 270.006 167.814C272.186 163.119 277.089 158.486 281.127 155.457C295.756 144.486 309.614 140.616 327.776 140.01C333.398 139.823 339.31 139.599 344.458 142.173" fill="none" opacity="1" stroke="#000000" stroke-linecap="round" stroke-linejoin="round" stroke-width="4.66859"/>
<path d="M289.777 178.936C286.829 173.038 272.924 179.171 268.77 181.407C255.441 188.584 252.122 204.641 249.616 218.17C249.042 221.273 247.529 226.861 249.307 229.909C251.312 233.345 257.059 233.673 260.429 234.234" fill="none" opacity="1" stroke="#000000" stroke-linecap="round" stroke-linejoin="round" stroke-width="4.66859"/>
<path d="M288.542 216.007C286.382 211.688 278.528 223.244 277.42 225.275C274.569 230.503 275.228 235.966 274.331 241.649C273.544 246.634 271.81 252.848 274.022 257.713C279.141 268.975 292.684 270.076 303.37 272.542C308.466 273.718 313.262 275.845 318.508 276.249C321.814 276.503 324.438 273.777 327.467 273.777" fill="none" opacity="1" stroke="#000000" stroke-linecap="round" stroke-linejoin="round" stroke-width="4.66859"/>
<path d="M340.133 255.242C339.721 256.065 339.043 256.804 338.898 257.713C338.211 262.003 336.393 266.533 337.662 270.688C339.539 276.837 343.672 282.18 347.857 287.061C348.882 288.258 350.937 287.729 352.49 287.988C353.41 288.142 354.339 288.264 355.271 288.297C357.226 288.367 359.185 288.345 361.141 288.297C372.593 288.018 391.625 284.999 400.066 276.558" fill="none" opacity="1" stroke="#000000" stroke-linecap="round" stroke-linejoin="round" stroke-width="4.66859"/>
<path d="M508.192 207.975C512.676 216.944 512.04 231.094 503.867 237.633C498.607 241.84 491.511 243.006 486.258 247.209" fill="none" opacity="1" stroke="#000000" stroke-linecap="round" stroke-linejoin="round" stroke-width="4.66859"/>
<path d="M400.993 262.965C400.89 263.48 400.617 263.989 400.684 264.51C401.136 268.036 400.157 272.372 402.537 275.013C408.179 281.274 415.872 285.433 423.236 289.533C425.134 290.59 427.555 290.011 429.723 290.151C430.751 290.217 431.788 290.251 432.813 290.151C442.67 289.189 448.626 287.506 456.6 281.81" fill="none" opacity="1" stroke="#000000" stroke-linecap="round" stroke-linejoin="round" stroke-width="4.66859"/>
<path d="M474.209 236.397C474.415 236.5 474.739 236.493 474.827 236.706C476.306 240.255 478.009 243.765 478.843 247.518C480.082 253.092 480.739 258.806 481.006 264.51C481.097 266.447 478.419 270.046 477.299 271.615C472.724 278.019 465.935 284.996 458.454 287.988" fill="none" opacity="1" stroke="#000000" stroke-linecap="round" stroke-linejoin="round" stroke-width="4.66859"/>
<path d="M260.429 236.397C265.171 237.345 268.436 236.814 273.095 235.779" fill="none" opacity="1" stroke="#000000" stroke-linecap="round" stroke-linejoin="round" stroke-width="4.66859"/>
<path d="M319.435 273.777C326.214 278.297 333.361 273.556 339.824 270.997C340.515 270.724 341.06 270.173 341.678 269.761" fill="none" opacity="1" stroke="#000000" stroke-linecap="round" stroke-linejoin="round" stroke-width="4.66859"/>
</g>
<g id="Layer-3" vectornator:layerName="Layer 3" visibility="hidden">
<path d="M317.367 138.461C317.367 138.461 322.244 105.35 351.76 102.658C382.389 99.8634 390.971 131.605 390.971 131.605" fill="none" opacity="1" stroke="#adb5bd" stroke-linecap="butt" stroke-linejoin="round" stroke-width="4.66859"/>
<path d="M390.52 130.281C390.52 130.281 434.988 130.128 457.982 151.815C471.233 164.313 464.908 182.383 464.908 182.383" fill="none" opacity="1" stroke="#adb5bd" stroke-linecap="butt" stroke-linejoin="round" stroke-width="4.66859"/>
<path d="M423.649 192.623C423.649 192.623 468.04 171.239 496.832 196.086C537.489 231.172 486.894 246.23 486.894 246.23" fill="none" opacity="1" stroke="#adb5bd" stroke-linecap="butt" stroke-linejoin="round" stroke-width="4.66859"/>
<path d="M471.801 227.979C471.801 227.979 513.436 261.458 456.862 285.736C407.583 306.883 384.807 262.259 384.807 262.259" fill="none" opacity="1" stroke="#adb5bd" stroke-linecap="butt" stroke-linejoin="round" stroke-width="4.66859"/>
<path d="M285.227 216.511C285.227 216.511 258.572 272.867 312.77 278.452C388.749 286.281 392.606 248.243 392.606 248.243" fill="none" opacity="1" stroke="#adb5bd" stroke-linecap="butt" stroke-linejoin="round" stroke-width="4.66859"/>
<path d="M290.05 175.895C290.05 175.895 248.164 177.672 253.114 219.938C254.305 230.104 273.549 236.82 280.657 226.919" fill="none" opacity="1" stroke="#adb5bd" stroke-linecap="butt" stroke-linejoin="round" stroke-width="4.66859"/>
<path d="M266.949 181.988C266.949 181.988 268.472 153.302 296.269 144.925C317.834 138.426 344.882 139.848 344.882 139.848" fill="none" opacity="1" stroke="#adb5bd" stroke-linecap="butt" stroke-linejoin="round" stroke-width="4.66859"/>
</g>
<g id="Layer-4" vectornator:layerName="Layer 4">
<path d="M319.178 216.055C316.983 218.3 287.374 232.571 318.667 268.03C344.569 297.381 482.239 276.535 482.239 276.535C482.239 276.535 641.302 263.767 583.693 186.153C537.807 124.333 521.672 157.097 521.672 157.097C521.672 157.097 581.917 55.1062 426.127 76.1367C340.703 87.6685 286.152 190.795 350.035 199.881C405.523 207.774 345.641 188.993 319.178 216.055Z" fill="#d6d8da" fill-rule="nonzero" opacity="1" stroke="#93999e" stroke-linecap="butt" stroke-linejoin="round" stroke-width="3.97941"/>
</g>
<g id="Layer-5" vectornator:layerName="Layer 5">
<path d="M404.793 188.547C418.128 219.95 386.726 245.33 363.496 241.889" fill="none" opacity="1" stroke="#93999e" stroke-linecap="butt" stroke-linejoin="round" stroke-width="4.66859"/>
<path d="M446.834 122.441C440.338 134.733 429.068 134.38 421.327 136.96" fill="none" opacity="1" stroke="#93999e" stroke-linecap="round" stroke-linejoin="round" stroke-width="4.66859"/>
<path d="M461.046 117.538C469.679 124.994 469.679 132.843 490.085 128.526" fill="none" opacity="1" stroke="#93999e" stroke-linecap="round" stroke-linejoin="round" stroke-width="4.66859"/>
</g>
<g id="Layer-6" vectornator:layerName="Layer 6">
<path d="M453.988 170.224C453.988 152.515 461.748 138.159 471.321 138.159C480.893 138.159 488.653 152.515 488.653 170.224C488.653 187.932 480.893 202.288 471.321 202.288C461.748 202.288 453.988 187.932 453.988 170.224Z" fill="#ffffff" fill-rule="nonzero" opacity="1" stroke="#727476" stroke-linecap="butt" stroke-linejoin="round" stroke-width="4.66859"/>
<path d="M432.612 170.613C432.612 153.008 440.372 138.737 449.944 138.737C459.517 138.737 467.276 153.008 467.276 170.613C467.276 188.217 459.517 202.489 449.944 202.489C440.372 202.489 432.612 188.217 432.612 170.613Z" fill="#ffffff" fill-rule="nonzero" opacity="1" stroke="#727476" stroke-linecap="butt" stroke-linejoin="round" stroke-width="4.66859"/>
<path d="M454.599 185.15C455.875 180.324 458.231 176.761 459.863 177.192C461.494 177.623 461.782 181.885 460.507 186.711C459.231 191.537 456.875 195.099 455.244 194.668C453.612 194.237 453.324 189.976 454.599 185.15Z" fill="#000000" fill-rule="nonzero" opacity="1" stroke="#000000" stroke-linecap="butt" stroke-linejoin="round" stroke-width="4.66859"/>
<path d="M474.818 187.73C476.487 183.026 479.129 179.669 480.719 180.233C482.309 180.798 482.245 185.068 480.576 189.773C478.908 194.477 476.266 197.834 474.675 197.269C473.085 196.705 473.149 192.434 474.818 187.73Z" fill="#000000" fill-rule="nonzero" opacity="1" stroke="#000000" stroke-linecap="butt" stroke-linejoin="round" stroke-width="4.66859"/>
<path d="M452.676 239.051C451.227 230.356 461.682 226.317 469.582 226.975C485.038 228.263 481.174 238.085 481.174 238.085" fill="none" opacity="1" stroke="#727476" stroke-linecap="round" stroke-linejoin="round" stroke-width="4.66859"/>
</g>
<g clip-path="url(#ArtboardFrame)" id="Layer-7" vectornator:layerName="Layer 7">
<path d="M440.018 201.946C442.405 198.409 431.151 213.398 432.973 218.166C434.907 223.229 439.071 221.753 440.664 217.629C443.705 209.759 436.193 207.613 440.018 201.946Z" fill="#50d5ee" fill-rule="nonzero" opacity="1" stroke="#50d5ee" stroke-linecap="round" stroke-linejoin="round" stroke-width="2.19166"/>
<path d="M492.751 220.71C490.211 216.922 501.968 232.861 501.001 238.47C499.975 244.425 496.155 243.161 494.23 238.626C490.556 229.97 496.822 226.779 492.751 220.71Z" fill="#50d5ee" fill-rule="nonzero" opacity="1" stroke="#50d5ee" stroke-linecap="round" stroke-linejoin="round" stroke-width="2.04994"/>
<path d="M423.07 509.798C423.486 509.134 423.486 509.134 423.903 508.47C426.862 513.779 435.309 530.69 428.647 537.087C424.331 541.231 415.975 536.424 416.9 530.15C418.35 520.321 418.677 518.276 423.07 509.798Z" fill="#50d5ee" fill-rule="nonzero" opacity="1" stroke="#50d5ee" stroke-linecap="round" stroke-linejoin="round" stroke-width="3.15338"/>
<path d="M493.584 514.089C493.94 513.294 493.94 513.294 494.296 512.499C496.828 518.855 504.054 539.101 498.355 546.759C494.663 551.721 487.515 545.965 488.306 538.455C489.547 526.687 489.826 524.239 493.584 514.089Z" fill="#50d5ee" fill-rule="nonzero" opacity="1" stroke="#50d5ee" stroke-linecap="round" stroke-linejoin="round" stroke-width="3.15338"/>
<path d="M500.664 457.012C500.33 456.564 500.33 456.564 499.997 456.116C497.626 459.696 490.857 471.097 496.195 475.41C499.653 478.204 506.349 474.963 505.607 470.733C504.445 464.106 504.184 462.728 500.664 457.012Z" fill="#50d5ee" fill-rule="nonzero" opacity="1" stroke="#50d5ee" stroke-linecap="round" stroke-linejoin="round" stroke-width="3.15338"/>
<path d="M479.529 563.807C479.045 562.853 479.045 562.853 478.56 561.899C475.12 569.529 465.299 593.835 473.044 603.029C478.062 608.985 487.777 602.076 486.701 593.059C485.015 578.932 484.636 575.993 479.529 563.807Z" fill="#50d5ee" fill-rule="nonzero" opacity="1" stroke="#50d5ee" stroke-linecap="round" stroke-linejoin="round" stroke-width="3.15338"/>
<path d="M398.618 483.825C398.937 483.161 398.937 483.161 399.255 482.497C401.519 487.806 407.983 504.718 402.886 511.114C399.583 515.258 393.19 510.451 393.898 504.177C395.007 494.348 395.257 492.304 398.618 483.825Z" fill="#50d5ee" fill-rule="nonzero" opacity="1" stroke="#50d5ee" stroke-linecap="round" stroke-linejoin="round" stroke-width="3.15338"/>
<path d="M470.599 478.858C470.94 478.091 470.94 478.091 471.281 477.325C473.705 483.453 480.626 502.974 475.168 510.358C471.632 515.142 464.785 509.592 465.544 502.351C466.732 491.005 467 488.644 470.599 478.858Z" fill="#50d5ee" fill-rule="nonzero" opacity="1" stroke="#50d5ee" stroke-linecap="round" stroke-linejoin="round" stroke-width="3.15338"/>
<path d="M450.213 537.659C450.592 536.938 450.592 536.938 450.97 536.217C453.662 541.981 461.346 560.343 455.286 567.288C451.36 571.787 443.759 566.568 444.601 559.756C445.92 549.084 446.217 546.864 450.213 537.659Z" fill="#50d5ee" fill-rule="nonzero" opacity="1" stroke="#50d5ee" stroke-linecap="round" stroke-linejoin="round" stroke-width="3.15338"/>
<path d="M430.656 467.099C430.989 466.651 430.989 466.651 431.323 466.203C433.694 469.782 440.463 481.184 435.125 485.496C431.666 488.291 424.971 485.049 425.713 480.82C426.874 474.193 427.136 472.815 430.656 467.099Z" fill="#50d5ee" fill-rule="nonzero" opacity="1" stroke="#50d5ee" stroke-linecap="round" stroke-linejoin="round" stroke-width="3.15338"/>
<path d="M430.364 467.099C430.713 466.651 430.713 466.651 431.061 466.203C433.539 469.782 440.613 481.184 435.035 485.496C431.42 488.291 424.423 485.049 425.198 480.82C426.412 474.193 426.686 472.815 430.364 467.099Z" fill="#50d5ee" fill-rule="nonzero" opacity="1" stroke="#50d5ee" stroke-linecap="round" stroke-linejoin="round" stroke-width="3.15338"/>
<path d="M389.5 546.241C389.848 545.794 389.848 545.794 390.197 545.346C392.675 548.925 399.749 560.327 394.17 564.639C390.556 567.433 383.558 564.192 384.333 559.962C385.548 553.336 385.821 551.957 389.5 546.241Z" fill="#50d5ee" fill-rule="nonzero" opacity="1" stroke="#50d5ee" stroke-linecap="round" stroke-linejoin="round" stroke-width="3.15338"/>
</g>
</svg>
