<?xml version="1.0" encoding="UTF-8" standalone="no"?>
<!DOCTYPE svg PUBLIC "-//W3C//DTD SVG 1.1//EN" "http://www.w3.org/Graphics/SVG/1.1/DTD/svg11.dtd">
<!-- Created with Vectornator (http://vectornator.io/) -->
<svg height="100%" stroke-miterlimit="10" style="fill-rule:nonzero;clip-rule:evenodd;stroke-linecap:round;stroke-linejoin:round;" version="1.1" viewBox="0 0 844 390" width="100%" xml:space="preserve" xmlns="http://www.w3.org/2000/svg" xmlns:vectornator="http://vectornator.io" xmlns:xlink="http://www.w3.org/1999/xlink">
<defs/>
<g id="Layer-1" vectornator:layerName="Layer 1" visibility="hidden">
<path d="M476.579 139.343C492.797 143.381 506.953 158.016 506.953 158.016C506.953 158.016 548.802 204.908 538.831 235.442C528.86 265.975 508.132 283.048 467.07 280.151C454.481 279.262 445.122 267.839 418.793 267.79C392.464 267.742 377.21 279.896 361.755 279.956C346.3 280.015 339.547 266.965 315.884 266.174C292.221 265.384 302.348 275.435 267.103 276.793C231.859 278.152 240.938 274.819 215.376 261.723C189.814 248.627 195.13 212.67 195.13 212.67C195.13 212.67 163.044 198.9 167.281 182.445C171.518 165.989 203.428 150.863 203.428 150.863C203.428 150.863 208.257 118.797 225.061 111.1C241.865 103.403 266.32 113.895 266.32 113.895C266.32 113.895 273.87 84.3084 289.008 81.6323C304.146 78.9563 326.872 103.191 326.872 103.191C326.872 103.191 360.244 87.5779 376.203 101.12C392.162 114.662 399.357 155.815 399.357 155.815C399.357 155.815 399.514 133.562 415.524 126.985C431.534 120.408 449.495 137.23 449.495 137.23C449.495 137.23 460.361 135.305 476.579 139.343Z" fill="none" opacity="1" stroke="#959799" stroke-linecap="round" stroke-linejoin="round" stroke-width="4.17798"/>
</g>
<g id="Layer-2" vectornator:layerName="Layer 2" visibility="hidden">
<path d="M229.765 329.195C200.417 333.211 195.374 306.386 195.374 306.386C195.374 306.386 187.048 327.919 153.658 318.126C125.038 309.733 129.881 283.716 129.881 283.716C129.881 283.716 104.417 295.27 85.209 270.529C66.9585 247.02 95.7055 232.224 95.7055 232.224C95.7055 232.224 66.3118 234.284 62.9929 210.693C59.5441 186.179 85.3652 179.598 85.3652 179.598C85.3652 179.598 57.6006 161.874 67.2909 142.399C78.4275 120.017 102.806 132.534 102.806 132.534C102.806 132.534 90.8859 106.11 112.791 94.2084C136.187 81.4966 162.518 99.4673 162.518 99.4673C162.518 99.4673 158.237 69.2394 187.55 64.3153C220.599 58.7634 229.765 86.5185 229.765 86.5185C229.765 86.5185 236.976 55.8843 271.98 64.3153C311.287 73.7824 301.029 95.4512 301.029 95.4512C301.029 95.4512 318.05 74.835 344.926 92.4182C371.185 109.597 353.017 131.607 353.017 131.607C353.017 131.607 376.084 122.285 388.832 142.203C404.311 166.389 374.783 179.289 374.783 179.289C374.783 179.289 406.165 180.599 404.879 211.002C403.591 241.455 370.313 241.801 370.313 241.801C370.313 241.801 387.254 265.234 370.614 279.488C351.175 296.14 326.56 278.464 326.56 278.464C326.56 278.464 334.143 307.643 307.726 318.435C282.901 328.577 262.303 305.15 262.303 305.15C262.303 305.15 261.023 324.918 229.765 329.195Z" fill="#ffffff" fill-rule="nonzero" opacity="1" stroke="#000002" stroke-linecap="butt" stroke-linejoin="round" stroke-width="4.17798"/>
</g>
<g id="Layer-3" vectornator:layerName="Layer 3">
<path d="M421.809 255.025L340.893 249.975C340.893 249.975 297.382 248.585 293.338 225.108C289.134 200.713 314.853 186.624 314.853 186.624C314.853 186.624 287.252 171.661 296.337 151.896C306.778 129.181 330.819 128.181 330.819 128.181C330.819 128.181 318.089 102.137 339.616 89.5658C362.61 76.1386 389.482 93.2887 389.482 93.2887C389.482 93.2887 384.271 63.2072 413.418 57.3814C446.281 50.813 456.298 78.2723 456.298 78.2723C456.298 78.2723 480.157 66.2133 507.563 82.9594C534.339 99.3207 521.362 127.127 521.362 127.127C521.362 127.127 546.305 122.073 559.661 141.589C575.879 165.285 548.594 183.631 548.594 183.631C548.594 183.631 578.969 196.683 575.683 216.387C572.573 235.028 569.837 251.036 521.088 253.149C472.34 255.263 421.809 255.025 421.809 255.025Z" fill="#d6d6d6" fill-rule="nonzero" opacity="1" stroke="#000002" stroke-linecap="butt" stroke-linejoin="round" stroke-width="4.17798"/>
</g>
<g id="Layer-4" vectornator:layerName="Layer 4">
<path d="M498.874 217.89C498.874 209.758 506.035 203.166 514.869 203.166C523.703 203.166 530.864 209.758 530.864 217.89C530.864 226.022 523.703 232.614 514.869 232.614C506.035 232.614 498.874 226.022 498.874 217.89Z" fill="#ffffff" fill-rule="nonzero" opacity="1" stroke="#000002" stroke-linecap="butt" stroke-linejoin="round" stroke-width="4.17798"/>
</g>
<g id="Layer-6" vectornator:layerName="Layer 6">
<path d="M358.068 179.5C372.927 187.761 387.79 213.321 362.51 230.402" fill="none" opacity="1" stroke="#000002" stroke-linecap="round" stroke-linejoin="round" stroke-width="4.17798"/>
</g>
<g id="Layer-5" vectornator:layerName="Layer 5">
<path d="M390.523 150.461C390.523 138.386 400.694 128.597 413.241 128.597C425.788 128.597 435.96 138.386 435.96 150.461C435.96 162.537 425.788 172.326 413.241 172.326C400.694 172.326 390.523 162.537 390.523 150.461Z" fill="#ffffff" fill-rule="nonzero" opacity="1" stroke="#000002" stroke-linecap="butt" stroke-linejoin="round" stroke-width="4.17798"/>
<path d="M458.166 149.778C458.166 137.703 468.337 127.914 480.884 127.914C493.431 127.914 503.602 137.703 503.602 149.778C503.602 161.853 493.431 171.642 480.884 171.642C468.337 171.642 458.166 161.853 458.166 149.778Z" fill="#ffffff" fill-rule="nonzero" opacity="1" stroke="#000002" stroke-linecap="butt" stroke-linejoin="round" stroke-width="4.17798"/>
<path d="M414.437 161.564C414.437 157.319 418.108 153.878 422.636 153.878C427.164 153.878 430.835 157.319 430.835 161.564C430.835 165.809 427.164 169.251 422.636 169.251C418.108 169.251 414.437 165.809 414.437 161.564Z" fill="#000002" fill-rule="nonzero" opacity="1" stroke="#000002" stroke-linecap="butt" stroke-linejoin="round" stroke-width="4.17798"/>
<path d="M482.079 160.881C482.079 156.636 485.75 153.194 490.279 153.194C494.807 153.194 498.478 156.636 498.478 160.881C498.478 165.126 494.807 168.568 490.279 168.568C485.75 168.568 482.079 165.126 482.079 160.881Z" fill="#000002" fill-rule="nonzero" opacity="1" stroke="#000002" stroke-linecap="butt" stroke-linejoin="round" stroke-width="4.17798"/>
</g>
<g id="Layer-7" vectornator:layerName="Layer 7">
<path d="M383.176 126.026C381.427 111.149 425.556 106.616 433.764 123.238" fill="none" opacity="1" stroke="#000002" stroke-linecap="round" stroke-linejoin="round" stroke-width="4.17798"/>
<path d="M455.8 126.498C461.076 111.866 504.624 111.596 502.464 123.524" fill="none" opacity="1" stroke="#000002" stroke-linecap="round" stroke-linejoin="round" stroke-width="4.17798"/>
</g>
<clipPath id="ArtboardFrame">
<rect height="390" width="844" x="0" y="0"/>
</clipPath>
<g clip-path="url(#ArtboardFrame)" id="Layer-8" vectornator:layerName="Layer 8">
<path d="M717.482 189.037C770.431 187.79 849.978 184.277 895.008 154.056C907.612 145.597 919.623 129.395 919.646 113.3C919.675 93.5692 892.924 83.9505 877.376 83.8685C851.255 83.7306 823.96 94.1102 813.039 119.354C799.563 150.504 834.073 159.869 854.969 152.004C864.047 148.587 876.56 138.95 876.407 127.265C876.237 114.355 868.788 108.454 860.82 112.54C844.194 121.066 861.145 129.711 861.145 129.711" fill="none" opacity="1" stroke="#959799" stroke-linecap="round" stroke-linejoin="round" stroke-width="4.17798"/>
<path d="M719.668 215.712C772.499 211.974 807.425 215.051 855.097 240.903C868.442 248.14 885.656 264.74 887.194 280.762C889.078 300.402 900.688 317.295 885.217 318.839C859.224 321.433 831.074 313.666 817.828 289.561C801.482 259.817 834.957 247.248 856.501 253.113C865.86 255.661 879.224 264.078 880.17 275.725C881.215 288.595 874.354 295.169 866.037 291.851C848.683 284.927 864.746 274.726 864.746 274.726" fill="none" opacity="1" stroke="#959799" stroke-linecap="round" stroke-linejoin="round" stroke-width="4.17798"/>
</g>
<g clip-path="url(#ArtboardFrame)" id="Layer-9" vectornator:layerName="Layer 9">
<g opacity="1">
<path d="M711.285 81.9901C711.285 81.9901 716.183 80.5008 718.399 82.8851C721.064 85.7521 721.299 99.5915 717.248 101.255C713.332 102.863 705.057 92.2588 705.701 87.1465C706.123 83.7896 711.285 81.9901 711.285 81.9901Z" fill="#70bf4f" fill-rule="nonzero" opacity="1" stroke="#000002" stroke-linecap="round" stroke-linejoin="round" stroke-width="2.0092"/>
<path d="M716.666 100.774C715.636 98.509 706.342 75.9084 712.523 74.4635" fill="none" opacity="1" stroke="#000002" stroke-linecap="round" stroke-linejoin="round" stroke-width="2.29757"/>
<path d="M719.193 95.663L715.051 94.1912" fill="none" opacity="1" stroke="#5b9b40" stroke-linecap="butt" stroke-linejoin="round" stroke-width="2.29757"/>
<path d="M713.45 94.73L711.425 97.4699" fill="none" opacity="1" stroke="#5b9b40" stroke-linecap="butt" stroke-linejoin="round" stroke-width="2.29757"/>
<path d="M719.733 91.3532L713.821 89.7791" fill="none" opacity="1" stroke="#5b9b40" stroke-linecap="butt" stroke-linejoin="round" stroke-width="2.29757"/>
<path d="M711.909 90.4103L708.825 93.9678" fill="none" opacity="1" stroke="#5b9b40" stroke-linecap="butt" stroke-linejoin="round" stroke-width="2.29757"/>
<path d="M719.216 87.1061L712.328 84.6275" fill="none" opacity="1" stroke="#5b9b40" stroke-linecap="butt" stroke-linejoin="round" stroke-width="2.29757"/>
<path d="M710.089 85.5446L707.005 89.3537" fill="none" opacity="1" stroke="#5b9b40" stroke-linecap="butt" stroke-linejoin="round" stroke-width="2.29757"/>
</g>
<g opacity="1">
<path d="M867.407 208.919C867.407 208.919 869.886 213.399 868.016 216.064C865.768 219.268 852.282 222.384 849.81 218.769C847.421 215.274 856.065 204.97 861.2 204.533C864.571 204.246 867.407 208.919 867.407 208.919Z" fill="#70bf4f" fill-rule="nonzero" opacity="1" stroke="#000002" stroke-linecap="round" stroke-linejoin="round" stroke-width="2.0092"/>
<path d="M850.159 218.099C852.159 216.619 872.324 202.816 875.027 208.56" fill="none" opacity="1" stroke="#000002" stroke-linecap="round" stroke-linejoin="round" stroke-width="2.29757"/>
<path d="M855.685 219.505L856.26 215.147" fill="none" opacity="1" stroke="#5b9b40" stroke-linecap="butt" stroke-linejoin="round" stroke-width="2.29757"/>
<path d="M855.399 213.694L852.297 212.284" fill="none" opacity="1" stroke="#5b9b40" stroke-linecap="butt" stroke-linejoin="round" stroke-width="2.29757"/>
<path d="M860.012 219.134L860.319 213.024" fill="none" opacity="1" stroke="#5b9b40" stroke-linecap="butt" stroke-linejoin="round" stroke-width="2.29757"/>
<path d="M859.302 211.286L855.18 209.011" fill="none" opacity="1" stroke="#5b9b40" stroke-linecap="butt" stroke-linejoin="round" stroke-width="2.29757"/>
<path d="M864.058 217.743L865.045 210.489" fill="none" opacity="1" stroke="#5b9b40" stroke-linecap="butt" stroke-linejoin="round" stroke-width="2.29757"/>
<path d="M863.682 208.491L859.313 206.269" fill="none" opacity="1" stroke="#5b9b40" stroke-linecap="butt" stroke-linejoin="round" stroke-width="2.29757"/>
</g>
<g opacity="1">
<path d="M853.212 60.0948C853.212 60.0948 855.81 64.0401 854.279 66.6244C852.439 69.7318 840.254 73.5562 837.723 70.406C835.277 67.3607 842.498 57.2672 847.19 56.501C850.271 55.9979 853.212 60.0948 853.212 60.0948Z" fill="#70bf4f" fill-rule="nonzero" opacity="1" stroke="#000002" stroke-linecap="round" stroke-linejoin="round" stroke-width="1.85381"/>
<path d="M837.997 69.7651C839.732 68.2615 857.302 54.1315 860.196 59.2238" fill="none" opacity="1" stroke="#000002" stroke-linecap="round" stroke-linejoin="round" stroke-width="2.11989"/>
<path d="M843.18 70.6661L843.4 66.6161" fill="none" opacity="1" stroke="#5b9b40" stroke-linecap="butt" stroke-linejoin="round" stroke-width="2.11989"/>
<path d="M842.505 65.3404L839.551 64.2637" fill="none" opacity="1" stroke="#5b9b40" stroke-linecap="butt" stroke-linejoin="round" stroke-width="2.11989"/>
<path d="M847.134 70.0171L846.982 64.3742" fill="none" opacity="1" stroke="#5b9b40" stroke-linecap="butt" stroke-linejoin="round" stroke-width="2.11989"/>
<path d="M845.924 62.8476L841.97 61.0483" fill="none" opacity="1" stroke="#5b9b40" stroke-linecap="butt" stroke-linejoin="round" stroke-width="2.11989"/>
<path d="M850.758 68.45L851.151 61.7072" fill="none" opacity="1" stroke="#5b9b40" stroke-linecap="butt" stroke-linejoin="round" stroke-width="2.11989"/>
<path d="M849.754 59.9661L845.578 58.2319" fill="none" opacity="1" stroke="#5b9b40" stroke-linecap="butt" stroke-linejoin="round" stroke-width="2.11989"/>
</g>
</g>
</svg>
