<?xml version="1.0" encoding="UTF-8" standalone="no"?>
<!DOCTYPE svg PUBLIC "-//W3C//DTD SVG 1.1//EN" "http://www.w3.org/Graphics/SVG/1.1/DTD/svg11.dtd">
<!-- Created with Vectornator (http://vectornator.io/) -->
<svg height="100%" stroke-miterlimit="10" style="fill-rule:nonzero;clip-rule:evenodd;stroke-linecap:round;stroke-linejoin:round;" version="1.1" viewBox="0 0 844 390" width="100%" xml:space="preserve" xmlns="http://www.w3.org/2000/svg" xmlns:vectornator="http://vectornator.io" xmlns:xlink="http://www.w3.org/1999/xlink">
<defs/>
<g id="Layer-1" vectornator:layerName="Layer 1" visibility="hidden">
<path d="M476.579 139.343C492.797 143.381 506.953 158.016 506.953 158.016C506.953 158.016 548.802 204.908 538.831 235.442C528.86 265.975 508.132 283.048 467.07 280.151C454.481 279.262 445.122 267.839 418.793 267.79C392.464 267.742 377.21 279.896 361.755 279.956C346.3 280.015 339.547 266.965 315.884 266.174C292.221 265.384 302.348 275.435 267.103 276.793C231.859 278.152 240.938 274.819 215.376 261.723C189.814 248.627 195.13 212.67 195.13 212.67C195.13 212.67 163.044 198.9 167.281 182.445C171.518 165.989 203.428 150.863 203.428 150.863C203.428 150.863 208.257 118.797 225.061 111.1C241.865 103.403 266.32 113.895 266.32 113.895C266.32 113.895 273.87 84.3084 289.008 81.6323C304.146 78.9563 326.872 103.191 326.872 103.191C326.872 103.191 360.244 87.5779 376.203 101.12C392.162 114.662 399.357 155.815 399.357 155.815C399.357 155.815 399.514 133.562 415.524 126.985C431.534 120.408 449.495 137.23 449.495 137.23C449.495 137.23 460.361 135.305 476.579 139.343Z" fill="none" opacity="1" stroke="#959799" stroke-linecap="round" stroke-linejoin="round" stroke-width="4.17798"/>
</g>
<g id="Layer-2" vectornator:layerName="Layer 2" visibility="hidden">
<path d="M229.765 329.195C200.417 333.211 195.374 306.386 195.374 306.386C195.374 306.386 187.048 327.919 153.658 318.126C125.038 309.733 129.881 283.716 129.881 283.716C129.881 283.716 104.417 295.27 85.209 270.529C66.9585 247.02 95.7055 232.224 95.7055 232.224C95.7055 232.224 66.3118 234.284 62.9929 210.693C59.5441 186.179 85.3652 179.598 85.3652 179.598C85.3652 179.598 57.6006 161.874 67.2909 142.399C78.4275 120.017 102.806 132.534 102.806 132.534C102.806 132.534 90.8859 106.11 112.791 94.2084C136.187 81.4966 162.518 99.4673 162.518 99.4673C162.518 99.4673 158.237 69.2394 187.55 64.3153C220.599 58.7634 229.765 86.5185 229.765 86.5185C229.765 86.5185 236.976 55.8843 271.98 64.3153C311.287 73.7824 301.029 95.4512 301.029 95.4512C301.029 95.4512 318.05 74.835 344.926 92.4182C371.185 109.597 353.017 131.607 353.017 131.607C353.017 131.607 376.084 122.285 388.832 142.203C404.311 166.389 374.783 179.289 374.783 179.289C374.783 179.289 406.165 180.599 404.879 211.002C403.591 241.455 370.313 241.801 370.313 241.801C370.313 241.801 387.254 265.234 370.614 279.488C351.175 296.14 326.56 278.464 326.56 278.464C326.56 278.464 334.143 307.643 307.726 318.435C282.901 328.577 262.303 305.15 262.303 305.15C262.303 305.15 261.023 324.918 229.765 329.195Z" fill="#ffffff" fill-rule="nonzero" opacity="1" stroke="#000002" stroke-linecap="butt" stroke-linejoin="round" stroke-width="4.17798"/>
</g>
<g id="Layer-3" vectornator:layerName="Layer 3">
<path d="M421.809 255.025L340.893 249.975C340.893 249.975 297.382 248.585 293.338 225.108C289.134 200.713 314.853 186.624 314.853 186.624C314.853 186.624 287.252 171.661 296.337 151.896C306.778 129.181 330.819 128.181 330.819 128.181C330.819 128.181 318.089 102.137 339.616 89.5658C362.61 76.1386 389.482 93.2887 389.482 93.2887C389.482 93.2887 384.271 63.2072 413.418 57.3814C446.281 50.813 456.298 78.2723 456.298 78.2723C456.298 78.2723 480.157 66.2133 507.563 82.9594C534.339 99.3207 521.362 127.127 521.362 127.127C521.362 127.127 546.305 122.073 559.661 141.589C575.879 165.285 548.594 183.631 548.594 183.631C548.594 183.631 578.969 196.683 575.683 216.387C572.573 235.028 569.837 251.036 521.088 253.149C472.34 255.263 421.809 255.025 421.809 255.025Z" fill="#d6d6d6" fill-rule="nonzero" opacity="1" stroke="#000002" stroke-linecap="butt" stroke-linejoin="round" stroke-width="4.17798"/>
</g>
<g id="Layer-4" vectornator:layerName="Layer 4">
<path d="M522.976 217.181C522.976 211.529 526.964 206.947 531.882 206.947C536.801 206.947 540.789 211.529 540.789 217.181C540.789 222.833 536.801 227.415 531.882 227.415C526.964 227.415 522.976 222.833 522.976 217.181Z" fill="#ffffff" fill-rule="nonzero" opacity="1" stroke="#000002" stroke-linecap="butt" stroke-linejoin="round" stroke-width="4.17798"/>
</g>
<g id="Layer-6" vectornator:layerName="Layer 6">
<path d="M358.068 179.5C384.902 192.53 414.681 210.092 362.51 230.402" fill="none" opacity="1" stroke="#000002" stroke-linecap="round" stroke-linejoin="round" stroke-width="4.17798"/>
</g>
<g id="Layer-5" vectornator:layerName="Layer 5">
<path d="M390.523 150.461C390.523 138.386 400.694 128.597 413.241 128.597C425.788 128.597 435.96 138.386 435.96 150.461C435.96 162.537 425.788 172.326 413.241 172.326C400.694 172.326 390.523 162.537 390.523 150.461Z" fill="#ffffff" fill-rule="nonzero" opacity="1" stroke="#000002" stroke-linecap="butt" stroke-linejoin="round" stroke-width="4.17798"/>
<path d="M458.166 149.778C458.166 137.703 468.337 127.914 480.884 127.914C493.431 127.914 503.602 137.703 503.602 149.778C503.602 161.853 493.431 171.642 480.884 171.642C468.337 171.642 458.166 161.853 458.166 149.778Z" fill="#ffffff" fill-rule="nonzero" opacity="1" stroke="#000002" stroke-linecap="butt" stroke-linejoin="round" stroke-width="4.17798"/>
<path d="M414.437 161.564C414.437 157.319 418.108 153.878 422.636 153.878C427.164 153.878 430.835 157.319 430.835 161.564C430.835 165.809 427.164 169.251 422.636 169.251C418.108 169.251 414.437 165.809 414.437 161.564Z" fill="#000002" fill-rule="nonzero" opacity="1" stroke="#000002" stroke-linecap="butt" stroke-linejoin="round" stroke-width="4.17798"/>
<path d="M482.079 160.881C482.079 156.636 485.75 153.194 490.279 153.194C494.807 153.194 498.478 156.636 498.478 160.881C498.478 165.126 494.807 168.568 490.279 168.568C485.75 168.568 482.079 165.126 482.079 160.881Z" fill="#000002" fill-rule="nonzero" opacity="1" stroke="#000002" stroke-linecap="butt" stroke-linejoin="round" stroke-width="4.17798"/>
</g>
<g id="Layer-7" vectornator:layerName="Layer 7">
<path d="M383.176 126.026C381.427 111.149 425.556 106.616 433.764 123.238" fill="none" opacity="1" stroke="#000002" stroke-linecap="round" stroke-linejoin="round" stroke-width="4.17798"/>
<path d="M455.8 126.498C461.076 111.866 504.624 111.596 502.464 123.524" fill="none" opacity="1" stroke="#000002" stroke-linecap="round" stroke-linejoin="round" stroke-width="4.17798"/>
</g>
<clipPath id="ArtboardFrame">
<rect height="390" width="844" x="0" y="0"/>
</clipPath>
<g clip-path="url(#ArtboardFrame)" id="Layer-8" vectornator:layerName="Layer 8">
<path d="M931.393 163.357C984.342 162.109 1069.79 174.194 1114.82 143.973C1127.43 135.514 1139.44 119.312 1139.46 103.217C1139.49 83.4863 1112.74 73.8676 1097.19 73.7856C1071.07 73.6477 1043.78 84.0274 1032.85 109.271C1019.38 140.421 1053.89 149.786 1074.78 141.921C1083.86 138.504 1096.38 128.868 1096.22 117.182C1096.05 104.272 1088.6 98.3715 1080.63 102.457C1064.01 110.983 1080.96 119.628 1080.96 119.628" fill="none" opacity="1" stroke="#959799" stroke-linecap="round" stroke-linejoin="round" stroke-width="4.17798"/>
<path d="M911.232 210.766C964.064 207.028 998.99 210.105 1046.66 235.957C1060.01 243.193 1077.22 259.794 1078.76 275.815C1080.64 295.456 1092.25 312.348 1076.78 313.892C1050.79 316.486 1022.64 308.72 1009.39 284.615C993.046 254.871 1026.52 242.301 1048.07 248.166C1057.43 250.715 1070.79 259.131 1071.73 270.779C1072.78 283.648 1065.92 290.223 1057.6 286.905C1040.25 279.98 1056.31 269.78 1056.31 269.78" fill="none" opacity="1" stroke="#959799" stroke-linecap="round" stroke-linejoin="round" stroke-width="4.17798"/>
<path d="M539.572 204.526C552.802 204.557 600.998 200.952 611.81 190.595C628.888 174.237 620.851 149.195 602.105 148.112C590.1 147.418 575.943 169.598 587.204 180.394C594.853 187.729 600.784 185.882 607.193 178.717C607.558 178.309 610.855 174.985 610.533 173.133C609.702 168.352 603.352 163.962 599.862 168.738" fill="none" opacity="1" stroke="#959799" stroke-linecap="round" stroke-linejoin="round" stroke-width="4.17798"/>
<path d="M541.047 226.802C554.242 225.837 599.821 226.317 612.94 233.532C632.371 244.218 626.031 276.254 607.408 278.659C595.482 280.199 579.795 259.075 590.264 247.509C597.377 239.653 603.423 241.076 610.323 247.771C610.715 248.151 614.239 251.234 614.049 253.105C613.558 257.932 607.533 262.76 603.714 258.243" fill="none" opacity="1" stroke="#959799" stroke-linecap="round" stroke-linejoin="round" stroke-width="4.17798"/>
</g>
<g clip-path="url(#ArtboardFrame)" id="Layer-9" vectornator:layerName="Layer 9">
<g opacity="1">
<path d="M631.651 205.779C631.651 205.779 634.407 210.094 632.709 212.872C630.668 216.212 617.406 220.173 614.711 216.721C612.105 213.384 620.082 202.554 625.179 201.794C628.525 201.295 631.651 205.779 631.651 205.779Z" fill="#70bf4f" fill-rule="nonzero" opacity="1" stroke="#000002" stroke-linecap="round" stroke-linejoin="round" stroke-width="2.0092"/>
<path d="M615.016 216.031C616.919 214.427 636.173 199.378 639.232 204.94" fill="none" opacity="1" stroke="#000002" stroke-linecap="round" stroke-linejoin="round" stroke-width="2.29757"/>
<path d="M620.62 217.085L620.919 212.699" fill="none" opacity="1" stroke="#5b9b40" stroke-linecap="butt" stroke-linejoin="round" stroke-width="2.29757"/>
<path d="M619.968 211.303L616.783 210.092" fill="none" opacity="1" stroke="#5b9b40" stroke-linecap="butt" stroke-linejoin="round" stroke-width="2.29757"/>
<path d="M624.915 216.441L624.835 210.324" fill="none" opacity="1" stroke="#5b9b40" stroke-linecap="butt" stroke-linejoin="round" stroke-width="2.29757"/>
<path d="M623.712 208.653L619.454 206.644" fill="none" opacity="1" stroke="#5b9b40" stroke-linecap="butt" stroke-linejoin="round" stroke-width="2.29757"/>
<path d="M628.865 214.797L629.393 207.496" fill="none" opacity="1" stroke="#5b9b40" stroke-linecap="butt" stroke-linejoin="round" stroke-width="2.29757"/>
<path d="M627.906 205.588L623.405 203.646" fill="none" opacity="1" stroke="#5b9b40" stroke-linecap="butt" stroke-linejoin="round" stroke-width="2.29757"/>
</g>
<g opacity="1">
<path d="M1189.09 245.492C1189.09 245.492 1191.57 249.972 1189.7 252.637C1187.46 255.841 1173.97 258.957 1171.5 255.342C1169.11 251.847 1177.75 241.543 1182.89 241.106C1186.26 240.819 1189.09 245.492 1189.09 245.492Z" fill="#70bf4f" fill-rule="nonzero" opacity="1" stroke="#000002" stroke-linecap="round" stroke-linejoin="round" stroke-width="2.0092"/>
<path d="M1171.85 254.672C1173.85 253.192 1194.01 239.389 1196.71 245.133" fill="none" opacity="1" stroke="#000002" stroke-linecap="round" stroke-linejoin="round" stroke-width="2.29757"/>
<path d="M1177.37 256.078L1177.95 251.72" fill="none" opacity="1" stroke="#5b9b40" stroke-linecap="butt" stroke-linejoin="round" stroke-width="2.29757"/>
<path d="M1177.09 250.267L1173.98 248.857" fill="none" opacity="1" stroke="#5b9b40" stroke-linecap="butt" stroke-linejoin="round" stroke-width="2.29757"/>
<path d="M1181.7 255.707L1182.01 249.597" fill="none" opacity="1" stroke="#5b9b40" stroke-linecap="butt" stroke-linejoin="round" stroke-width="2.29757"/>
<path d="M1180.99 247.859L1176.87 245.584" fill="none" opacity="1" stroke="#5b9b40" stroke-linecap="butt" stroke-linejoin="round" stroke-width="2.29757"/>
<path d="M1185.75 254.316L1186.73 247.062" fill="none" opacity="1" stroke="#5b9b40" stroke-linecap="butt" stroke-linejoin="round" stroke-width="2.29757"/>
<path d="M1185.37 245.064L1181 242.842" fill="none" opacity="1" stroke="#5b9b40" stroke-linecap="butt" stroke-linejoin="round" stroke-width="2.29757"/>
</g>
<g opacity="1">
<path d="M1115.83 19.6214C1115.83 19.6214 1118.43 23.5667 1116.9 26.151C1115.06 29.2584 1102.87 33.0828 1100.34 29.9327C1097.9 26.8873 1105.12 16.7938 1109.81 16.0277C1112.89 15.5246 1115.83 19.6214 1115.83 19.6214Z" fill="#70bf4f" fill-rule="nonzero" opacity="1" stroke="#000002" stroke-linecap="round" stroke-linejoin="round" stroke-width="1.85381"/>
<path d="M1100.61 29.2917C1102.35 27.7881 1119.92 13.6581 1122.81 18.7505" fill="none" opacity="1" stroke="#000002" stroke-linecap="round" stroke-linejoin="round" stroke-width="2.11989"/>
<path d="M1105.8 30.1927L1106.02 26.1428" fill="none" opacity="1" stroke="#5b9b40" stroke-linecap="butt" stroke-linejoin="round" stroke-width="2.11989"/>
<path d="M1105.12 24.867L1102.17 23.7903" fill="none" opacity="1" stroke="#5b9b40" stroke-linecap="butt" stroke-linejoin="round" stroke-width="2.11989"/>
<path d="M1109.75 29.5437L1109.6 23.9009" fill="none" opacity="1" stroke="#5b9b40" stroke-linecap="butt" stroke-linejoin="round" stroke-width="2.11989"/>
<path d="M1108.54 22.3742L1104.59 20.5749" fill="none" opacity="1" stroke="#5b9b40" stroke-linecap="butt" stroke-linejoin="round" stroke-width="2.11989"/>
<path d="M1113.38 27.9766L1113.77 21.2339" fill="none" opacity="1" stroke="#5b9b40" stroke-linecap="butt" stroke-linejoin="round" stroke-width="2.11989"/>
<path d="M1112.37 19.4927L1108.2 17.7585" fill="none" opacity="1" stroke="#5b9b40" stroke-linecap="butt" stroke-linejoin="round" stroke-width="2.11989"/>
</g>
</g>
</svg>
