<?xml version="1.0" encoding="UTF-8" standalone="no"?>
<!DOCTYPE svg PUBLIC "-//W3C//DTD SVG 1.1//EN" "http://www.w3.org/Graphics/SVG/1.1/DTD/svg11.dtd">
<!-- Created with Vectornator (http://vectornator.io/) -->
<svg height="100%" stroke-miterlimit="10" style="fill-rule:nonzero;clip-rule:evenodd;stroke-linecap:round;stroke-linejoin:round;" version="1.1" viewBox="0 0 844 390" width="100%" xml:space="preserve" xmlns="http://www.w3.org/2000/svg" xmlns:vectornator="http://vectornator.io" xmlns:xlink="http://www.w3.org/1999/xlink">
<defs/>
<g id="Layer-1" vectornator:layerName="Layer 1" visibility="hidden">
<path d="M476.579 139.343C492.797 143.381 506.953 158.016 506.953 158.016C506.953 158.016 548.802 204.908 538.831 235.442C528.86 265.975 508.132 283.048 467.07 280.151C454.481 279.262 445.122 267.839 418.793 267.79C392.464 267.742 377.21 279.896 361.755 279.956C346.3 280.015 339.547 266.965 315.884 266.174C292.221 265.384 302.348 275.435 267.103 276.793C231.859 278.152 240.938 274.819 215.376 261.723C189.814 248.627 195.13 212.67 195.13 212.67C195.13 212.67 163.044 198.9 167.281 182.445C171.518 165.989 203.428 150.863 203.428 150.863C203.428 150.863 208.257 118.797 225.061 111.1C241.865 103.403 266.32 113.895 266.32 113.895C266.32 113.895 273.87 84.3084 289.008 81.6323C304.146 78.9563 326.872 103.191 326.872 103.191C326.872 103.191 360.244 87.5779 376.203 101.12C392.162 114.662 399.357 155.815 399.357 155.815C399.357 155.815 399.514 133.562 415.524 126.985C431.534 120.408 449.495 137.23 449.495 137.23C449.495 137.23 460.361 135.305 476.579 139.343Z" fill="none" opacity="1" stroke="#959799" stroke-linecap="round" stroke-linejoin="round" stroke-width="4.17798"/>
</g>
<g id="Layer-2" vectornator:layerName="Layer 2" visibility="hidden">
<path d="M229.765 329.195C200.417 333.211 195.374 306.386 195.374 306.386C195.374 306.386 187.048 327.919 153.658 318.126C125.038 309.733 129.881 283.716 129.881 283.716C129.881 283.716 104.417 295.27 85.209 270.529C66.9585 247.02 95.7055 232.224 95.7055 232.224C95.7055 232.224 66.3118 234.284 62.9929 210.693C59.5441 186.179 85.3652 179.598 85.3652 179.598C85.3652 179.598 57.6006 161.874 67.2909 142.399C78.4275 120.017 102.806 132.534 102.806 132.534C102.806 132.534 90.8859 106.11 112.791 94.2084C136.187 81.4966 162.518 99.4673 162.518 99.4673C162.518 99.4673 158.237 69.2394 187.55 64.3153C220.599 58.7634 229.765 86.5185 229.765 86.5185C229.765 86.5185 236.976 55.8843 271.98 64.3153C311.287 73.7824 301.029 95.4512 301.029 95.4512C301.029 95.4512 318.05 74.835 344.926 92.4182C371.185 109.597 353.017 131.607 353.017 131.607C353.017 131.607 376.084 122.285 388.832 142.203C404.311 166.389 374.783 179.289 374.783 179.289C374.783 179.289 406.165 180.599 404.879 211.002C403.591 241.455 370.313 241.801 370.313 241.801C370.313 241.801 387.254 265.234 370.614 279.488C351.175 296.14 326.56 278.464 326.56 278.464C326.56 278.464 334.143 307.643 307.726 318.435C282.901 328.577 262.303 305.15 262.303 305.15C262.303 305.15 261.023 324.918 229.765 329.195Z" fill="#ffffff" fill-rule="nonzero" opacity="1" stroke="#000002" stroke-linecap="butt" stroke-linejoin="round" stroke-width="4.17798"/>
</g>
<g id="Layer-3" vectornator:layerName="Layer 3">
<path d="M421.809 255.025L340.893 249.975C340.893 249.975 297.382 248.585 293.338 225.108C289.134 200.713 314.853 186.624 314.853 186.624C314.853 186.624 287.252 171.661 296.337 151.896C306.778 129.181 330.819 128.181 330.819 128.181C330.819 128.181 318.089 102.137 339.616 89.5658C362.61 76.1386 389.482 93.2887 389.482 93.2887C389.482 93.2887 384.271 63.2072 413.418 57.3814C446.281 50.813 456.298 78.2723 456.298 78.2723C456.298 78.2723 480.157 66.2133 507.563 82.9594C534.339 99.3207 521.362 127.127 521.362 127.127C521.362 127.127 546.305 122.073 559.661 141.589C575.879 165.285 548.594 183.631 548.594 183.631C548.594 183.631 578.969 196.683 575.683 216.387C572.573 235.028 569.837 251.036 521.088 253.149C472.34 255.263 421.809 255.025 421.809 255.025Z" fill="#d6d6d6" fill-rule="nonzero" opacity="1" stroke="#000002" stroke-linecap="butt" stroke-linejoin="round" stroke-width="4.17798"/>
</g>
<g id="Layer-4" vectornator:layerName="Layer 4">
<path d="M498.874 217.89C498.874 209.758 506.035 203.166 514.869 203.166C523.703 203.166 530.864 209.758 530.864 217.89C530.864 226.022 523.703 232.614 514.869 232.614C506.035 232.614 498.874 226.022 498.874 217.89Z" fill="#ffffff" fill-rule="nonzero" opacity="1" stroke="#000002" stroke-linecap="butt" stroke-linejoin="round" stroke-width="4.17798"/>
</g>
<g id="Layer-6" vectornator:layerName="Layer 6">
<path d="M358.068 179.5C372.927 187.761 387.79 213.321 362.51 230.402" fill="none" opacity="1" stroke="#000002" stroke-linecap="round" stroke-linejoin="round" stroke-width="4.17798"/>
</g>
<g id="Layer-5" vectornator:layerName="Layer 5">
<path d="M390.523 150.461C390.523 138.386 400.694 128.597 413.241 128.597C425.788 128.597 435.96 138.386 435.96 150.461C435.96 162.537 425.788 172.326 413.241 172.326C400.694 172.326 390.523 162.537 390.523 150.461Z" fill="#ffffff" fill-rule="nonzero" opacity="1" stroke="#000002" stroke-linecap="butt" stroke-linejoin="round" stroke-width="4.17798"/>
<path d="M458.166 149.778C458.166 137.703 468.337 127.914 480.884 127.914C493.431 127.914 503.602 137.703 503.602 149.778C503.602 161.853 493.431 171.642 480.884 171.642C468.337 171.642 458.166 161.853 458.166 149.778Z" fill="#ffffff" fill-rule="nonzero" opacity="1" stroke="#000002" stroke-linecap="butt" stroke-linejoin="round" stroke-width="4.17798"/>
<path d="M414.437 161.564C414.437 157.319 418.108 153.878 422.636 153.878C427.164 153.878 430.835 157.319 430.835 161.564C430.835 165.809 427.164 169.251 422.636 169.251C418.108 169.251 414.437 165.809 414.437 161.564Z" fill="#000002" fill-rule="nonzero" opacity="1" stroke="#000002" stroke-linecap="butt" stroke-linejoin="round" stroke-width="4.17798"/>
<path d="M482.079 160.881C482.079 156.636 485.75 153.194 490.279 153.194C494.807 153.194 498.478 156.636 498.478 160.881C498.478 165.126 494.807 168.568 490.279 168.568C485.75 168.568 482.079 165.126 482.079 160.881Z" fill="#000002" fill-rule="nonzero" opacity="1" stroke="#000002" stroke-linecap="butt" stroke-linejoin="round" stroke-width="4.17798"/>
</g>
<g id="Layer-7" vectornator:layerName="Layer 7">
<path d="M383.176 126.026C381.427 111.149 425.556 106.616 433.764 123.238" fill="none" opacity="1" stroke="#000002" stroke-linecap="round" stroke-linejoin="round" stroke-width="4.17798"/>
<path d="M455.8 126.498C461.076 111.866 504.624 111.596 502.464 123.524" fill="none" opacity="1" stroke="#000002" stroke-linecap="round" stroke-linejoin="round" stroke-width="4.17798"/>
</g>
<clipPath id="ArtboardFrame">
<rect height="390" width="844" x="0" y="0"/>
</clipPath>
<g clip-path="url(#ArtboardFrame)" id="Layer-8" vectornator:layerName="Layer 8">
<path d="M799.665 183.901C852.614 182.653 961.267 175.288 1006.3 145.067C1018.9 136.608 1030.91 120.406 1030.94 104.311C1030.96 84.5805 1004.21 74.9618 988.666 74.8797C962.544 74.7419 935.249 85.1215 924.328 110.365C910.852 141.515 945.362 150.88 966.258 143.015C975.336 139.598 987.85 129.962 987.696 118.277C987.526 105.366 980.077 99.4657 972.109 103.552C955.483 112.077 972.434 120.722 972.434 120.722" fill="none" opacity="1" stroke="#959799" stroke-linecap="round" stroke-linejoin="round" stroke-width="4.17798"/>
<path d="M802.707 211.86C855.538 208.122 890.464 211.199 938.136 237.051C951.481 244.287 968.695 260.888 970.232 276.909C972.117 296.55 983.727 313.442 968.256 314.986C942.263 317.58 914.113 309.814 900.866 285.709C884.521 255.965 917.996 243.395 939.54 249.261C948.899 251.809 962.263 260.225 963.209 271.873C964.254 284.742 957.393 291.317 949.076 287.999C931.722 281.075 947.785 270.874 947.785 270.874" fill="none" opacity="1" stroke="#959799" stroke-linecap="round" stroke-linejoin="round" stroke-width="4.17798"/>
</g>
<g clip-path="url(#ArtboardFrame)" id="Layer-9" vectornator:layerName="Layer 9">
<g opacity="1">
<path d="M831.182 133.903C831.182 133.903 829.849 138.847 826.653 139.462C822.809 140.203 810.948 133.068 811.685 128.751C812.397 124.578 825.775 123.18 829.769 126.435C832.391 128.573 831.182 133.903 831.182 133.903Z" fill="#70bf4f" fill-rule="nonzero" opacity="1" stroke="#000002" stroke-linecap="round" stroke-linejoin="round" stroke-width="2.0092"/>
<path d="M812.401 128.512C814.868 128.839 838.959 132.935 836.909 138.942" fill="none" opacity="1" stroke="#000002" stroke-linecap="round" stroke-linejoin="round" stroke-width="2.29757"/>
<path d="M815.396 133.364L818.839 130.631" fill="none" opacity="1" stroke="#5b9b40" stroke-linecap="butt" stroke-linejoin="round" stroke-width="2.29757"/>
<path d="M819.231 128.988L817.981 125.818" fill="none" opacity="1" stroke="#5b9b40" stroke-linecap="butt" stroke-linejoin="round" stroke-width="2.29757"/>
<path d="M818.765 136.105L823.233 131.926" fill="none" opacity="1" stroke="#5b9b40" stroke-linecap="butt" stroke-linejoin="round" stroke-width="2.29757"/>
<path d="M823.711 129.97L822.328 125.47" fill="none" opacity="1" stroke="#5b9b40" stroke-linecap="butt" stroke-linejoin="round" stroke-width="2.29757"/>
<path d="M822.64 137.918L828.393 133.39" fill="none" opacity="1" stroke="#5b9b40" stroke-linecap="butt" stroke-linejoin="round" stroke-width="2.29757"/>
<path d="M828.801 131.006L827.206 126.372" fill="none" opacity="1" stroke="#5b9b40" stroke-linecap="butt" stroke-linejoin="round" stroke-width="2.29757"/>
</g>
<g opacity="1">
<path d="M1080.57 246.586C1080.57 246.586 1083.05 251.066 1081.18 253.731C1078.93 256.935 1065.44 260.051 1062.97 256.436C1060.58 252.941 1069.23 242.637 1074.36 242.2C1077.73 241.914 1080.57 246.586 1080.57 246.586Z" fill="#70bf4f" fill-rule="nonzero" opacity="1" stroke="#000002" stroke-linecap="round" stroke-linejoin="round" stroke-width="2.0092"/>
<path d="M1063.32 255.766C1065.32 254.286 1085.49 240.483 1088.19 246.227" fill="none" opacity="1" stroke="#000002" stroke-linecap="round" stroke-linejoin="round" stroke-width="2.29757"/>
<path d="M1068.85 257.172L1069.42 252.814" fill="none" opacity="1" stroke="#5b9b40" stroke-linecap="butt" stroke-linejoin="round" stroke-width="2.29757"/>
<path d="M1068.56 251.361L1065.46 249.951" fill="none" opacity="1" stroke="#5b9b40" stroke-linecap="butt" stroke-linejoin="round" stroke-width="2.29757"/>
<path d="M1073.17 256.801L1073.48 250.691" fill="none" opacity="1" stroke="#5b9b40" stroke-linecap="butt" stroke-linejoin="round" stroke-width="2.29757"/>
<path d="M1072.46 248.953L1068.34 246.679" fill="none" opacity="1" stroke="#5b9b40" stroke-linecap="butt" stroke-linejoin="round" stroke-width="2.29757"/>
<path d="M1077.22 255.41L1078.21 248.156" fill="none" opacity="1" stroke="#5b9b40" stroke-linecap="butt" stroke-linejoin="round" stroke-width="2.29757"/>
<path d="M1076.84 246.158L1072.47 243.936" fill="none" opacity="1" stroke="#5b9b40" stroke-linecap="butt" stroke-linejoin="round" stroke-width="2.29757"/>
</g>
<g opacity="1">
<path d="M1007.3 20.7156C1007.3 20.7156 1009.9 24.6609 1008.37 27.2452C1006.53 30.3526 994.347 34.177 991.816 31.0268C989.37 27.9815 996.591 17.888 1001.28 17.1218C1004.36 16.6187 1007.3 20.7156 1007.3 20.7156Z" fill="#70bf4f" fill-rule="nonzero" opacity="1" stroke="#000002" stroke-linecap="round" stroke-linejoin="round" stroke-width="1.85381"/>
<path d="M992.089 30.3858C993.824 28.8823 1011.39 14.7523 1014.29 19.8446" fill="none" opacity="1" stroke="#000002" stroke-linecap="round" stroke-linejoin="round" stroke-width="2.11989"/>
<path d="M997.272 31.2868L997.492 27.2369" fill="none" opacity="1" stroke="#5b9b40" stroke-linecap="butt" stroke-linejoin="round" stroke-width="2.11989"/>
<path d="M996.597 25.9612L993.643 24.8845" fill="none" opacity="1" stroke="#5b9b40" stroke-linecap="butt" stroke-linejoin="round" stroke-width="2.11989"/>
<path d="M1001.23 30.6379L1001.08 24.995" fill="none" opacity="1" stroke="#5b9b40" stroke-linecap="butt" stroke-linejoin="round" stroke-width="2.11989"/>
<path d="M1000.02 23.4684L996.063 21.6691" fill="none" opacity="1" stroke="#5b9b40" stroke-linecap="butt" stroke-linejoin="round" stroke-width="2.11989"/>
<path d="M1004.85 29.0708L1005.24 22.328" fill="none" opacity="1" stroke="#5b9b40" stroke-linecap="butt" stroke-linejoin="round" stroke-width="2.11989"/>
<path d="M1003.85 20.5868L999.67 18.8527" fill="none" opacity="1" stroke="#5b9b40" stroke-linecap="butt" stroke-linejoin="round" stroke-width="2.11989"/>
</g>
</g>
</svg>
