<?xml version="1.0" encoding="UTF-8" standalone="no"?>
<!DOCTYPE svg PUBLIC "-//W3C//DTD SVG 1.1//EN" "http://www.w3.org/Graphics/SVG/1.1/DTD/svg11.dtd">
<!-- Created with Vectornator (http://vectornator.io/) -->
<svg height="100%" stroke-miterlimit="10" style="fill-rule:nonzero;clip-rule:evenodd;stroke-linecap:round;stroke-linejoin:round;" version="1.1" viewBox="0 0 844 390" width="100%" xml:space="preserve" xmlns="http://www.w3.org/2000/svg" xmlns:vectornator="http://vectornator.io" xmlns:xlink="http://www.w3.org/1999/xlink">
<defs/>
<g id="Layer-1" vectornator:layerName="Layer 1" visibility="hidden">
<path d="M476.579 139.343C492.797 143.381 506.953 158.016 506.953 158.016C506.953 158.016 548.802 204.908 538.831 235.442C528.86 265.975 508.132 283.048 467.07 280.151C454.481 279.262 445.122 267.839 418.793 267.79C392.464 267.742 377.21 279.896 361.755 279.956C346.3 280.015 339.547 266.965 315.884 266.174C292.221 265.384 302.348 275.435 267.103 276.793C231.859 278.152 240.938 274.819 215.376 261.723C189.814 248.627 195.13 212.67 195.13 212.67C195.13 212.67 163.044 198.9 167.281 182.445C171.518 165.989 203.428 150.863 203.428 150.863C203.428 150.863 208.257 118.797 225.061 111.1C241.865 103.403 266.32 113.895 266.32 113.895C266.32 113.895 273.87 84.3084 289.008 81.6323C304.146 78.9563 326.872 103.191 326.872 103.191C326.872 103.191 360.244 87.5779 376.203 101.12C392.162 114.662 399.357 155.815 399.357 155.815C399.357 155.815 399.514 133.562 415.524 126.985C431.534 120.408 449.495 137.23 449.495 137.23C449.495 137.23 460.361 135.305 476.579 139.343Z" fill="none" opacity="1" stroke="#959799" stroke-linecap="round" stroke-linejoin="round" stroke-width="4.17798"/>
</g>
<g id="Layer-2" vectornator:layerName="Layer 2" visibility="hidden">
<path d="M229.765 329.195C200.417 333.211 195.374 306.386 195.374 306.386C195.374 306.386 187.048 327.919 153.658 318.126C125.038 309.733 129.881 283.716 129.881 283.716C129.881 283.716 104.417 295.27 85.209 270.529C66.9585 247.02 95.7055 232.224 95.7055 232.224C95.7055 232.224 66.3118 234.284 62.9929 210.693C59.5441 186.179 85.3652 179.598 85.3652 179.598C85.3652 179.598 57.6006 161.874 67.2909 142.399C78.4275 120.017 102.806 132.534 102.806 132.534C102.806 132.534 90.8859 106.11 112.791 94.2084C136.187 81.4966 162.518 99.4673 162.518 99.4673C162.518 99.4673 158.237 69.2394 187.55 64.3153C220.599 58.7634 229.765 86.5185 229.765 86.5185C229.765 86.5185 236.976 55.8843 271.98 64.3153C311.287 73.7824 301.029 95.4512 301.029 95.4512C301.029 95.4512 318.05 74.835 344.926 92.4182C371.185 109.597 353.017 131.607 353.017 131.607C353.017 131.607 376.084 122.285 388.832 142.203C404.311 166.389 374.783 179.289 374.783 179.289C374.783 179.289 406.165 180.599 404.879 211.002C403.591 241.455 370.313 241.801 370.313 241.801C370.313 241.801 387.254 265.234 370.614 279.488C351.175 296.14 326.56 278.464 326.56 278.464C326.56 278.464 334.143 307.643 307.726 318.435C282.901 328.577 262.303 305.15 262.303 305.15C262.303 305.15 261.023 324.918 229.765 329.195Z" fill="#ffffff" fill-rule="nonzero" opacity="1" stroke="#000002" stroke-linecap="butt" stroke-linejoin="round" stroke-width="4.17798"/>
</g>
<g id="Layer-3" vectornator:layerName="Layer 3">
<path d="M421.809 255.025L340.893 249.975C340.893 249.975 297.382 248.585 293.338 225.108C289.134 200.713 314.853 186.624 314.853 186.624C314.853 186.624 287.252 171.661 296.337 151.896C306.778 129.181 330.819 128.181 330.819 128.181C330.819 128.181 318.089 102.137 339.616 89.5658C362.61 76.1386 389.482 93.2887 389.482 93.2887C389.482 93.2887 384.271 63.2072 413.418 57.3814C446.281 50.813 456.298 78.2723 456.298 78.2723C456.298 78.2723 480.157 66.2133 507.563 82.9594C534.339 99.3207 521.362 127.127 521.362 127.127C521.362 127.127 546.305 122.073 559.661 141.589C575.879 165.285 548.594 183.631 548.594 183.631C548.594 183.631 578.969 196.683 575.683 216.387C572.573 235.028 569.837 251.036 521.088 253.149C472.34 255.263 421.809 255.025 421.809 255.025Z" fill="#d6d6d6" fill-rule="nonzero" opacity="1" stroke="#000002" stroke-linecap="butt" stroke-linejoin="round" stroke-width="4.17798"/>
</g>
<g id="Layer-4" vectornator:layerName="Layer 4">
<path d="M498.874 217.89C498.874 209.758 506.035 203.166 514.869 203.166C523.703 203.166 530.864 209.758 530.864 217.89C530.864 226.022 523.703 232.614 514.869 232.614C506.035 232.614 498.874 226.022 498.874 217.89Z" fill="#ffffff" fill-rule="nonzero" opacity="1" stroke="#000002" stroke-linecap="butt" stroke-linejoin="round" stroke-width="4.17798"/>
</g>
<g id="Layer-6" vectornator:layerName="Layer 6">
<path d="M358.068 179.5C372.927 187.761 387.79 213.321 362.51 230.402" fill="none" opacity="1" stroke="#000002" stroke-linecap="round" stroke-linejoin="round" stroke-width="4.17798"/>
</g>
<g id="Layer-5" vectornator:layerName="Layer 5">
<path d="M390.523 150.461C390.523 138.386 400.694 128.597 413.241 128.597C425.788 128.597 435.96 138.386 435.96 150.461C435.96 162.537 425.788 172.326 413.241 172.326C400.694 172.326 390.523 162.537 390.523 150.461Z" fill="#ffffff" fill-rule="nonzero" opacity="1" stroke="#000002" stroke-linecap="butt" stroke-linejoin="round" stroke-width="4.17798"/>
<path d="M458.166 149.778C458.166 137.703 468.337 127.914 480.884 127.914C493.431 127.914 503.602 137.703 503.602 149.778C503.602 161.853 493.431 171.642 480.884 171.642C468.337 171.642 458.166 161.853 458.166 149.778Z" fill="#ffffff" fill-rule="nonzero" opacity="1" stroke="#000002" stroke-linecap="butt" stroke-linejoin="round" stroke-width="4.17798"/>
<path d="M414.437 161.564C414.437 157.319 418.108 153.878 422.636 153.878C427.164 153.878 430.835 157.319 430.835 161.564C430.835 165.809 427.164 169.251 422.636 169.251C418.108 169.251 414.437 165.809 414.437 161.564Z" fill="#000002" fill-rule="nonzero" opacity="1" stroke="#000002" stroke-linecap="butt" stroke-linejoin="round" stroke-width="4.17798"/>
<path d="M482.079 160.881C482.079 156.636 485.75 153.194 490.279 153.194C494.807 153.194 498.478 156.636 498.478 160.881C498.478 165.126 494.807 168.568 490.279 168.568C485.75 168.568 482.079 165.126 482.079 160.881Z" fill="#000002" fill-rule="nonzero" opacity="1" stroke="#000002" stroke-linecap="butt" stroke-linejoin="round" stroke-width="4.17798"/>
</g>
<g id="Layer-7" vectornator:layerName="Layer 7">
<path d="M383.176 126.026C381.427 111.149 425.556 106.616 433.764 123.238" fill="none" opacity="1" stroke="#000002" stroke-linecap="round" stroke-linejoin="round" stroke-width="4.17798"/>
<path d="M455.8 126.498C461.076 111.866 504.624 111.596 502.464 123.524" fill="none" opacity="1" stroke="#000002" stroke-linecap="round" stroke-linejoin="round" stroke-width="4.17798"/>
</g>
<clipPath id="ArtboardFrame">
<rect height="390" width="844" x="0" y="0"/>
</clipPath>
<g clip-path="url(#ArtboardFrame)" id="Layer-8" vectornator:layerName="Layer 8">
<path d="M594.734 198.245C611.193 194.438 636.021 204.047 681.051 173.827C693.656 165.367 704.946 151.323 704.97 135.229C704.999 115.498 681.844 106.239 666.297 106.157C640.175 106.019 623.671 112.442 612.75 137.686C599.274 168.836 633.783 178.201 654.68 170.335C663.758 166.918 684.567 147.68 677.916 138.763C670.196 128.413 647.942 131.232 647.942 131.232C631.316 139.757 655.82 147.323 655.82 147.323" fill="none" opacity="1" stroke="#959799" stroke-linecap="round" stroke-linejoin="round" stroke-width="4.17798"/>
<path d="M597.978 214.642C614.437 218.449 639.265 208.84 684.295 239.061C696.899 247.52 708.19 261.564 708.214 277.659C708.243 297.389 685.088 306.648 669.541 306.73C643.419 306.868 626.915 300.445 615.994 275.201C602.518 244.052 637.027 234.686 657.924 242.552C667.002 245.969 687.811 265.207 681.16 274.124C673.44 284.474 651.186 281.655 651.186 281.655C634.56 273.13 659.064 265.564 659.064 265.564" fill="none" opacity="1" stroke="#959799" stroke-linecap="round" stroke-linejoin="round" stroke-width="4.17798"/>
<path d="M911.232 210.766C964.064 207.028 998.99 210.105 1046.66 235.957C1060.01 243.193 1077.22 259.794 1078.76 275.815C1080.64 295.456 1092.25 312.348 1076.78 313.892C1050.79 316.486 1022.64 308.72 1009.39 284.615C993.046 254.871 1026.52 242.301 1048.07 248.166C1057.43 250.715 1070.79 259.131 1071.73 270.779C1072.78 283.648 1065.92 290.223 1057.6 286.905C1040.25 279.98 1056.31 269.78 1056.31 269.78" fill="none" opacity="1" stroke="#959799" stroke-linecap="round" stroke-linejoin="round" stroke-width="4.17798"/>
</g>
<g clip-path="url(#ArtboardFrame)" id="Layer-9" vectornator:layerName="Layer 9">
<g opacity="1">
<path d="M682.508 93.5266C682.508 93.5266 681.687 98.58 678.57 99.5189C674.822 100.648 662.295 94.7601 662.587 90.3905C662.869 86.1663 676.035 83.4109 680.34 86.2417C683.167 88.1006 682.508 93.5266 682.508 93.5266Z" fill="#70bf4f" fill-rule="nonzero" opacity="1" stroke="#000002" stroke-linecap="round" stroke-linejoin="round" stroke-width="2.0092"/>
<path d="M663.275 90.0795C665.762 90.1529 690.146 91.7694 688.719 97.9551" fill="none" opacity="1" stroke="#000002" stroke-linecap="round" stroke-linejoin="round" stroke-width="2.29757"/>
<path d="M666.749 94.6008L669.896 91.5311" fill="none" opacity="1" stroke="#5b9b40" stroke-linecap="butt" stroke-linejoin="round" stroke-width="2.29757"/>
<path d="M670.118 89.8566L668.551 86.8306" fill="none" opacity="1" stroke="#5b9b40" stroke-linecap="butt" stroke-linejoin="round" stroke-width="2.29757"/>
<path d="M670.38 96.9841L674.399 92.3707" fill="none" opacity="1" stroke="#5b9b40" stroke-linecap="butt" stroke-linejoin="round" stroke-width="2.29757"/>
<path d="M674.675 90.3765L672.84 86.0405" fill="none" opacity="1" stroke="#5b9b40" stroke-linecap="butt" stroke-linejoin="round" stroke-width="2.29757"/>
<path d="M674.421 98.3918L679.681 93.301" fill="none" opacity="1" stroke="#5b9b40" stroke-linecap="butt" stroke-linejoin="round" stroke-width="2.29757"/>
<path d="M679.844 90.8874L677.784 86.4399" fill="none" opacity="1" stroke="#5b9b40" stroke-linecap="butt" stroke-linejoin="round" stroke-width="2.29757"/>
</g>
<g opacity="1">
<path d="M674.934 191.475C674.934 191.475 674.925 186.356 677.849 184.923C681.364 183.201 694.68 186.978 695.101 191.337C695.507 195.551 682.964 200.406 678.256 198.312C675.165 196.936 674.934 191.475 674.934 191.475Z" fill="#70bf4f" fill-rule="nonzero" opacity="1" stroke="#000002" stroke-linecap="round" stroke-linejoin="round" stroke-width="2.0092"/>
<path d="M694.472 191.756C692.006 192.087 667.683 194.449 668.087 188.113" fill="none" opacity="1" stroke="#000002" stroke-linecap="round" stroke-linejoin="round" stroke-width="2.29757"/>
<path d="M690.31 187.858L687.703 191.398" fill="none" opacity="1" stroke="#5b9b40" stroke-linecap="butt" stroke-linejoin="round" stroke-width="2.29757"/>
<path d="M687.756 193.086L689.793 195.818" fill="none" opacity="1" stroke="#5b9b40" stroke-linecap="butt" stroke-linejoin="round" stroke-width="2.29757"/>
<path d="M686.34 186.096L683.124 191.3" fill="none" opacity="1" stroke="#5b9b40" stroke-linecap="butt" stroke-linejoin="round" stroke-width="2.29757"/>
<path d="M683.175 193.312L685.689 197.293" fill="none" opacity="1" stroke="#5b9b40" stroke-linecap="butt" stroke-linejoin="round" stroke-width="2.29757"/>
<path d="M682.125 185.362L677.761 191.239" fill="none" opacity="1" stroke="#5b9b40" stroke-linecap="butt" stroke-linejoin="round" stroke-width="2.29757"/>
<path d="M677.991 193.647L680.746 197.701" fill="none" opacity="1" stroke="#5b9b40" stroke-linecap="butt" stroke-linejoin="round" stroke-width="2.29757"/>
</g>
<g opacity="1">
<path d="M1189.09 245.492C1189.09 245.492 1191.57 249.972 1189.7 252.637C1187.46 255.841 1173.97 258.957 1171.5 255.342C1169.11 251.847 1177.75 241.543 1182.89 241.106C1186.26 240.819 1189.09 245.492 1189.09 245.492Z" fill="#70bf4f" fill-rule="nonzero" opacity="1" stroke="#000002" stroke-linecap="round" stroke-linejoin="round" stroke-width="2.0092"/>
<path d="M1171.85 254.672C1173.85 253.192 1194.01 239.389 1196.71 245.133" fill="none" opacity="1" stroke="#000002" stroke-linecap="round" stroke-linejoin="round" stroke-width="2.29757"/>
<path d="M1177.37 256.078L1177.95 251.72" fill="none" opacity="1" stroke="#5b9b40" stroke-linecap="butt" stroke-linejoin="round" stroke-width="2.29757"/>
<path d="M1177.09 250.267L1173.98 248.857" fill="none" opacity="1" stroke="#5b9b40" stroke-linecap="butt" stroke-linejoin="round" stroke-width="2.29757"/>
<path d="M1181.7 255.707L1182.01 249.597" fill="none" opacity="1" stroke="#5b9b40" stroke-linecap="butt" stroke-linejoin="round" stroke-width="2.29757"/>
<path d="M1180.99 247.859L1176.87 245.584" fill="none" opacity="1" stroke="#5b9b40" stroke-linecap="butt" stroke-linejoin="round" stroke-width="2.29757"/>
<path d="M1185.75 254.316L1186.73 247.062" fill="none" opacity="1" stroke="#5b9b40" stroke-linecap="butt" stroke-linejoin="round" stroke-width="2.29757"/>
<path d="M1185.37 245.064L1181 242.842" fill="none" opacity="1" stroke="#5b9b40" stroke-linecap="butt" stroke-linejoin="round" stroke-width="2.29757"/>
</g>
<g opacity="1">
<path d="M1115.83 19.6214C1115.83 19.6214 1118.43 23.5667 1116.9 26.151C1115.06 29.2584 1102.87 33.0828 1100.34 29.9327C1097.9 26.8873 1105.12 16.7938 1109.81 16.0277C1112.89 15.5246 1115.83 19.6214 1115.83 19.6214Z" fill="#70bf4f" fill-rule="nonzero" opacity="1" stroke="#000002" stroke-linecap="round" stroke-linejoin="round" stroke-width="1.85381"/>
<path d="M1100.61 29.2917C1102.35 27.7881 1119.92 13.6581 1122.81 18.7505" fill="none" opacity="1" stroke="#000002" stroke-linecap="round" stroke-linejoin="round" stroke-width="2.11989"/>
<path d="M1105.8 30.1927L1106.02 26.1428" fill="none" opacity="1" stroke="#5b9b40" stroke-linecap="butt" stroke-linejoin="round" stroke-width="2.11989"/>
<path d="M1105.12 24.867L1102.17 23.7903" fill="none" opacity="1" stroke="#5b9b40" stroke-linecap="butt" stroke-linejoin="round" stroke-width="2.11989"/>
<path d="M1109.75 29.5437L1109.6 23.9009" fill="none" opacity="1" stroke="#5b9b40" stroke-linecap="butt" stroke-linejoin="round" stroke-width="2.11989"/>
<path d="M1108.54 22.3742L1104.59 20.5749" fill="none" opacity="1" stroke="#5b9b40" stroke-linecap="butt" stroke-linejoin="round" stroke-width="2.11989"/>
<path d="M1113.38 27.9766L1113.77 21.2339" fill="none" opacity="1" stroke="#5b9b40" stroke-linecap="butt" stroke-linejoin="round" stroke-width="2.11989"/>
<path d="M1112.37 19.4927L1108.2 17.7585" fill="none" opacity="1" stroke="#5b9b40" stroke-linecap="butt" stroke-linejoin="round" stroke-width="2.11989"/>
</g>
<g opacity="1">
<path d="M707.955 237.331C707.955 237.331 712.238 234.841 714.854 236.595C718.001 238.704 721.292 251.686 717.846 254.152C714.514 256.535 704.368 248.384 703.84 243.426C703.493 240.171 707.955 237.331 707.955 237.331Z" fill="#70bf4f" fill-rule="nonzero" opacity="1" stroke="#000002" stroke-linecap="round" stroke-linejoin="round" stroke-width="1.94414"/>
<path d="M717.191 253.828C715.718 251.924 701.95 232.699 707.451 229.967" fill="none" opacity="1" stroke="#000002" stroke-linecap="round" stroke-linejoin="round" stroke-width="2.22318"/>
<path d="M718.437 248.454L714.21 247.987" fill="none" opacity="1" stroke="#5b9b40" stroke-linecap="butt" stroke-linejoin="round" stroke-width="2.22318"/>
<path d="M712.821 248.849L711.521 251.879" fill="none" opacity="1" stroke="#5b9b40" stroke-linecap="butt" stroke-linejoin="round" stroke-width="2.22318"/>
<path d="M717.989 244.275L712.072 244.104" fill="none" opacity="1" stroke="#5b9b40" stroke-linecap="butt" stroke-linejoin="round" stroke-width="2.22318"/>
<path d="M710.411 245.123L708.296 249.157" fill="none" opacity="1" stroke="#5b9b40" stroke-linecap="butt" stroke-linejoin="round" stroke-width="2.22318"/>
<path d="M716.56 240.389L709.523 239.583" fill="none" opacity="1" stroke="#5b9b40" stroke-linecap="butt" stroke-linejoin="round" stroke-width="2.22318"/>
<path d="M707.618 240.944L705.558 245.216" fill="none" opacity="1" stroke="#5b9b40" stroke-linecap="butt" stroke-linejoin="round" stroke-width="2.22318"/>
</g>
</g>
</svg>
