<?xml version="1.0" standalone="no"?>
<!DOCTYPE svg PUBLIC "-//W3C//DTD SVG 20010904//EN"
 "http://www.w3.org/TR/2001/REC-SVG-20010904/DTD/svg10.dtd">
<svg version="1.0" xmlns="http://www.w3.org/2000/svg"
 width="512.000000pt" height="512.000000pt" viewBox="0 0 512.000000 512.000000"
 preserveAspectRatio="xMidYMid meet">

<g transform="translate(0.000000,512.000000) scale(0.100000,-0.100000)"
fill="#000000" stroke="none">
<path d="M2085 5113 c-32 -9 -74 -42 -90 -73 -8 -16 -33 -111 -55 -212 -22
-101 -42 -192 -44 -203 -4 -14 -25 -27 -73 -44 -37 -14 -106 -42 -152 -63
l-84 -38 -175 111 c-195 125 -228 139 -294 120 -37 -11 -88 -58 -370 -339
-281 -282 -328 -333 -339 -370 -19 -66 -5 -99 120 -294 l111 -175 -38 -84
c-21 -46 -49 -115 -63 -152 -17 -48 -30 -69 -44 -73 -11 -2 -102 -22 -203 -44
-203 -44 -230 -55 -264 -102 l-23 -33 0 -485 0 -485 23 -33 c34 -47 61 -58
264 -102 101 -22 192 -42 203 -44 14 -4 27 -25 44 -73 14 -37 42 -106 63 -152
l38 -84 -111 -175 c-125 -195 -139 -228 -120 -294 11 -37 58 -88 339 -370 282
-281 333 -328 370 -339 66 -19 99 -5 294 120 l175 111 84 -38 c46 -21 115 -49
152 -63 48 -17 69 -30 73 -44 2 -11 22 -102 44 -203 44 -203 55 -230 102 -264
l33 -23 485 0 485 0 33 23 c47 34 58 61 102 264 22 101 42 192 44 203 4 14 25
27 73 44 37 13 106 41 152 63 l84 38 36 -22 c20 -13 100 -64 179 -115 79 -51
159 -95 179 -99 82 -15 94 -6 445 344 281 282 328 333 339 370 19 66 5 99
-120 294 l-111 175 38 84 c21 46 49 115 63 152 17 48 30 69 44 73 11 2 102 22
203 44 203 44 230 55 264 102 l23 33 0 485 0 485 -23 33 c-34 47 -61 58 -264
102 -101 22 -192 42 -203 44 -14 4 -27 25 -44 73 -14 37 -42 106 -63 152 l-38
84 111 175 c125 195 139 228 120 294 -11 37 -58 88 -339 370 -351 350 -363
359 -445 344 -20 -4 -100 -48 -179 -99 -79 -51 -159 -102 -179 -115 l-36 -22
-84 38 c-46 22 -115 50 -152 63 -48 17 -69 30 -73 44 -2 11 -22 102 -44 203
-44 203 -55 230 -102 264 l-33 23 -470 2 c-258 0 -479 -1 -490 -4z m675 -1659
c350 -80 610 -341 696 -699 35 -146 20 -361 -37 -515 -74 -201 -229 -379 -420
-484 -143 -78 -268 -109 -439 -109 -215 0 -396 61 -559 188 -231 179 -354 432
-354 725 0 215 61 396 188 559 157 203 362 316 640 355 52 7 217 -4 285 -20z"/>
</g>
</svg>
