<svg clip-rule="evenodd" stroke-linecap="round" stroke-linejoin="round" stroke-miterlimit="10" viewBox="0 0 844 390" xmlns="http://www.w3.org/2000/svg"><g stroke-linejoin="round"><g stroke-linecap="butt"><path d="m363.282 340.759 60.183-52.45-65.771-27.186z" fill="#ffa254" stroke="#ffa254" stroke-width="4.66859"/><path d="m476.937 62.5007-59.964 52.7023 65.885 26.91z" fill="#ffa254" stroke="#ffa254" stroke-width="4.66859"/><path d="m281.239 144.564 52.382 60.242 27.26-65.74z" fill="#ffa254" stroke="#ffa254" stroke-width="4.66859"/><path d="m559.369 258.532-52.634-60.023-26.985 65.854z" fill="#ffa254" stroke="#ffa254" stroke-width="4.66859"/><path d="m281.248 258.831 79.606 5.992-26.85-65.909z" fill="#ffa254" stroke="#ffa254" stroke-width="4.66859"/><path d="m559.133 144.266-79.631-5.66 27.126 65.796z" fill="#ffa254" stroke="#ffa254" stroke-width="4.66859"/><path d="m363.26 62.6219-6.083 79.6001 65.939-26.777z" fill="#ffa254" stroke="#ffa254" stroke-width="4.66859"/><path d="m477.511 340.636 5.749-79.624-65.826 27.052z" fill="#ffa254" stroke="#ffa254" stroke-width="4.66859"/><g fill="#fddf19"><path d="m420.248 370.296-30-90h60z" stroke="#fddf19" stroke-width="3.31801"/><path d="m420.248 30 30 90h-60z" stroke="#fddf19" stroke-width="3.31801"/><path d="m590.618 199.78-89.877 30.368-.245-60z" stroke="#fddf19" stroke-width="3.31801"/><path d="m249.782 200.809 89.778-30.659.44 59.998z" stroke="#fddf19" stroke-width="3.31801"/><path d="m299.157 319.726 42.966-84.58 42.155 42.695z" stroke="#fddf19" stroke-width="3.31801"/><path d="m541.311 80.6381-42.966 84.5809-42.156-42.696z" stroke="#fddf19" stroke-width="3.31801"/><path d="m540.196 321.158-84.756-42.619 42.523-42.33z" stroke="#fddf19" stroke-width="3.31801"/><path d="m299.996 79.3439 84.894 42.3441-42.385 42.468z" stroke="#fddf19" stroke-width="3.31801"/><path d="m340 200.148c0-44.264 35.928-80.148 80.248-80.148s80.248 35.884 80.248 80.148c0 44.265-35.928 80.148-80.248 80.148s-80.248-35.883-80.248-80.148z" stroke="#eebf5b" stroke-width="6.21593"/></g></g><g stroke="#000" stroke-linecap="round"><path d="m342.444 165.727c0 11.703-.319 27.855 9.976 31.719 16.777 6.297 38.161 5.893 52.691 1.639 13.474-3.944 15.02-22.078 15.138-34.929" stroke-width="3.31801"/><path d="m497.817 165.727c0 11.703.319 27.855-9.976 31.719-16.777 6.297-38.161 5.893-52.691 1.639-13.474-3.944-15.021-22.078-15.138-34.929" stroke-width="3.31801"/><path d="m343.438 164.156h153.148" fill="none" stroke-width="4.35337"/><path d="m397.282 231.869s2.171 15.944 22.73 16.161c19.12.203 21.654-16.161 21.654-16.161" fill="none" stroke-width="6.12568"/></g></g></svg>