<?xml version="1.0" encoding="UTF-8" standalone="no"?>
<!DOCTYPE svg PUBLIC "-//W3C//DTD SVG 1.1//EN" "http://www.w3.org/Graphics/SVG/1.1/DTD/svg11.dtd">
<!-- Created with Vectornator (http://vectornator.io/) -->
<svg height="100%" stroke-miterlimit="10" style="fill-rule:nonzero;clip-rule:evenodd;stroke-linecap:round;stroke-linejoin:round;" version="1.1" viewBox="0 0 844 390" width="100%" xml:space="preserve" xmlns="http://www.w3.org/2000/svg" xmlns:vectornator="http://vectornator.io" xmlns:xlink="http://www.w3.org/1999/xlink">
<defs/>
<g id="Layer-1" vectornator:layerName="Layer 1" visibility="hidden"/>
<g id="Layer-4" vectornator:layerName="Layer 4">
<path d="M350.204 334.626L415.138 288.186L352.275 254.821L350.204 334.626Z" fill="#ffa254" fill-rule="nonzero" opacity="1" stroke="#ffa254" stroke-linecap="butt" stroke-linejoin="round" stroke-width="4.66859"/>
<path d="M490.006 68.5421L425.267 115.254L488.269 148.355L490.006 68.5421Z" fill="#ffa254" fill-rule="nonzero" opacity="1" stroke="#ffa254" stroke-linecap="butt" stroke-linejoin="round" stroke-width="4.66859"/>
<path d="M287.343 131.47L333.71 196.456L367.146 133.631L287.343 131.47Z" fill="#ffa254" fill-rule="nonzero" opacity="1" stroke="#ffa254" stroke-linecap="butt" stroke-linejoin="round" stroke-width="4.66859"/>
<path d="M553.269 271.572L506.63 206.781L473.458 269.745L553.269 271.572Z" fill="#ffa254" fill-rule="nonzero" opacity="1" stroke="#ffa254" stroke-linecap="butt" stroke-linejoin="round" stroke-width="4.66859"/>
<path d="M276.4 245.212L355.066 258.807L334.656 190.628L276.4 245.212Z" fill="#ffa254" fill-rule="nonzero" opacity="1" stroke="#ffa254" stroke-linecap="butt" stroke-linejoin="round" stroke-width="4.66859"/>
<path d="M563.987 157.809L485.265 144.543L505.96 212.636L563.987 157.809Z" fill="#ffa254" fill-rule="nonzero" opacity="1" stroke="#ffa254" stroke-linecap="butt" stroke-linejoin="round" stroke-width="4.66859"/>
<path d="M376.84 57.7673L363.157 136.418L431.358 116.085L376.84 57.7673Z" fill="#ffa254" fill-rule="nonzero" opacity="1" stroke="#ffa254" stroke-linecap="butt" stroke-linejoin="round" stroke-width="4.66859"/>
<path d="M463.919 345.452L477.274 266.745L409.157 287.364L463.919 345.452Z" fill="#ffa254" fill-rule="nonzero" opacity="1" stroke="#ffa254" stroke-linecap="butt" stroke-linejoin="round" stroke-width="4.66859"/>
</g>
<g id="Layer-3" vectornator:layerName="Layer 3">
<path d="M420.248 370.296L390.248 280.296L450.248 280.296L420.248 370.296Z" fill="#fddf19" fill-rule="nonzero" opacity="1" stroke="#fddf19" stroke-linecap="butt" stroke-linejoin="round" stroke-width="3.31801"/>
<path d="M420.248 30L450.248 120L390.248 120L420.248 30Z" fill="#fddf19" fill-rule="nonzero" opacity="1" stroke="#fddf19" stroke-linecap="butt" stroke-linejoin="round" stroke-width="3.31801"/>
<path d="M590.618 199.78L500.741 230.148L500.496 170.148L590.618 199.78Z" fill="#fddf19" fill-rule="nonzero" opacity="1" stroke="#fddf19" stroke-linecap="butt" stroke-linejoin="round" stroke-width="3.31801"/>
<path d="M249.782 200.809L339.56 170.15L340 230.148L249.782 200.809Z" fill="#fddf19" fill-rule="nonzero" opacity="1" stroke="#fddf19" stroke-linecap="butt" stroke-linejoin="round" stroke-width="3.31801"/>
<path d="M299.157 319.726L342.123 235.146L384.278 277.841L299.157 319.726Z" fill="#fddf19" fill-rule="nonzero" opacity="1" stroke="#fddf19" stroke-linecap="butt" stroke-linejoin="round" stroke-width="3.31801"/>
<path d="M541.311 80.6381L498.345 165.219L456.189 122.523L541.311 80.6381Z" fill="#fddf19" fill-rule="nonzero" opacity="1" stroke="#fddf19" stroke-linecap="butt" stroke-linejoin="round" stroke-width="3.31801"/>
<path d="M540.196 321.158L455.44 278.539L497.963 236.209L540.196 321.158Z" fill="#fddf19" fill-rule="nonzero" opacity="1" stroke="#fddf19" stroke-linecap="butt" stroke-linejoin="round" stroke-width="3.31801"/>
<path d="M299.996 79.3439L384.89 121.688L342.505 164.156L299.996 79.3439Z" fill="#fddf19" fill-rule="nonzero" opacity="1" stroke="#fddf19" stroke-linecap="butt" stroke-linejoin="round" stroke-width="3.31801"/>
</g>
<g id="Layer-2" vectornator:layerName="Layer 2">
<path d="M340 200.148C340 155.884 375.928 120 420.248 120C464.568 120 500.496 155.884 500.496 200.148C500.496 244.413 464.568 280.296 420.248 280.296C375.928 280.296 340 244.413 340 200.148Z" fill="#fddf19" fill-rule="nonzero" opacity="1" stroke="#eebf5b" stroke-linecap="butt" stroke-linejoin="round" stroke-width="6.21593"/>
</g>
<g id="Layer-5" vectornator:layerName="Layer 5">
<path d="M342.444 165.727C342.444 177.43 342.125 193.582 352.42 197.446C369.197 203.743 390.581 203.339 405.111 199.085C418.585 195.141 420.131 177.007 420.249 164.156" fill="#000000" fill-rule="nonzero" opacity="1" stroke="#000000" stroke-linecap="round" stroke-linejoin="round" stroke-width="3.31801"/>
<path d="M497.817 165.727C497.817 177.43 498.136 193.582 487.841 197.446C471.064 203.743 449.68 203.339 435.15 199.085C421.676 195.141 420.129 177.007 420.012 164.156" fill="#000000" fill-rule="nonzero" opacity="1" stroke="#000000" stroke-linecap="round" stroke-linejoin="round" stroke-width="3.31801"/>
<path d="M343.438 164.156L496.586 164.156" fill="none" opacity="1" stroke="#000000" stroke-linecap="round" stroke-linejoin="round" stroke-width="4.35337"/>
</g>
<g id="Layer-6" vectornator:layerName="Layer 6">
<path d="M397.282 231.869C397.282 231.869 399.453 247.813 420.012 248.03C439.132 248.233 441.666 231.869 441.666 231.869" fill="none" opacity="1" stroke="#000000" stroke-linecap="round" stroke-linejoin="round" stroke-width="6.12568"/>
</g>
</svg>
