<svg clip-rule="evenodd" stroke-linecap="round" stroke-linejoin="round" stroke-miterlimit="10" viewBox="0 0 844 390" xmlns="http://www.w3.org/2000/svg"><g stroke-linejoin="round"><g stroke-linecap="butt"><path d="m337.234 326.962 69.26-39.702-59.203-39.495z" fill="#ffa254" stroke="#ffa254" stroke-width="4.66859"/><path d="m502.991 76.2226-69.093 39.9904 59.369 39.247z" fill="#ffa254" stroke="#ffa254" stroke-width="4.66859"/><path d="m295.044 118.53 39.623 69.304 39.561-59.159z" fill="#ffa254" stroke="#ffa254" stroke-width="4.66859"/><path d="m545.596 284.569-39.913-69.138-39.314 59.324z" fill="#ffa254" stroke="#ffa254" stroke-width="4.66859"/><path d="m272.76 230.603 76.908 21.408-13.476-69.881z" fill="#ffa254" stroke="#ffa254" stroke-width="4.66859"/><path d="m567.657 172.452-76.997-21.086 13.769 69.824z" fill="#ffa254" stroke="#ffa254" stroke-width="4.66859"/><path d="m391.475 54.1642-21.495 76.8838 69.896-13.398z" fill="#ffa254" stroke="#ffa254" stroke-width="4.66859"/><path d="m449.293 349.126 21.173-76.973-69.839 13.69z" fill="#ffa254" stroke="#ffa254" stroke-width="4.66859"/><path d="m420.248 370.296-30-90h60z" fill="#fddf19" stroke="#fddf19" stroke-width="3.31801"/><path d="m420.248 30 30 90h-60z" fill="#fddf19" stroke="#fddf19" stroke-width="3.31801"/><path d="m590.618 199.78-89.877 30.368-.245-60z" fill="#fddf19" stroke="#fddf19" stroke-width="3.31801"/><path d="m249.782 200.809 89.778-30.659.44 59.998z" fill="#fddf19" stroke="#fddf19" stroke-width="3.31801"/><path d="m299.157 319.726 42.966-84.58 42.155 42.695z" fill="#fddf19" stroke="#fddf19" stroke-width="3.31801"/><path d="m541.311 80.6381-42.966 84.5809-42.156-42.696z" fill="#fddf19" stroke="#fddf19" stroke-width="3.31801"/><path d="m540.196 321.158-84.756-42.619 42.523-42.33z" fill="#fddf19" stroke="#fddf19" stroke-width="3.31801"/><path d="m299.996 79.3439 84.894 42.3441-42.385 42.468z" fill="#fddf19" stroke="#fddf19" stroke-width="3.31801"/><path d="m340 200.148c0-44.264 35.928-80.148 80.248-80.148s80.248 35.884 80.248 80.148c0 44.265-35.928 80.148-80.248 80.148s-80.248-35.883-80.248-80.148z" fill="#fddf19" stroke="#eebf5b" stroke-width="6.21593"/></g><path d="m342.444 165.727c0 11.703-.319 27.855 9.976 31.719 16.777 6.297 38.161 5.893 52.691 1.639 13.474-3.944 15.02-22.078 15.138-34.929" stroke="#000" stroke-linecap="round" stroke-width="3.31801"/><path d="m497.817 165.727c0 11.703.319 27.855-9.976 31.719-16.777 6.297-38.161 5.893-52.691 1.639-13.474-3.944-15.021-22.078-15.138-34.929" stroke="#000" stroke-linecap="round" stroke-width="3.31801"/><path d="m343.438 164.156h153.148" fill="none" stroke="#000" stroke-linecap="round" stroke-width="4.35337"/><path d="m397.282 231.869s2.171 15.944 22.73 16.161c19.12.203 21.654-16.161 21.654-16.161" fill="none" stroke="#000" stroke-linecap="round" stroke-width="6.12568"/></g></svg>