<?xml version="1.0" encoding="UTF-8" standalone="no"?>
<!DOCTYPE svg PUBLIC "-//W3C//DTD SVG 1.1//EN" "http://www.w3.org/Graphics/SVG/1.1/DTD/svg11.dtd">
<!-- Created with Vectornator (http://vectornator.io/) -->
<svg height="100%" stroke-miterlimit="10" style="fill-rule:nonzero;clip-rule:evenodd;stroke-linecap:round;stroke-linejoin:round;" version="1.1" viewBox="0 0 844 390" width="100%" xml:space="preserve" xmlns="http://www.w3.org/2000/svg" xmlns:vectornator="http://vectornator.io" xmlns:xlink="http://www.w3.org/1999/xlink">
<defs>
<path d="M369.384 438.36L398.054 483.56C398.054 483.56 386.203 482.732 379.452 482.471C384.539 493.51 400.672 528.287 400.672 528.287L364.241 473.166L384.595 474.133L369.384 438.36Z" id="Fill"/>
<path d="M454.043 424.395L482.713 469.595C482.713 469.595 470.862 468.767 464.11 468.506C469.198 479.545 485.331 514.322 485.331 514.322L448.9 459.202L469.253 460.168L454.043 424.395Z" id="Fill_2"/>
<path d="M524.341 410.698L502.026 459.35C502.026 459.35 513.657 456.933 520.312 455.764C516.759 467.388 505.461 504.022 505.461 504.022L534.129 444.494L514.092 448.195L524.341 410.698Z" id="Fill_3"/>
<path d="M336.486 424.395L307.816 469.595C307.816 469.595 319.667 468.767 326.418 468.506C321.331 479.545 305.198 514.322 305.198 514.322L341.629 459.202L321.275 460.168L336.486 424.395Z" id="Fill_4"/>
<path d="M532.272 150.83C532.272 150.83 556.299 110.999 519.268 91.007C485.857 72.9701 463.911 103.626 463.911 103.626C463.911 103.626 464.352 68.1915 427.527 59.6722C384.469 49.7112 375.429 102.222 375.429 102.222C375.429 102.222 347.861 70.3618 312.59 87.8067C279.233 104.305 301.577 149.399 301.577 149.399C301.577 149.399 263.043 149.358 258.74 190.074C255.834 217.581 278.946 237.904 309.305 239.974C387.776 245.323 471.9 241.429 548.061 238.569C564.437 237.954 592.602 213.45 586.081 182.112C579.472 150.352 532.272 150.83 532.272 150.83Z" id="Fill_5"/>
<path d="M348.165 157.001C348.165 147.276 360.544 139.392 375.815 139.392C391.085 139.392 403.464 147.276 403.464 157.001C403.464 166.727 391.085 174.611 375.815 174.611C360.544 174.611 348.165 166.727 348.165 157.001Z" id="Fill_6"/>
<path d="M485.331 156.075C485.331 146.349 472.952 138.466 457.682 138.466C442.411 138.466 430.032 146.349 430.032 156.075C430.032 165.8 442.411 173.684 457.682 173.684C472.952 173.684 485.331 165.8 485.331 156.075Z" id="Fill_7"/>
<path d="M375.815 168.895C375.815 165.739 378.789 163.18 382.457 163.18C386.125 163.18 389.099 165.739 389.099 168.895C389.099 172.052 386.125 174.611 382.457 174.611C378.789 174.611 375.815 172.052 375.815 168.895Z" id="Fill_8"/>
<path d="M457.682 167.969C457.682 164.812 454.708 162.253 451.04 162.253C447.371 162.253 444.398 164.812 444.398 167.969C444.398 171.125 447.371 173.684 451.04 173.684C454.708 173.684 457.682 171.125 457.682 167.969Z" id="Fill_9"/>
</defs>
<g id="Layer-1" vectornator:layerName="Layer 1"/>
<clipPath id="ArtboardFrame">
<rect height="390" width="844" x="0" y="0"/>
</clipPath>
<g clip-path="url(#ArtboardFrame)" id="Layer-3" vectornator:layerName="Layer 3">
<g opacity="1">
<use fill="#fff713" fill-rule="nonzero" stroke="none" xlink:href="#Fill"/>
<mask height="98.2829" id="StrokeMask" maskUnits="userSpaceOnUse" width="44.7869" x="360.063" y="434.182">
<rect fill="#ffffff" height="98.2829" stroke="none" width="44.7869" x="360.063" y="434.182"/>
<use fill="#000000" fill-rule="evenodd" stroke="none" xlink:href="#Fill"/>
</mask>
<use fill="none" mask="url(#StrokeMask)" stroke="#000002" stroke-linecap="round" stroke-linejoin="round" stroke-width="8.35597" xlink:href="#Fill"/>
</g>
<g opacity="1">
<use fill="#fff713" fill-rule="nonzero" stroke="none" xlink:href="#Fill_2"/>
<mask height="98.2829" id="StrokeMask_2" maskUnits="userSpaceOnUse" width="44.7869" x="444.722" y="420.217">
<rect fill="#ffffff" height="98.2829" stroke="none" width="44.7869" x="444.722" y="420.217"/>
<use fill="#000000" fill-rule="evenodd" stroke="none" xlink:href="#Fill_2"/>
</mask>
<use fill="none" mask="url(#StrokeMask_2)" stroke="#000002" stroke-linecap="round" stroke-linejoin="round" stroke-width="8.35597" xlink:href="#Fill_2"/>
</g>
<g opacity="1">
<use fill="#fff713" fill-rule="nonzero" stroke="none" xlink:href="#Fill_3"/>
<mask height="101.68" id="StrokeMask_3" maskUnits="userSpaceOnUse" width="40.4592" x="497.848" y="406.52">
<rect fill="#ffffff" height="101.68" stroke="none" width="40.4592" x="497.848" y="406.52"/>
<use fill="#000000" fill-rule="evenodd" stroke="none" xlink:href="#Fill_3"/>
</mask>
<use fill="none" mask="url(#StrokeMask_3)" stroke="#000002" stroke-linecap="round" stroke-linejoin="round" stroke-width="8.35597" xlink:href="#Fill_3"/>
</g>
<g opacity="1">
<use fill="#fff713" fill-rule="nonzero" stroke="none" xlink:href="#Fill_4"/>
<mask height="98.2829" id="StrokeMask_4" maskUnits="userSpaceOnUse" width="44.7869" x="301.02" y="420.217">
<rect fill="#ffffff" height="98.2829" stroke="none" width="44.7869" x="301.02" y="420.217"/>
<use fill="#000000" fill-rule="evenodd" stroke="none" xlink:href="#Fill_4"/>
</mask>
<use fill="none" mask="url(#StrokeMask_4)" stroke="#000002" stroke-linecap="round" stroke-linejoin="round" stroke-width="8.35597" xlink:href="#Fill_4"/>
</g>
</g>
<g id="Layer-2" vectornator:layerName="Layer 2">
<g opacity="1">
<use fill="#4e4f51" fill-rule="nonzero" stroke="none" xlink:href="#Fill_5"/>
<mask height="197.15" id="StrokeMask_5" maskUnits="userSpaceOnUse" width="341.478" x="252.029" y="51.9511">
<rect fill="#ffffff" height="197.15" stroke="none" width="341.478" x="252.029" y="51.9511"/>
<use fill="#000000" fill-rule="evenodd" stroke="none" xlink:href="#Fill_5"/>
</mask>
<use fill="none" mask="url(#StrokeMask_5)" stroke="#000002" stroke-linecap="round" stroke-linejoin="round" stroke-width="12.9281" xlink:href="#Fill_5"/>
</g>
</g>
<g id="Layer-4" vectornator:layerName="Layer 4">
<g opacity="1">
<use fill="#ffffff" fill-rule="nonzero" stroke="none" xlink:href="#Fill_6"/>
<mask height="43.5741" id="StrokeMask_6" maskUnits="userSpaceOnUse" width="63.6546" x="343.987" y="135.214">
<rect fill="#ffffff" height="43.5741" stroke="none" width="63.6546" x="343.987" y="135.214"/>
<use fill="#000000" fill-rule="evenodd" stroke="none" xlink:href="#Fill_6"/>
</mask>
<use fill="none" mask="url(#StrokeMask_6)" stroke="#000002" stroke-linecap="butt" stroke-linejoin="round" stroke-width="8.35597" xlink:href="#Fill_6"/>
</g>
<g opacity="1">
<use fill="#ffffff" fill-rule="nonzero" stroke="none" xlink:href="#Fill_7"/>
<mask height="43.5741" id="StrokeMask_7" maskUnits="userSpaceOnUse" width="63.6546" x="425.854" y="134.288">
<rect fill="#ffffff" height="43.5741" stroke="none" width="63.6546" x="425.854" y="134.288"/>
<use fill="#000000" fill-rule="evenodd" stroke="none" xlink:href="#Fill_7"/>
</mask>
<use fill="none" mask="url(#StrokeMask_7)" stroke="#000002" stroke-linecap="butt" stroke-linejoin="round" stroke-width="8.35597" xlink:href="#Fill_7"/>
</g>
<g opacity="1">
<use fill="#000002" fill-rule="nonzero" stroke="none" xlink:href="#Fill_8"/>
<mask height="19.7864" id="StrokeMask_8" maskUnits="userSpaceOnUse" width="21.64" x="371.637" y="159.002">
<rect fill="#ffffff" height="19.7864" stroke="none" width="21.64" x="371.637" y="159.002"/>
<use fill="#000000" fill-rule="evenodd" stroke="none" xlink:href="#Fill_8"/>
</mask>
<use fill="none" mask="url(#StrokeMask_8)" stroke="#000002" stroke-linecap="butt" stroke-linejoin="round" stroke-width="8.35597" xlink:href="#Fill_8"/>
</g>
<g opacity="1">
<use fill="#000002" fill-rule="nonzero" stroke="none" xlink:href="#Fill_9"/>
<mask height="19.7864" id="StrokeMask_9" maskUnits="userSpaceOnUse" width="21.64" x="440.22" y="158.075">
<rect fill="#ffffff" height="19.7864" stroke="none" width="21.64" x="440.22" y="158.075"/>
<use fill="#000000" fill-rule="evenodd" stroke="none" xlink:href="#Fill_9"/>
</mask>
<use fill="none" mask="url(#StrokeMask_9)" stroke="#000002" stroke-linecap="butt" stroke-linejoin="round" stroke-width="8.35597" xlink:href="#Fill_9"/>
</g>
<path d="M350.647 122.549L412.413 140.505" fill="none" opacity="1" stroke="#000002" stroke-linecap="butt" stroke-linejoin="round" stroke-width="12.5"/>
<path d="M484.108 122.549L422.342 140.505" fill="none" opacity="1" stroke="#000002" stroke-linecap="butt" stroke-linejoin="round" stroke-width="12.5"/>
</g>
<g id="Layer-5" vectornator:layerName="Layer 5">
<path d="M391.713 205.504C401.611 199.88 438.024 202.169 444.398 205.504" fill="none" opacity="1" stroke="#000002" stroke-linecap="round" stroke-linejoin="round" stroke-width="4.17798"/>
</g>
</svg>
