<?xml version="1.0" encoding="UTF-8" standalone="no"?>
<!DOCTYPE svg PUBLIC "-//W3C//DTD SVG 1.1//EN" "http://www.w3.org/Graphics/SVG/1.1/DTD/svg11.dtd">
<!-- Created with Vectornator (http://vectornator.io/) -->
<svg height="100%" stroke-miterlimit="10" style="fill-rule:nonzero;clip-rule:evenodd;stroke-linecap:round;stroke-linejoin:round;" version="1.1" viewBox="0 0 844 390" width="100%" xml:space="preserve" xmlns="http://www.w3.org/2000/svg" xmlns:vectornator="http://vectornator.io" xmlns:xlink="http://www.w3.org/1999/xlink">
<defs>
<path d="M466.469 155.188C464.627 156.128 462.838 157.039 460.406 158.344C459.537 158.81 459.398 158.868 457.125 160.094C450.972 163.413 446.431 165.768 442.469 167.625C441.172 172.79 440.375 178.634 440.375 184.938C440.375 204.97 447.812 221.219 457 221.219C466.188 221.219 473.656 204.97 473.656 184.938C473.656 172.59 470.791 161.739 466.469 155.188Z" id="Fill"/>
<path d="M379.79 154.099C381.632 155.04 383.421 155.95 385.853 157.255C386.722 157.722 386.862 157.779 389.134 159.005C395.287 162.324 399.829 164.679 403.79 166.536C405.088 171.701 405.884 177.545 405.884 183.849C405.884 203.882 398.447 220.13 389.259 220.13C380.071 220.13 372.603 203.882 372.603 183.849C372.603 171.501 375.468 160.65 379.79 154.099Z" id="Fill_2"/>
</defs>
<g id="Layer-1" vectornator:layerName="Layer 1" visibility="hidden"/>
<g id="Layer-4" vectornator:layerName="Layer 4">
<path d="M363.282 340.759L423.465 288.309L357.694 261.123L363.282 340.759Z" fill="#cc4029" fill-rule="nonzero" opacity="1" stroke="#c84b4f" stroke-linecap="butt" stroke-linejoin="round" stroke-width="4.66859"/>
<path d="M476.937 62.5007L416.973 115.203L482.858 142.113L476.937 62.5007Z" fill="#cc4029" fill-rule="nonzero" opacity="1" stroke="#c84b4f" stroke-linecap="butt" stroke-linejoin="round" stroke-width="4.66859"/>
<path d="M281.239 144.564L333.621 204.806L360.881 139.066L281.239 144.564Z" fill="#cc4029" fill-rule="nonzero" opacity="1" stroke="#c84b4f" stroke-linecap="butt" stroke-linejoin="round" stroke-width="4.66859"/>
<path d="M559.369 258.532L506.735 198.509L479.75 264.363L559.369 258.532Z" fill="#cc4029" fill-rule="nonzero" opacity="1" stroke="#c84b4f" stroke-linecap="butt" stroke-linejoin="round" stroke-width="4.66859"/>
<path d="M281.248 258.831L360.854 264.823L334.004 198.914L281.248 258.831Z" fill="#cc4029" fill-rule="nonzero" opacity="1" stroke="#c84b4f" stroke-linecap="butt" stroke-linejoin="round" stroke-width="4.66859"/>
<path d="M559.133 144.266L479.502 138.606L506.628 204.402L559.133 144.266Z" fill="#cc4029" fill-rule="nonzero" opacity="1" stroke="#c84b4f" stroke-linecap="butt" stroke-linejoin="round" stroke-width="4.66859"/>
<path d="M363.26 62.6219L357.177 142.222L423.116 115.445L363.26 62.6219Z" fill="#cc4029" fill-rule="nonzero" opacity="1" stroke="#c84b4f" stroke-linecap="butt" stroke-linejoin="round" stroke-width="4.66859"/>
<path d="M477.511 340.636L483.26 261.012L417.434 288.064L477.511 340.636Z" fill="#cc4029" fill-rule="nonzero" opacity="1" stroke="#c84b4f" stroke-linecap="butt" stroke-linejoin="round" stroke-width="4.66859"/>
</g>
<g id="Layer-4-copy" vectornator:layerName="Layer 4 copy" visibility="hidden">
<path d="M337.234 326.962L406.494 287.26L347.291 247.765L337.234 326.962Z" fill="#cc4029" fill-rule="nonzero" opacity="1" stroke="#c84b4f" stroke-linecap="butt" stroke-linejoin="round" stroke-width="4.66859"/>
<path d="M502.991 76.2226L433.898 116.213L493.267 155.46L502.991 76.2226Z" fill="#cc4029" fill-rule="nonzero" opacity="1" stroke="#c84b4f" stroke-linecap="butt" stroke-linejoin="round" stroke-width="4.66859"/>
<path d="M295.044 118.53L334.667 187.834L374.228 128.675L295.044 118.53Z" fill="#cc4029" fill-rule="nonzero" opacity="1" stroke="#c84b4f" stroke-linecap="butt" stroke-linejoin="round" stroke-width="4.66859"/>
<path d="M545.596 284.569L505.683 215.431L466.369 274.755L545.596 284.569Z" fill="#cc4029" fill-rule="nonzero" opacity="1" stroke="#c84b4f" stroke-linecap="butt" stroke-linejoin="round" stroke-width="4.66859"/>
<path d="M272.76 230.603L349.668 252.011L336.192 182.13L272.76 230.603Z" fill="#cc4029" fill-rule="nonzero" opacity="1" stroke="#c84b4f" stroke-linecap="butt" stroke-linejoin="round" stroke-width="4.66859"/>
<path d="M567.657 172.452L490.66 151.366L504.429 221.19L567.657 172.452Z" fill="#cc4029" fill-rule="nonzero" opacity="1" stroke="#c84b4f" stroke-linecap="butt" stroke-linejoin="round" stroke-width="4.66859"/>
<path d="M391.475 54.1642L369.98 131.048L439.876 117.65L391.475 54.1642Z" fill="#cc4029" fill-rule="nonzero" opacity="1" stroke="#c84b4f" stroke-linecap="butt" stroke-linejoin="round" stroke-width="4.66859"/>
<path d="M449.293 349.126L470.466 272.153L400.627 285.843L449.293 349.126Z" fill="#cc4029" fill-rule="nonzero" opacity="1" stroke="#c84b4f" stroke-linecap="butt" stroke-linejoin="round" stroke-width="4.66859"/>
</g>
<g id="Layer-4-copy-copy" vectornator:layerName="Layer 4 copy copy" visibility="hidden">
<path d="M391.52 349.21L440.315 286.027L370.504 272.195L391.52 349.21Z" fill="#cc4029" fill-rule="nonzero" opacity="1" stroke="#c84b4f" stroke-linecap="butt" stroke-linejoin="round" stroke-width="4.66859"/>
<path d="M448.706 54.1255L400.176 117.513L470.044 131.053L448.706 54.1255Z" fill="#cc4029" fill-rule="nonzero" opacity="1" stroke="#c84b4f" stroke-linecap="butt" stroke-linejoin="round" stroke-width="4.66859"/>
<path d="M272.778 172.79L335.906 221.656L349.817 151.861L272.778 172.79Z" fill="#cc4029" fill-rule="nonzero" opacity="1" stroke="#c84b4f" stroke-linecap="butt" stroke-linejoin="round" stroke-width="4.66859"/>
<path d="M567.798 230.309L504.465 181.707L490.847 251.561L567.798 230.309Z" fill="#cc4029" fill-rule="nonzero" opacity="1" stroke="#c84b4f" stroke-linecap="butt" stroke-linejoin="round" stroke-width="4.66859"/>
<path d="M295.079 284.86L374.325 275.207L335.132 215.803L295.079 284.86Z" fill="#cc4029" fill-rule="nonzero" opacity="1" stroke="#c84b4f" stroke-linecap="butt" stroke-linejoin="round" stroke-width="4.66859"/>
<path d="M545.274 118.284L466.069 128.268L505.51 187.508L545.274 118.284Z" fill="#cc4029" fill-rule="nonzero" opacity="1" stroke="#c84b4f" stroke-linecap="butt" stroke-linejoin="round" stroke-width="4.66859"/>
<path d="M337.237 76.4216L346.8 155.679L406.249 116.553L337.237 76.4216Z" fill="#cc4029" fill-rule="nonzero" opacity="1" stroke="#c84b4f" stroke-linecap="butt" stroke-linejoin="round" stroke-width="4.66859"/>
<path d="M503.531 326.805L493.635 247.588L434.352 286.963L503.531 326.805Z" fill="#cc4029" fill-rule="nonzero" opacity="1" stroke="#c84b4f" stroke-linecap="butt" stroke-linejoin="round" stroke-width="4.66859"/>
</g>
<g id="Layer-4-copy-copy-copy" vectornator:layerName="Layer 4 copy copy copy" visibility="hidden">
<path d="M349.919 334.5L414.954 288.201L352.164 254.7L349.919 334.5Z" fill="#cc4029" fill-rule="nonzero" opacity="1" stroke="#c84b4f" stroke-linecap="butt" stroke-linejoin="round" stroke-width="4.66859"/>
<path d="M490.301 68.7216L425.46 115.292L488.39 148.531L490.301 68.7216Z" fill="#cc4029" fill-rule="nonzero" opacity="1" stroke="#c84b4f" stroke-linecap="butt" stroke-linejoin="round" stroke-width="4.66859"/>
<path d="M287.502 131.208L333.727 196.295L367.3 133.543L287.502 131.208Z" fill="#cc4029" fill-rule="nonzero" opacity="1" stroke="#c84b4f" stroke-linecap="butt" stroke-linejoin="round" stroke-width="4.66859"/>
<path d="M553.122 271.889L506.624 206.996L473.315 269.888L553.122 271.889Z" fill="#cc4029" fill-rule="nonzero" opacity="1" stroke="#c84b4f" stroke-linecap="butt" stroke-linejoin="round" stroke-width="4.66859"/>
<path d="M276.311 244.925L354.947 258.692L334.685 190.469L276.311 244.925Z" fill="#cc4029" fill-rule="nonzero" opacity="1" stroke="#c84b4f" stroke-linecap="butt" stroke-linejoin="round" stroke-width="4.66859"/>
<path d="M564.087 158.15L485.394 144.712L505.941 212.85L564.087 158.15Z" fill="#cc4029" fill-rule="nonzero" opacity="1" stroke="#c84b4f" stroke-linecap="butt" stroke-linejoin="round" stroke-width="4.66859"/>
<path d="M377.16 57.7L363.304 136.32L431.55 116.136L377.16 57.7Z" fill="#cc4029" fill-rule="nonzero" opacity="1" stroke="#c84b4f" stroke-linecap="butt" stroke-linejoin="round" stroke-width="4.66859"/>
<path d="M463.611 345.574L477.137 266.897L408.976 287.366L463.611 345.574Z" fill="#cc4029" fill-rule="nonzero" opacity="1" stroke="#c84b4f" stroke-linecap="butt" stroke-linejoin="round" stroke-width="4.66859"/>
</g>
<g id="Layer-4-copy-copy-copy-copy" vectornator:layerName="Layer 4 copy copy copy copy" visibility="hidden">
<path d="M377.193 345.679L431.946 287.582L363.827 266.974L377.193 345.679Z" fill="#cc4029" fill-rule="nonzero" opacity="1" stroke="#c84b4f" stroke-linecap="butt" stroke-linejoin="round" stroke-width="4.66859"/>
<path d="M463.027 57.6196L408.518 115.945L476.723 136.268L463.027 57.6196Z" fill="#cc4029" fill-rule="nonzero" opacity="1" stroke="#c84b4f" stroke-linecap="butt" stroke-linejoin="round" stroke-width="4.66859"/>
<path d="M276.315 158.469L334.35 213.288L355.035 145.192L276.315 158.469Z" fill="#cc4029" fill-rule="nonzero" opacity="1" stroke="#c84b4f" stroke-linecap="butt" stroke-linejoin="round" stroke-width="4.66859"/>
<path d="M564.277 244.628L506.013 190.053L485.613 258.235L564.277 244.628Z" fill="#cc4029" fill-rule="nonzero" opacity="1" stroke="#c84b4f" stroke-linecap="butt" stroke-linejoin="round" stroke-width="4.66859"/>
<path d="M287.524 272.185L367.335 270.346L334.153 207.386L287.524 272.185Z" fill="#cc4029" fill-rule="nonzero" opacity="1" stroke="#c84b4f" stroke-linecap="butt" stroke-linejoin="round" stroke-width="4.66859"/>
<path d="M552.842 130.934L473.04 133.107L506.484 195.928L552.842 130.934Z" fill="#cc4029" fill-rule="nonzero" opacity="1" stroke="#c84b4f" stroke-linecap="butt" stroke-linejoin="round" stroke-width="4.66859"/>
<path d="M349.909 68.8826L351.658 148.695L414.655 115.585L349.909 68.8826Z" fill="#cc4029" fill-rule="nonzero" opacity="1" stroke="#c84b4f" stroke-linecap="butt" stroke-linejoin="round" stroke-width="4.66859"/>
<path d="M490.861 334.36L488.778 254.555L425.92 287.929L490.861 334.36Z" fill="#cc4029" fill-rule="nonzero" opacity="1" stroke="#c84b4f" stroke-linecap="butt" stroke-linejoin="round" stroke-width="4.66859"/>
</g>
<g id="Layer-3" vectornator:layerName="Layer 3">
<path d="M420.248 370.296L390.248 280.296L450.248 280.296L420.248 370.296Z" fill="#ffa254" fill-rule="nonzero" opacity="1" stroke="#ffa254" stroke-linecap="butt" stroke-linejoin="round" stroke-width="3.31801"/>
<path d="M420.248 30L450.248 120L390.248 120L420.248 30Z" fill="#ffa254" fill-rule="nonzero" opacity="1" stroke="#ffa254" stroke-linecap="butt" stroke-linejoin="round" stroke-width="3.31801"/>
<path d="M590.618 199.78L500.741 230.148L500.496 170.148L590.618 199.78Z" fill="#ffa254" fill-rule="nonzero" opacity="1" stroke="#ffa254" stroke-linecap="butt" stroke-linejoin="round" stroke-width="3.31801"/>
<path d="M249.782 200.809L339.56 170.15L340 230.148L249.782 200.809Z" fill="#ffa254" fill-rule="nonzero" opacity="1" stroke="#ffa254" stroke-linecap="butt" stroke-linejoin="round" stroke-width="3.31801"/>
<path d="M299.157 319.726L342.123 235.146L384.278 277.841L299.157 319.726Z" fill="#ffa254" fill-rule="nonzero" opacity="1" stroke="#ffa254" stroke-linecap="butt" stroke-linejoin="round" stroke-width="3.31801"/>
<path d="M541.311 80.6381L498.345 165.219L456.189 122.523L541.311 80.6381Z" fill="#ffa254" fill-rule="nonzero" opacity="1" stroke="#ffa254" stroke-linecap="butt" stroke-linejoin="round" stroke-width="3.31801"/>
<path d="M540.196 321.158L455.44 278.539L497.963 236.209L540.196 321.158Z" fill="#ffa254" fill-rule="nonzero" opacity="1" stroke="#ffa254" stroke-linecap="butt" stroke-linejoin="round" stroke-width="3.31801"/>
<path d="M299.996 79.3439L384.89 121.688L342.505 164.156L299.996 79.3439Z" fill="#ffa254" fill-rule="nonzero" opacity="1" stroke="#ffa254" stroke-linecap="butt" stroke-linejoin="round" stroke-width="3.31801"/>
</g>
<g id="Layer-2" vectornator:layerName="Layer 2">
<path d="M340 200.148C340 155.884 375.928 120 420.248 120C464.568 120 500.496 155.884 500.496 200.148C500.496 244.413 464.568 280.296 420.248 280.296C375.928 280.296 340 244.413 340 200.148Z" fill="#ffbf1e" fill-rule="nonzero" opacity="1" stroke="#916035" stroke-linecap="butt" stroke-linejoin="round" stroke-width="6.21593"/>
</g>
<g id="Layer-5" vectornator:layerName="Layer 5" visibility="hidden">
<path d="M342.444 165.727C342.444 177.43 342.125 193.582 352.42 197.446C369.197 203.743 390.581 203.339 405.111 199.085C418.585 195.141 420.131 177.007 420.249 164.156" fill="#000000" fill-rule="nonzero" opacity="1" stroke="#000000" stroke-linecap="round" stroke-linejoin="round" stroke-width="3.31801"/>
<path d="M497.817 165.727C497.817 177.43 498.136 193.582 487.841 197.446C471.064 203.743 449.68 203.339 435.15 199.085C421.676 195.141 420.129 177.007 420.012 164.156" fill="#000000" fill-rule="nonzero" opacity="1" stroke="#000000" stroke-linecap="round" stroke-linejoin="round" stroke-width="3.31801"/>
<path d="M343.438 164.156L496.586 164.156" fill="none" opacity="1" stroke="#000000" stroke-linecap="round" stroke-linejoin="round" stroke-width="4.35337"/>
</g>
<g id="Layer-6" vectornator:layerName="Layer 6">
<path d="M398.056 258.42C398.056 258.42 400.227 236.511 420.785 236.212C439.906 235.933 442.44 258.42 442.44 258.42" fill="none" opacity="1" stroke="#000000" stroke-linecap="round" stroke-linejoin="round" stroke-width="6.12568"/>
</g>
<g id="Layer-8" vectornator:layerName="Layer 8">
<g opacity="1">
<use fill="#ffffff" fill-rule="nonzero" stroke="none" xlink:href="#Fill"/>
<mask height="78.2826" id="StrokeMask" maskUnits="userSpaceOnUse" width="45.5326" x="434.249" y="149.062">
<rect fill="#ffffff" height="78.2826" stroke="none" width="45.5326" x="434.249" y="149.062"/>
<use fill="#000000" fill-rule="evenodd" stroke="none" xlink:href="#Fill"/>
</mask>
<use fill="none" mask="url(#StrokeMask)" stroke="#000000" stroke-linecap="butt" stroke-linejoin="round" stroke-width="12.2514" xlink:href="#Fill"/>
</g>
<g opacity="1">
<use fill="#ffffff" fill-rule="nonzero" stroke="none" xlink:href="#Fill_2"/>
<mask height="78.2826" id="StrokeMask_2" maskUnits="userSpaceOnUse" width="45.5326" x="366.477" y="147.973">
<rect fill="#ffffff" height="78.2826" stroke="none" width="45.5326" x="366.477" y="147.973"/>
<use fill="#000000" fill-rule="evenodd" stroke="none" xlink:href="#Fill_2"/>
</mask>
<use fill="none" mask="url(#StrokeMask_2)" stroke="#000000" stroke-linecap="butt" stroke-linejoin="round" stroke-width="12.2514" xlink:href="#Fill_2"/>
</g>
<path d="M450.368 205.367C450.665 196.764 454.024 189.912 457.872 190.062C461.719 190.213 464.597 197.309 464.301 205.912C464.004 214.515 460.645 221.367 456.798 221.216C452.95 221.066 450.072 213.97 450.368 205.367Z" fill="#000002" fill-rule="nonzero" opacity="1" stroke="none"/>
<path d="M396.21 204.13C395.913 195.527 392.554 188.675 388.706 188.825C384.859 188.976 381.981 196.072 382.277 204.675C382.574 213.278 385.933 220.13 389.781 219.979C393.628 219.829 396.506 212.733 396.21 204.13Z" fill="#000002" fill-rule="nonzero" opacity="1" stroke="none"/>
</g>
<g id="Layer-7" vectornator:layerName="Layer 7">
<path d="M484.249 146.233L426.481 173.75" fill="none" opacity="1" stroke="#000002" stroke-linecap="butt" stroke-linejoin="round" stroke-width="11.992"/>
<path d="M360.881 142.222L419.132 173.75" fill="none" opacity="1" stroke="#000002" stroke-linecap="butt" stroke-linejoin="round" stroke-width="11.992"/>
</g>
<g id="Layer-9" vectornator:layerName="Layer 9"/>
</svg>
